<svg id="svg" xmlns="http://www.w3.org/2000/svg" xmlns:xlink="http://www.w3.org/1999/xlink" width="400" height="384.71337579617835" viewBox="0, 0, 400,384.71337579617835"><g id="svgg"><path id="path0" d="M147.068 2.654 C 105.366 7.526,73.850 38.304,64.430 83.357 L 61.783 96.013 55.414 97.663 C 45.200 100.310,28.926 99.875,23.916 96.820 C 15.751 91.842,5.829 94.470,1.953 102.639 C -2.462 111.943,1.881 119.640,15.564 126.765 C 20.666 129.421,26.425 132.699,28.361 134.049 L 31.880 136.503 29.060 140.463 C 14.263 161.243,42.028 181.449,71.683 171.481 C 84.074 167.315,83.270 167.222,85.932 173.127 L 88.175 178.100 82.623 182.910 C 72.521 191.661,58.598 206.603,50.792 217.071 C 5.717 277.515,31.261 351.247,104.038 370.760 C 228.387 404.101,369.190 364.722,393.937 289.683 C 404.728 256.962,400.705 237.853,374.322 196.518 C 368.613 187.573,360.398 172.803,356.066 163.694 C 338.338 126.419,320.637 123.315,289.600 152.038 C 265.119 174.693,244.849 184.710,231.213 180.892 C 224.044 178.885,224.055 178.787,232.166 171.987 C 276.524 134.800,279.601 70.463,238.965 29.824 C 216.195 7.053,185.950 -1.889,147.068 2.654 M194.900 11.711 C 290.881 36.851,277.803 180.970,178.981 187.146 C 167.352 187.872,165.785 188.198,169.768 189.061 C 178.928 191.046,199.441 187.466,212.139 181.668 L 218.545 178.743 220.746 181.660 C 222.833 184.427,222.831 184.652,220.709 186.016 C 218.691 187.312,218.721 187.372,221.019 186.626 C 223.945 185.676,224.248 185.632,226.508 185.836 C 227.425 185.919,227.826 186.554,227.398 187.247 C 226.951 187.969,227.463 188.182,228.596 187.747 C 229.684 187.330,231.576 187.413,232.803 187.932 C 243.620 192.511,268.316 180.027,292.994 157.505 C 325.517 127.825,343.173 136.304,357.602 188.535 C 359.334 194.804,360.301 197.084,359.899 193.949 C 358.604 183.841,362.562 189.846,365.148 201.911 C 366.413 207.814,366.637 208.249,366.130 203.822 C 365.275 196.347,367.803 198.498,370.155 207.247 C 371.061 210.618,371.841 212.258,371.889 210.892 C 372.045 206.364,374.612 210.751,377.166 219.911 C 378.808 225.797,379.412 227.007,379.010 223.605 L 378.413 218.548 380.758 222.403 C 390.082 237.735,394.181 256.853,391.387 271.975 C 390.469 276.946,390.428 276.868,389.710 268.790 L 388.975 260.510 388.755 269.181 C 388.517 278.579,386.264 289.493,384.755 288.561 C 384.240 288.242,383.156 290.189,382.348 292.887 C 380.872 297.813,374.802 309.554,373.732 309.554 C 373.417 309.554,373.772 308.408,374.522 307.006 C 377.756 300.965,374.438 305.176,370.040 312.696 C 367.391 317.227,363.762 322.243,361.975 323.843 L 358.728 326.752 360.994 323.138 C 365.054 316.666,362.386 318.343,357.883 325.094 C 353.179 332.147,345.898 338.363,348.891 332.771 C 351.237 328.387,349.569 329.424,346.633 334.175 C 345.164 336.551,341.060 340.016,337.293 342.060 L 330.573 345.707 333.848 341.325 C 339.947 333.164,339.305 333.093,331.741 341.090 C 327.407 345.673,322.039 349.919,319.108 351.084 L 314.013 353.109 318.471 348.280 C 322.385 344.042,322.109 344.171,316.204 349.343 C 309.924 354.844,301.014 358.992,294.051 359.656 C 292.419 359.811,289.802 360.656,288.236 361.532 C 286.671 362.409,283.231 363.318,280.593 363.554 C 277.955 363.789,273.790 364.830,271.338 365.867 C 268.885 366.904,264.586 368.148,261.783 368.632 L 256.688 369.510 263.182 365.864 C 271.748 361.055,285.533 351.351,284.817 350.634 C 284.506 350.323,281.489 352.179,278.113 354.758 C 269.696 361.188,247.741 371.643,240.764 372.544 C 235.471 373.227,236.020 372.805,247.919 367.050 C 255.007 363.621,261.211 360.162,261.705 359.363 C 262.199 358.564,258.979 359.880,254.550 362.288 C 242.894 368.625,225.105 374.540,218.051 374.425 L 212.102 374.328 216.561 372.611 C 222.860 370.186,218.965 370.301,210.389 372.794 C 188.829 379.062,109.758 368.339,84.713 355.751 C 53.863 340.246,37.262 315.163,35.976 282.111 C 34.978 256.469,38.421 248.252,54.671 237.498 C 57.532 235.605,59.873 233.826,59.873 233.544 C 59.873 232.466,54.470 236.000,47.755 241.469 C 43.910 244.601,40.764 246.854,40.764 246.475 C 40.764 244.907,48.519 230.571,49.381 230.545 C 49.897 230.529,51.752 229.315,53.503 227.846 L 56.688 225.175 53.028 227.369 C 48.964 229.806,49.123 229.315,55.173 220.748 C 57.917 216.861,61.723 213.945,68.972 210.174 C 74.477 207.310,78.981 204.701,78.981 204.376 C 78.981 204.051,75.483 205.551,71.209 207.708 C 61.339 212.690,60.812 212.044,68.716 204.651 C 72.200 201.392,74.681 198.726,74.229 198.726 C 72.380 198.726,80.829 191.154,84.267 189.730 C 86.309 188.884,87.691 187.903,87.338 187.550 C 86.984 187.197,88.112 185.223,89.844 183.165 C 93.787 178.480,93.770 177.691,89.602 171.676 C 87.026 167.959,86.567 166.427,87.691 165.302 C 88.506 164.488,89.181 164.366,89.191 165.032 C 89.202 165.697,89.748 165.392,90.405 164.354 C 91.403 162.775,92.288 163.089,95.795 166.264 C 99.752 169.848,99.814 169.863,96.891 166.544 C 92.822 161.922,95.066 158.618,99.629 162.514 C 102.059 164.588,102.230 164.615,100.733 162.685 C 98.325 159.582,100.826 156.750,103.797 159.215 C 105.485 160.616,105.668 160.550,104.988 158.779 C 104.260 156.880,105.444 156.308,109.093 156.797 C 109.540 156.857,110.257 156.427,110.686 155.841 C 111.114 155.256,113.589 153.795,116.186 152.595 C 139.849 141.659,137.315 124.937,110.050 112.090 C 100.187 107.443,95.077 104.047,88.238 97.596 L 79.307 89.171 73.306 91.826 C 66.179 94.978,65.902 94.824,67.226 88.451 C 68.111 84.191,68.825 83.406,72.503 82.654 C 83.805 80.343,91.023 67.994,91.195 50.675 L 91.307 39.383 96.291 34.244 C 119.084 10.734,157.583 1.937,194.900 11.711 M86.950 55.686 C 85.797 62.567,82.965 63.882,81.046 58.427 C 80.112 55.770,80.477 54.081,82.798 50.326 C 86.539 44.273,88.450 46.740,86.950 55.686 M139.336 55.333 C 125.534 61.340,117.888 95.445,129.356 99.846 C 138.410 103.320,147.772 96.763,152.748 83.462 C 159.761 64.718,152.545 49.584,139.336 55.333 M148.317 60.601 C 149.721 62.005,150.318 65.045,150.318 70.792 L 150.318 78.981 146.589 78.981 C 138.924 78.981,134.501 66.773,140.127 61.146 C 143.195 58.079,145.633 57.917,148.317 60.601 M78.970 63.071 C 77.862 64.406,78.089 64.630,80.038 64.120 C 85.534 62.683,81.553 75.958,75.830 78.155 C 73.012 79.236,73.399 78.085,77.846 72.158 L 81.807 66.879 77.985 70.883 C 75.884 73.086,73.571 75.947,72.846 77.242 C 72.122 78.537,71.153 79.221,70.694 78.762 C 70.236 78.303,70.815 76.470,71.983 74.689 C 73.150 72.907,73.749 70.874,73.314 70.170 C 72.331 68.579,77.904 59.844,79.336 60.729 C 79.910 61.083,79.745 62.137,78.970 63.071 M247.389 70.382 C 258.185 99.479,251.081 130.067,227.414 156.391 C 219.618 165.061,221.733 165.044,230.121 156.369 C 254.534 131.122,261.170 97.173,247.675 66.561 C 243.179 56.362,243.013 58.586,247.389 70.382 M137.104 79.372 C 136.655 81.101,136.904 81.345,138.101 80.351 C 139.244 79.402,140.398 79.680,142.169 81.330 C 143.528 82.597,145.345 83.399,146.206 83.112 C 148.747 82.265,148.004 85.689,144.540 90.787 C 141.569 95.160,137.648 97.624,139.510 93.949 C 139.953 93.073,139.494 93.360,138.489 94.586 C 136.406 97.127,133.136 97.650,134.507 95.223 C 135.204 93.988,135.039 93.969,133.772 95.141 C 128.742 99.792,127.513 91.446,131.901 82.442 C 134.866 76.358,134.315 76.335,130.286 82.374 C 128.396 85.208,130.231 79.370,132.653 74.844 C 134.438 71.508,138.162 75.297,137.104 79.372 M132.520 88.441 C 130.627 93.420,131.001 94.204,133.272 90.015 C 134.349 88.026,134.916 86.084,134.530 85.698 C 134.145 85.312,133.240 86.547,132.520 88.441 M83.499 102.066 C 89.507 108.330,99.075 114.633,107.116 117.623 C 133.886 127.580,132.525 139.258,103.185 151.347 C 96.529 154.089,85.365 158.780,78.376 161.771 C 52.435 172.872,31.847 167.684,31.847 150.047 C 31.847 139.757,34.472 138.590,40.240 146.317 C 49.006 158.058,66.158 157.202,87.005 143.981 C 97.665 137.221,95.990 136.121,71.419 133.747 C 43.164 131.018,12.231 121.015,8.252 113.321 C 2.076 101.377,12.596 97.164,26.056 106.191 C 38.382 114.458,70.064 123.325,70.064 118.508 C 70.064 117.787,68.464 117.197,66.510 117.197 C 62.481 117.197,49.685 114.113,43.949 111.759 C 40.243 110.238,40.378 110.169,48.408 109.456 L 56.688 108.720 46.497 108.481 C 33.682 108.180,28.703 105.791,40.764 105.730 C 50.721 105.680,64.059 103.006,71.575 99.554 C 74.597 98.166,77.384 96.982,77.767 96.923 C 78.150 96.864,80.730 99.178,83.499 102.066 M12.680 113.942 C 14.904 116.622,21.641 120.185,22.624 119.202 C 23.026 118.800,22.766 118.471,22.046 118.471 C 21.326 118.471,18.523 116.969,15.817 115.132 C 13.111 113.296,11.699 112.760,12.680 113.942 M53.942 137.687 C 60.357 139.011,67.611 140.142,70.064 140.200 C 78.950 140.412,80.139 142.297,71.975 143.231 C 61.163 144.468,59.775 144.892,65.605 145.174 L 70.701 145.420 64.331 147.771 C 54.175 151.518,46.347 151.157,45.276 146.891 C 44.803 145.006,42.629 141.208,40.445 138.451 C 36.749 133.784,36.675 133.501,39.377 134.359 C 40.974 134.866,47.528 136.363,53.942 137.687 M94.563 148.730 C 88.770 151.213,84.228 153.442,84.470 153.684 C 85.025 154.239,98.740 148.882,103.822 146.125 C 110.136 142.699,105.765 143.929,94.563 148.730 M314.981 147.731 C 308.253 150.785,299.826 157.162,294.506 163.225 C 287.900 170.754,289.856 170.269,298.451 162.248 C 302.855 158.139,309.734 153.183,313.738 151.235 C 323.477 146.496,324.585 143.371,314.981 147.731 M320.530 155.418 C 313.980 162.668,314.814 163.832,321.656 156.990 C 324.809 153.837,327.389 151.046,327.389 150.788 C 327.389 149.085,324.474 151.053,320.530 155.418 M335.286 164.968 C 335.286 172.511,335.635 175.344,336.306 173.248 C 336.867 171.497,337.326 167.771,337.326 164.968 C 337.326 162.166,336.867 158.439,336.306 156.688 C 335.635 154.593,335.286 157.425,335.286 164.968 M91.554 169.037 C 93.091 171.994,95.344 173.870,96.258 172.956 C 96.559 172.655,95.297 171.022,93.453 169.326 C 90.256 166.386,90.168 166.372,91.554 169.037 M312.774 193.830 C 310.853 195.341,306.789 200.467,303.742 205.220 C 296.427 216.632,295.353 217.119,280.360 215.822 C 252.028 213.371,233.830 217.701,221.338 229.866 C 213.381 237.614,214.912 239.291,223.767 232.529 C 235.619 223.480,255.375 219.089,273.132 221.559 C 294.932 224.591,299.487 222.999,308.917 209.049 C 312.420 203.867,316.201 199.053,317.319 198.352 C 323.724 194.334,337.652 206.497,342.547 220.382 C 344.389 225.608,345.774 251.712,344.001 247.771 C 343.124 245.823,342.829 246.724,342.747 251.592 C 342.607 259.972,341.422 264.500,339.970 262.210 C 339.255 261.081,338.886 261.915,338.873 264.691 C 338.854 268.754,335.840 277.707,334.492 277.707 C 334.123 277.707,334.113 275.844,334.468 273.567 C 334.824 271.290,333.902 273.096,332.420 277.580 C 329.694 285.832,323.917 296.317,322.744 295.143 C 322.393 294.792,323.022 292.731,324.143 290.564 C 327.515 284.043,325.362 286.132,321.309 293.313 C 319.233 296.992,314.934 302.399,311.757 305.327 C 308.580 308.256,306.220 310.891,306.513 311.184 C 307.293 311.964,294.604 320.169,285.547 324.741 C 271.178 331.995,276.297 334.869,291.390 328.021 C 331.036 310.034,359.087 259.884,349.688 223.796 C 343.580 200.346,324.343 184.730,312.774 193.830 M341.159 226.115 C 341.803 227.516,342.650 229.522,343.039 230.573 C 343.651 232.224,343.762 232.214,343.848 230.498 C 343.904 229.406,343.058 227.400,341.968 226.040 C 340.019 223.606,340.006 223.608,341.159 226.115 M243.605 228.727 C 236.108 230.745,231.474 233.019,226.752 236.996 C 222.977 240.176,223.516 240.010,234.658 234.562 C 241.169 231.378,245.561 230.201,253.129 229.608 C 260.204 229.055,262.142 228.569,259.873 227.919 C 255.051 226.536,250.992 226.738,243.605 228.727 M340.905 240.127 C 341.953 244.811,342.682 245.828,342.656 242.569 C 342.645 241.226,342.054 239.268,341.343 238.217 C 340.399 236.821,340.281 237.336,340.905 240.127 M315.417 247.138 C 313.834 257.322,300.637 267.204,300.637 258.205 C 300.637 256.588,299.764 254.151,298.697 252.791 C 296.891 250.489,296.814 250.651,297.576 255.150 C 299.140 264.396,292.428 275.588,283.439 278.721 C 279.655 280.041,279.650 280.055,282.933 280.154 C 287.853 280.303,294.337 275.280,297.594 268.794 C 300.401 263.204,302.418 261.979,310.784 260.778 C 316.039 260.023,314.134 275.370,308.328 280.573 C 304.532 283.975,298.089 285.377,298.089 282.803 C 298.089 282.102,297.477 281.529,296.729 281.529 C 295.927 281.529,295.718 282.627,296.220 284.207 C 298.479 291.324,297.230 296.030,291.805 300.844 C 288.452 303.820,287.451 305.278,289.048 304.860 C 290.427 304.500,292.541 303.115,293.746 301.784 C 294.950 300.452,297.504 299.363,299.419 299.363 C 301.335 299.363,304.256 298.204,305.910 296.788 L 308.917 294.213 304.156 296.379 C 298.420 298.989,298.402 298.972,299.069 291.521 C 299.569 285.947,299.858 285.541,303.864 284.790 C 308.755 283.872,314.036 278.304,315.248 272.787 C 315.873 269.941,316.967 268.900,319.962 268.301 C 326.563 266.980,333.758 258.638,333.758 252.304 C 333.758 249.081,333.256 247.294,332.484 247.771 C 331.783 248.204,331.210 249.986,331.210 251.731 C 331.210 258.273,326.095 264.471,318.790 266.781 C 316.384 267.542,315.920 267.214,315.904 264.736 C 315.893 263.112,315.344 260.929,314.684 259.885 C 313.890 258.628,314.044 257.121,315.139 255.426 C 317.486 251.796,318.391 246.924,317.268 243.954 C 316.516 241.963,316.114 242.654,315.417 247.138 M199.562 262.295 C 191.576 282.254,200.001 306.674,218.102 316.029 C 225.603 319.905,226.796 318.838,219.585 314.702 C 203.451 305.449,195.894 285.815,201.055 266.561 C 203.710 256.656,202.827 254.134,199.562 262.295 M44.673 285.803 C 43.637 314.075,78.697 347.571,118.153 356.005 C 125.618 357.601,122.495 354.614,114.331 352.349 C 79.501 342.688,56.279 322.056,47.640 293.095 C 46.055 287.784,44.720 284.503,44.673 285.803 M353.073 321.711 C 350.939 326.395,351.346 327.394,353.654 323.136 C 354.732 321.147,355.375 319.282,355.084 318.990 C 354.792 318.699,353.888 319.923,353.073 321.711 M310.828 344.586 C 307.734 347.739,305.489 350.318,305.839 350.318 C 306.189 350.318,309.008 347.739,312.102 344.586 C 315.196 341.433,317.441 338.854,317.091 338.854 C 316.741 338.854,313.922 341.433,310.828 344.586 M298.089 347.923 C 294.236 351.446,288.360 356.102,285.033 358.270 C 281.706 360.437,279.243 362.470,279.561 362.788 C 280.476 363.704,295.676 352.352,301.214 346.617 C 308.049 339.538,306.596 340.145,298.089 347.923 M299.363 354.296 C 294.923 358.188,294.922 358.193,299.006 355.476 C 301.262 353.975,303.445 352.201,303.858 351.533 C 305.087 349.545,304.068 350.171,299.363 354.296 M266.242 355.528 C 264.127 357.258,263.913 357.691,265.605 356.816 C 269.760 354.669,272.064 352.905,270.701 352.914 C 270.000 352.919,267.994 354.095,266.242 355.528 M247.705 357.900 C 247.039 358.567,243.341 360.849,239.489 362.972 C 235.636 365.096,233.057 366.838,233.758 366.844 C 235.508 366.859,248.036 359.594,249.028 357.988 C 250.039 356.352,249.302 356.303,247.705 357.900 M225.478 368.790 C 223.025 369.734,221.879 370.525,222.930 370.546 C 223.981 370.568,226.561 369.798,228.662 368.836 C 233.582 366.583,231.294 366.550,225.478 368.790 " stroke="none" fill="#f5f5db" fill-rule="evenodd"></path></g></svg>