<svg id="svg" xmlns="http://www.w3.org/2000/svg" xmlns:xlink="http://www.w3.org/1999/xlink" width="400" height="296.6990291262136" viewBox="0, 0, 400,296.6990291262136"><g id="svgg"><path id="path0" d="M13.554 1.061 C 0.735 6.814,-1.902 27.930,6.748 55.551 L 8.932 62.524 8.546 85.825 C 7.355 157.629,10.172 185.434,22.544 224.022 C 25.310 232.650,25.348 229.932,22.073 257.864 C 18.286 290.173,28.166 303.421,46.990 291.276 C 59.273 283.352,68.160 280.424,80.000 280.404 C 83.631 280.397,94.808 279.654,104.838 278.751 C 120.930 277.302,124.856 277.202,138.236 277.901 C 146.575 278.336,154.796 278.531,156.505 278.334 C 158.214 278.137,163.995 277.470,169.352 276.852 C 182.617 275.321,194.293 275.450,210.874 277.310 C 238.529 280.411,243.144 280.325,279.219 276.036 C 295.982 274.043,296.898 273.877,306.796 271.044 C 319.774 267.329,332.481 269.094,346.611 276.577 C 379.644 294.069,384.899 295.438,391.949 288.388 C 401.425 278.912,401.870 260.444,393.388 228.738 C 389.387 213.781,389.116 210.205,389.322 175.146 C 389.527 140.417,389.362 137.625,384.749 97.864 C 381.066 66.117,380.659 57.792,382.147 44.660 C 384.410 24.689,383.801 18.918,378.605 11.068 C 375.488 6.358,373.140 5.895,363.996 8.186 C 357.074 9.921,355.722 10.472,343.367 16.591 L 332.171 22.136 311.134 21.888 C 288.044 21.616,282.083 22.188,264.078 26.405 C 214.131 38.102,201.677 39.157,183.651 33.219 C 177.649 31.242,169.785 29.031,166.175 28.305 C 162.565 27.579,156.291 25.960,152.233 24.706 C 133.787 19.010,119.443 17.553,103.427 19.751 C 97.221 20.602,89.557 21.017,81.679 20.928 C 71.256 20.810,68.897 21.012,65.200 22.340 C 53.845 26.418,51.646 25.665,40.000 13.703 C 28.759 2.157,20.214 -1.928,13.554 1.061 M20.978 7.382 C 23.089 8.452,27.533 11.534,30.855 14.230 C 51.470 30.969,52.859 31.592,64.004 29.096 C 68.652 28.055,73.835 27.667,83.883 27.607 C 96.097 27.534,98.342 27.304,106.019 25.336 C 120.969 21.504,123.063 21.733,160.790 31.301 C 178.526 35.799,195.765 39.858,199.099 40.322 C 215.978 42.670,233.658 40.608,266.408 32.473 L 285.437 27.747 298.641 28.041 C 334.885 28.849,338.397 28.319,351.219 20.097 C 362.043 13.157,366.609 12.523,371.128 17.333 C 374.295 20.704,376.729 37.334,375.231 45.369 C 374.143 51.207,374.072 51.256,371.005 48.283 C 366.763 44.171,366.064 47.135,369.610 54.197 C 374.189 63.317,377.191 74.501,379.393 90.634 C 385.103 132.492,386.779 184.338,383.177 207.694 C 381.797 216.639,382.001 218.233,385.187 223.373 C 386.751 225.896,388.474 230.859,390.285 238.058 C 395.600 259.186,395.564 268.024,390.119 278.835 C 384.932 289.132,383.033 289.030,360.051 277.225 C 330.400 261.994,320.499 260.883,282.718 268.551 C 268.120 271.514,215.562 271.743,200.388 268.909 C 191.969 267.337,191.032 267.305,184.077 268.364 C 174.478 269.825,162.969 269.804,146.508 268.296 C 132.369 267.000,131.567 267.045,116.505 269.950 C 111.165 270.979,99.090 272.518,89.670 273.368 C 60.524 275.999,62.582 275.456,45.415 285.034 C 32.120 292.452,33.391 292.299,30.821 286.796 C 26.129 276.750,26.979 243.361,32.181 233.384 C 34.282 229.355,33.716 226.126,29.662 218.997 C 21.876 205.306,17.924 188.056,15.610 157.670 C 12.937 122.566,12.949 123.048,14.332 107.573 C 16.469 83.652,16.551 81.488,15.588 74.169 C 15.082 70.328,13.491 61.767,12.051 55.146 C 5.524 25.126,5.542 15.002,12.139 8.210 C 15.341 4.912,15.985 4.852,20.978 7.382 M34.442 56.440 C 34.162 57.223,32.598 60.763,30.966 64.307 C 23.629 80.246,25.051 84.229,32.660 69.050 C 37.266 59.862,38.167 56.072,35.923 55.335 C 35.389 55.160,34.723 55.657,34.442 56.440 M343.293 180.713 C 334.108 193.333,315.592 212.001,302.524 221.815 C 294.113 228.132,290.543 232.233,293.454 232.233 C 299.144 232.233,348.830 183.033,351.438 174.816 C 353.303 168.940,350.258 171.145,343.293 180.713 M361.092 198.053 C 360.411 198.451,358.720 201.080,357.334 203.895 C 355.802 207.006,352.557 211.427,349.058 215.169 C 344.527 220.013,343.301 221.824,343.301 223.672 C 343.301 227.103,345.927 226.777,349.629 222.887 C 361.702 210.195,369.604 193.076,361.092 198.053 M38.835 209.779 C 38.835 211.262,45.269 219.862,46.147 219.553 C 48.721 218.647,42.329 208.932,39.160 208.932 C 38.981 208.932,38.835 209.313,38.835 209.779 M59.806 232.032 C 59.806 233.765,62.622 235.784,74.175 242.332 C 89.199 250.848,91.554 251.558,91.639 247.595 C 91.650 247.071,64.131 232.818,61.165 231.813 C 60.417 231.559,59.806 231.658,59.806 232.032 M360.202 260.385 C 352.607 263.604,351.702 264.742,355.719 266.017 C 357.981 266.734,365.723 262.645,367.083 260.014 C 368.742 256.807,368.629 256.814,360.202 260.385 " stroke="none" fill="#f5f5db" fill-rule="evenodd"></path></g></svg>