<svg id="svg" xmlns="http://www.w3.org/2000/svg" xmlns:xlink="http://www.w3.org/1999/xlink" width="400" height="352.61044176706827" viewBox="0, 0, 400,352.61044176706827"><g id="svgg"><path id="path0" d="M147.390 0.996 C 141.731 3.037,94.356 27.751,90.107 30.879 C 77.576 40.103,70.898 57.755,50.737 134.940 C 47.217 148.414,43.386 163.414,42.222 168.273 C 39.235 180.746,35.591 193.959,26.496 225.301 C 6.520 294.139,-0.166 322.941,2.481 328.751 C 5.455 335.278,41.554 347.791,57.408 347.791 C 64.924 347.791,66.298 345.580,75.127 319.277 C 86.177 286.360,103.094 241.767,104.533 241.767 C 105.034 241.767,105.146 243.503,104.830 246.386 C 103.423 259.197,100.848 276.355,97.965 292.117 C 91.488 327.527,92.129 329.685,112.003 339.401 C 144.308 355.195,175.684 355.686,195.553 340.710 L 198.737 338.310 206.397 342.133 C 235.153 356.487,272.190 352.869,298.394 333.147 C 308.038 325.889,308.209 324.674,303.230 298.836 C 298.607 274.842,294.158 243.878,295.008 241.616 C 295.839 239.405,305.758 265.168,322.126 312.048 C 332.251 341.046,334.349 345.681,337.994 347.099 C 347.403 350.760,391.937 337.043,397.321 328.826 C 399.959 324.801,393.687 295.298,380.692 250.602 C 378.444 242.871,373.534 225.703,369.781 212.450 C 366.027 199.197,362.093 185.462,361.038 181.928 C 359.983 178.394,358.905 174.267,358.642 172.758 C 358.378 171.249,358.004 169.757,357.808 169.441 C 357.613 169.125,352.897 151.565,347.328 130.418 C 326.851 52.664,321.269 38.576,307.071 28.807 C 301.957 25.288,256.236 2.621,251.929 1.469 C 247.935 0.401,248.069 0.344,241.427 5.934 C 235.849 10.629,232.213 10.540,230.783 5.675 C 228.659 -1.544,222.879 -1.148,209.368 7.141 C 201.724 11.830,200.788 11.899,192.339 8.383 C 183.396 4.662,177.268 4.221,173.742 7.045 C 172.501 8.039,170.115 9.811,168.438 10.982 L 165.391 13.112 163.217 11.497 C 162.022 10.609,159.995 8.053,158.713 5.817 C 155.537 0.279,152.712 -0.924,147.390 0.996 M259.671 14.588 C 267.466 18.487,267.530 18.543,267.138 21.108 C 266.920 22.531,266.530 32.369,266.273 42.972 C 265.656 68.323,264.473 89.956,263.363 96.185 L 262.469 101.205 254.728 101.217 C 240.916 101.238,239.365 104.850,247.595 117.831 C 254.304 128.414,254.300 128.395,251.088 134.773 C 241.869 153.076,210.511 205.622,208.807 205.622 C 203.827 205.622,206.834 181.887,216.358 146.012 C 221.502 126.637,229.260 93.494,233.333 73.494 C 236.355 58.653,244.861 20.211,245.863 16.867 C 248.413 8.353,247.505 8.503,259.671 14.588 M149.617 12.651 C 153.364 16.792,156.991 30.086,168.300 81.124 C 175.319 112.807,181.067 136.413,191.572 176.707 C 198.353 202.716,201.405 220.723,199.258 222.050 C 198.199 222.705,196.566 220.145,185.958 201.205 C 180.762 191.928,172.082 176.566,166.671 167.068 C 143.085 125.674,144.702 130.411,150.736 120.403 C 161.375 102.755,160.568 99.659,145.630 100.827 C 139.615 101.298,138.332 101.184,137.433 100.100 C 136.010 98.386,134.780 80.075,132.854 31.931 L 132.316 18.481 139.853 14.879 C 148.590 10.704,147.982 10.843,149.617 12.651 M237.751 19.726 C 237.751 19.972,236.690 24.400,235.394 29.565 C 234.097 34.730,229.745 52.871,225.722 69.880 C 209.141 139.978,202.454 164.659,200.041 164.659 C 197.589 164.659,192.379 145.464,174.747 71.486 C 169.640 50.060,165.122 31.105,164.705 29.364 C 163.024 22.336,167.307 23.246,171.938 30.900 C 177.584 40.233,179.657 40.436,192.787 32.943 C 202.478 27.412,202.126 27.473,209.160 30.120 C 212.702 31.454,216.128 32.129,219.357 32.129 C 224.708 32.129,224.364 32.366,231.994 23.377 C 234.951 19.892,237.751 18.116,237.751 19.726 M295.181 33.302 C 313.333 42.085,313.685 42.896,336.876 129.317 C 351.802 184.936,356.922 203.277,368.271 241.767 C 384.121 295.520,388.717 312.421,389.935 321.428 L 390.443 325.186 379.267 328.838 C 364.959 333.515,353.710 336.315,346.492 336.996 L 340.776 337.536 340.201 334.472 C 339.372 330.052,318.842 268.111,306.680 233.333 C 299.430 212.603,296.393 202.886,296.639 201.205 C 296.833 199.880,298.870 191.566,301.165 182.731 C 305.537 165.907,307.071 152.070,304.657 151.231 C 301.274 150.056,289.510 186.877,286.409 208.349 C 282.730 233.825,283.698 246.496,293.106 295.977 C 295.793 310.110,297.983 322.037,297.972 322.483 C 297.961 322.929,295.702 324.985,292.952 327.054 C 268.033 345.794,227.316 346.577,207.302 328.700 L 202.957 324.819 205.101 306.386 C 207.679 284.214,209.198 267.989,210.834 245.116 L 212.060 227.983 220.169 212.684 C 224.629 204.269,234.587 186.136,242.298 172.387 C 267.084 128.196,266.974 128.514,260.737 118.765 C 256.163 111.617,256.134 111.964,261.348 111.426 C 272.281 110.297,273.667 106.108,274.695 71.084 C 275.384 47.584,276.561 29.670,277.592 26.983 C 278.156 25.513,281.758 26.807,295.181 33.302 M123.023 30.270 C 123.337 32.120,124.340 47.890,125.253 65.315 C 127.645 110.975,127.857 111.626,140.356 111.642 L 143.764 111.647 140.192 116.864 C 132.981 127.398,133.326 128.492,157.820 172.691 C 168.225 191.466,182.108 217.490,188.672 230.522 L 200.607 254.217 197.557 278.313 C 195.879 291.566,193.871 308.538,193.094 316.027 L 191.682 329.645 188.382 332.945 C 176.864 344.463,142.315 344.066,116.086 332.113 C 101.795 325.601,101.287 322.906,107.972 289.139 C 118.418 236.381,118.194 216.095,106.742 177.912 C 94.065 135.648,88.203 144.855,100.182 188.213 L 103.916 201.728 101.257 209.900 C 99.795 214.395,92.461 235.783,84.961 257.430 C 70.743 298.462,65.237 315.232,61.415 329.151 L 59.144 337.418 53.468 336.892 C 38.259 335.485,13.628 327.655,10.792 323.327 C 8.609 319.996,8.010 322.303,34.992 230.120 C 43.081 202.487,53.328 165.802,58.214 146.988 C 85.213 43.015,85.971 41.354,111.624 29.923 C 121.029 25.733,122.258 25.770,123.023 30.270 M318.460 177.237 C 314.471 181.226,325.331 196.464,334.018 199.066 C 342.215 201.522,339.752 194.375,328.348 182.614 C 322.378 176.457,320.345 175.352,318.460 177.237 M63.703 185.499 C 54.327 189.756,45.771 203.234,52.464 203.205 C 56.738 203.187,70.972 192.286,71.984 188.257 C 73.035 184.067,69.471 182.880,63.703 185.499 M320.914 204.502 C 316.437 208.978,330.251 221.129,337.280 218.898 C 341.696 217.496,335.874 208.738,328.112 205.107 C 323.338 202.874,322.604 202.812,320.914 204.502 M52.434 252.286 C 46.640 255.996,41.204 267.491,44.622 268.802 C 48.335 270.227,58.879 261.227,59.905 255.756 C 60.847 250.733,57.376 249.121,52.434 252.286 M143.394 266.751 C 134.071 267.733,129.786 271.225,135.501 273.184 C 139.776 274.651,169.949 274.716,172.490 273.265 C 181.237 268.269,164.523 264.527,143.394 266.751 M230.599 266.858 C 219.354 271.025,230.895 275.359,250.761 274.429 C 266.943 273.672,270.986 270.816,260.175 267.780 C 254.266 266.120,234.272 265.497,230.599 266.858 " stroke="none" fill="#472109" fill-rule="evenodd"></path></g></svg>