<svg id="svg" xmlns="http://www.w3.org/2000/svg" xmlns:xlink="http://www.w3.org/1999/xlink" width="400" height="511.68091168091166" viewBox="0, 0, 400,511.68091168091166"><g id="svgg"><path id="path0" d="M156.125 2.391 C 153.305 2.941,150.358 4.295,149.576 5.400 C 146.428 9.847,142.889 12.849,133.841 18.747 C 111.311 33.432,99.187 54.881,70.678 130.484 C 65.211 144.983,54.588 168.065,47.340 181.197 C 40.968 192.739,47.097 201.874,65.395 208.109 C 77.040 212.076,85.240 203.983,105.361 168.661 C 120.633 141.853,130.514 125.356,131.298 125.356 C 132.383 125.356,141.088 142.684,145.136 152.901 C 149.666 164.333,149.449 165.164,139.886 173.039 C 83.803 219.223,32.393 320.837,18.208 413.540 C 15.702 429.917,15.248 431.224,9.651 438.177 C -7.734 459.773,3.895 484.516,27.108 475.321 C 35.249 472.096,35.652 472.191,38.479 478.010 C 42.229 485.728,45.097 487.071,57.955 487.130 C 68.099 487.176,68.959 487.360,70.148 489.736 C 75.406 500.243,89.782 504.505,101.246 498.956 C 106.891 496.223,105.562 495.843,116.860 503.419 C 123.639 507.965,127.100 508.079,138.986 504.151 L 147.977 501.179 154.468 504.151 C 161.814 507.514,165.789 507.797,173.371 505.496 C 178.347 503.985,178.991 504.051,184.595 506.647 C 195.731 511.807,204.727 508.892,210.061 498.397 L 212.717 493.170 218.621 498.414 C 229.408 507.994,233.251 508.863,244.444 504.252 C 252.865 500.783,253.118 500.783,261.538 504.252 C 272.732 508.863,277.539 508.188,286.801 500.704 C 292.321 496.245,293.773 496.056,298.833 499.141 C 307.223 504.257,317.042 502.092,327.008 492.930 L 333.860 486.631 343.330 486.905 C 354.644 487.233,357.491 485.835,361.225 478.122 C 364.077 472.230,364.686 472.075,372.650 475.214 C 395.125 484.073,407.459 459.955,391.066 439.203 C 384.694 431.137,384.685 431.111,380.108 407.407 C 360.314 304.909,317.563 221.258,260.740 173.839 L 249.874 164.772 253.282 156.745 C 260.980 138.612,266.423 127.147,267.504 126.786 C 268.940 126.308,277.983 140.314,297.372 173.046 C 320.553 212.179,324.256 214.775,342.410 204.623 C 356.266 196.875,356.214 192.715,341.856 160.114 C 338.268 151.966,329.588 130.940,322.568 113.390 C 305.998 71.963,294.149 47.806,284.687 36.159 C 277.915 27.823,275.184 25.451,259.535 14.313 C 256.066 11.843,252.387 8.402,251.361 6.665 C 247.592 0.284,229.711 0.610,214.245 7.341 C 200.685 13.242,195.983 13.101,181.253 6.349 C 169.435 0.932,166.204 0.423,156.125 2.391 M177.725 15.010 C 195.737 24.207,205.728 24.151,220.584 14.770 C 235.362 5.438,235.897 5.913,235.897 28.339 L 235.897 43.955 228.698 47.505 C 224.739 49.458,216.350 54.953,210.057 59.716 C 196.110 70.272,197.549 70.288,187.012 59.450 C 180.634 52.890,176.299 49.553,170.649 46.857 L 162.963 43.188 162.971 33.845 C 162.981 21.841,164.184 9.117,165.308 9.117 C 165.789 9.117,171.377 11.769,177.725 15.010 M149.054 30.861 C 149.506 43.763,149.074 44.922,142.150 49.353 C 125.956 59.719,118.412 78.076,122.445 97.298 C 125.275 110.783,124.717 112.496,107.372 143.590 C 83.968 185.546,79.548 188.927,66.183 175.097 L 61.141 169.879 70.360 150.752 C 75.431 140.231,83.513 122.137,88.320 110.541 C 110.075 58.066,121.859 38.464,139.491 25.417 C 148.162 19.002,148.648 19.279,149.054 30.861 M262.482 27.066 C 280.871 42.833,289.607 58.191,314.178 117.949 C 320.106 132.365,328.089 150.517,331.919 158.287 L 338.882 172.415 335.538 175.110 C 319.411 188.110,315.672 184.998,287.977 135.523 L 274.903 112.168 276.568 103.662 C 281.194 80.035,274.867 59.793,259.845 50.153 C 251.305 44.673,247.088 32.612,250.576 23.647 C 252.301 19.214,253.842 19.657,262.482 27.066 M171.565 61.129 C 178.578 64.546,183.441 68.790,190.655 77.789 C 196.531 85.119,198.077 84.866,210.289 74.579 C 256.284 35.835,281.976 70.594,251.843 130.798 C 245.925 142.621,243.824 144.541,238.974 142.548 C 230.334 138.998,225.294 140.179,219.450 147.125 L 216.407 150.741 213.332 147.808 C 207.119 141.882,200.470 141.062,189.596 144.880 L 182.610 147.333 178.769 144.490 C 173.284 140.430,171.704 140.094,164.707 141.499 C 156.299 143.188,154.329 141.742,147.859 129.134 C 123.450 81.573,136.527 44.059,171.565 61.129 M102.476 112.733 C 96.261 118.948,98.690 131.495,105.002 125.782 C 109.951 121.304,112.073 113.668,109.174 110.769 C 107.160 108.755,106.161 109.048,102.476 112.733 M291.738 116.352 C 291.738 120.816,294.916 127.635,296.996 127.635 C 299.163 127.635,299.064 120.490,296.837 116.183 C 294.501 111.666,291.738 111.758,291.738 116.352 M172.110 155.042 C 175.564 161.497,170.724 166.491,165.283 162.086 C 162.948 160.195,162.821 159.656,164.121 157.189 C 166.758 152.189,170.102 151.290,172.110 155.042 M234.675 155.709 C 238.741 160.878,236.639 164.103,229.202 164.103 C 224.638 164.103,224.106 162.857,226.314 157.340 C 228.510 151.851,231.224 151.322,234.675 155.709 M204.097 156.450 C 211.081 161.157,209.233 164.050,199.219 164.087 C 188.812 164.126,187.320 160.911,195.442 155.945 C 199.707 153.337,199.456 153.323,204.097 156.450 M235.638 177.346 C 267.142 183.710,293.707 212.533,324.262 273.504 C 345.251 315.385,371.263 397.012,373.437 427.815 L 374.092 437.105 370.237 440.036 C 366.662 442.754,359.745 446.724,358.585 446.724 C 357.683 446.724,356.850 441.889,354.465 422.792 C 344.150 340.206,308.280 255.316,266.585 214.815 C 256.449 204.970,256.993 206.705,270.455 227.160 C 311.114 288.942,336.936 362.611,348.072 448.599 C 348.527 452.113,348.375 452.241,340.297 455.188 C 322.784 461.575,322.382 461.360,320.254 444.444 C 315.177 404.092,300.786 348.580,287.205 316.962 C 272.832 283.498,256.038 248.958,259.716 260.425 C 260.314 262.291,264.399 274.843,268.793 288.319 C 287.379 345.317,312.251 443.302,312.251 459.521 C 312.251 464.482,312.312 464.456,295.551 466.687 C 275.350 469.375,270.086 469.076,270.085 465.242 C 270.072 406.202,257.159 329.124,239.374 281.926 C 232.026 262.428,230.563 263.009,235.260 283.558 C 245.771 329.541,265.699 464.102,262.475 467.326 C 261.493 468.307,184.197 470.579,149.979 470.632 L 135.285 470.655 136.048 461.254 C 138.500 431.056,158.811 307.071,166.759 273.784 C 172.052 251.620,156.579 289.384,148.875 317.434 C 138.992 353.416,133.217 393.914,131.112 442.004 C 130.526 455.391,129.717 466.673,129.315 467.075 C 125.399 470.986,90.260 465.617,88.422 460.826 C 84.945 451.764,111.615 345.823,133.371 282.278 C 143.329 253.192,142.776 252.038,130.806 276.923 C 103.678 333.318,82.064 404.485,79.121 447.099 C 78.202 460.413,78.228 460.391,66.358 457.436 C 51.055 453.625,50.870 453.158,54.751 428.129 C 66.452 352.658,92.846 282.259,131.207 224.200 C 141.908 208.005,142.506 205.345,133.189 215.385 C 86.235 265.981,53.472 344.797,45.137 427.206 C 43.226 446.100,42.880 446.766,36.473 443.877 C 24.477 438.468,24.077 435.249,31.307 402.279 C 58.233 279.485,110.619 191.465,165.655 176.544 C 175.551 173.862,220.963 174.382,235.638 177.346 M61.308 187.646 C 61.836 191.206,57.922 195.324,54.915 194.370 C 51.626 193.326,51.762 190.870,55.303 187.328 C 58.528 184.104,60.799 184.224,61.308 187.646 M346.251 190.683 C 348.860 193.461,348.523 194.872,345.249 194.872 C 342.676 194.872,340.315 191.928,341.147 189.758 C 342.066 187.365,343.353 187.598,346.251 190.683 M326.768 192.877 C 329.894 196.246,330.478 199.801,327.990 200.314 C 325.319 200.864,321.368 196.596,321.368 193.162 C 321.368 189.612,323.628 189.493,326.768 192.877 M78.632 195.377 C 78.632 196.963,74.498 200.570,72.681 200.570 C 71.165 200.570,71.706 197.998,73.681 195.816 C 75.937 193.323,78.632 193.084,78.632 195.377 M199.090 287.703 C 196.333 294.462,194.474 462.392,197.186 459.681 C 198.958 457.908,200.714 387.108,200.332 332.764 C 200.149 306.752,199.590 286.475,199.090 287.703 M388.911 457.864 C 388.668 468.804,380.069 470.906,372.848 461.789 L 369.275 457.278 376.945 450.814 L 384.615 444.349 386.804 449.240 C 388.008 451.930,388.956 455.811,388.911 457.864 M23.365 450.145 C 30.897 455.327,31.178 459.502,24.355 464.869 C 14.874 472.327,5.982 460.284,13.029 449.529 C 15.422 445.878,17.328 445.991,23.365 450.145 M63.571 471.060 C 65.787 473.276,59.479 477.482,53.929 477.489 C 48.366 477.495,42.790 468.131,46.279 464.642 C 47.242 463.679,61.473 468.961,63.571 471.060 M353.670 469.306 C 353.401 475.066,350.267 477.848,344.864 477.123 C 335.880 475.918,335.092 470.951,343.287 467.187 C 350.526 463.863,353.892 464.550,353.670 469.306 M93.354 478.024 C 102.858 480.553,103.613 481.978,98.093 486.965 C 89.757 494.497,85.703 493.699,80.953 483.595 C 77.328 475.883,80.298 474.549,93.354 478.024 M320.016 480.641 C 320.850 489.299,309.251 494.417,302.653 488.302 C 297.946 483.939,299.004 480.785,305.983 478.370 C 314.925 475.276,319.572 476.028,320.016 480.641 M136.872 484.395 C 141.603 486.926,136.548 493.233,128.974 494.249 C 121.538 495.246,114.946 486.649,120.513 483.213 C 122.766 481.822,133.517 482.599,136.872 484.395 M173.294 483.231 C 177.515 485.490,171.210 495.726,165.598 495.726 C 161.717 495.726,155.354 489.399,156.804 486.982 C 159.112 483.136,168.940 480.901,173.294 483.231 M199.907 482.743 C 202.168 483.611,202.192 485.789,199.988 490.051 C 196.250 497.280,191.052 496.834,189.613 489.162 C 188.531 483.394,193.511 480.289,199.907 482.743 M236.467 483.316 C 244.914 485.635,245.187 491.211,237.018 494.595 C 232.377 496.517,222.222 488.574,222.222 483.022 C 222.222 481.647,231.053 481.829,236.467 483.316 M279.813 483.650 C 285.040 487.472,276.480 497.235,270.187 494.629 C 266.527 493.113,260.969 488.151,260.969 486.399 C 260.969 482.919,275.846 480.749,279.813 483.650 " stroke="none" fill="#472109" fill-rule="evenodd"></path></g></svg>