<svg id="svg" xmlns="http://www.w3.org/2000/svg" xmlns:xlink="http://www.w3.org/1999/xlink" width="400" height="385.8156028368794" viewBox="0, 0, 400,385.8156028368794"><g id="svgg"><path id="path0" d="M138.726 46.825 C 133.029 49.954,121.348 55.936,112.766 60.118 C 86.816 72.764,86.699 73.039,55.497 194.326 C 51.583 209.539,45.441 231.560,41.847 243.262 C 35.016 265.508,21.696 317.292,21.232 323.404 C 20.703 330.375,21.363 331.510,28.014 335.062 C 40.725 341.849,67.663 348.743,73.827 346.787 C 77.557 345.603,78.714 343.157,86.524 319.958 C 96.261 291.035,110.866 252.237,111.702 253.073 C 112.781 254.153,109.454 279.234,105.571 299.291 C 99.684 329.698,100.324 331.408,121.277 341.315 C 146.558 353.269,173.753 353.463,190.121 341.808 L 194.487 338.700 205.274 344.173 C 227.987 355.696,266.662 349.205,286.170 330.594 C 290.217 326.733,290.182 323.695,285.835 302.000 C 282.199 283.854,277.914 253.618,278.838 252.636 C 279.735 251.684,284.271 263.354,296.422 297.872 C 313.948 347.664,313.140 345.800,317.626 346.785 C 325.797 348.580,356.486 339.912,366.312 333.034 C 370.815 329.882,371.230 326.102,368.237 315.506 C 367.150 311.658,364.218 299.894,361.722 289.362 C 359.225 278.830,354.397 261.227,350.994 250.245 C 347.591 239.263,341.546 217.880,337.559 202.728 C 300.640 62.388,306.189 74.172,267.966 54.931 C 236.769 39.227,238.527 39.705,232.842 45.390 C 228.038 50.194,222.695 51.090,222.695 47.092 C 222.695 39.850,215.993 39.447,205.608 46.063 C 196.495 51.869,196.428 51.877,188.453 48.258 C 179.703 44.288,173.936 44.558,169.690 49.137 C 165.420 53.742,162.537 52.911,159.310 46.143 C 156.104 39.422,151.951 39.559,138.726 46.825 M247.076 53.327 L 254.342 57.009 253.354 88.434 C 252.810 105.717,251.883 122.092,251.293 124.823 L 250.220 129.787 241.776 129.787 C 230.740 129.787,229.633 133.748,237.485 145.148 C 240.272 149.195,242.538 153.459,242.521 154.622 C 242.474 157.649,205.250 221.986,203.546 221.986 C 199.814 221.986,201.251 201.255,206.235 183.184 C 213.757 155.907,216.219 145.638,224.647 106.383 C 235.847 54.212,236.959 49.645,238.459 49.645 C 239.202 49.645,243.080 51.302,247.076 53.327 M153.683 56.608 C 156.825 64.459,160.512 79.486,168.684 117.730 C 172.600 136.064,179.642 165.105,184.330 182.267 C 196.504 226.823,199.083 246.917,190.644 231.463 C 188.379 227.314,177.987 208.804,167.551 190.329 C 157.116 171.854,148.317 156.059,147.998 155.230 C 147.679 154.400,149.992 149.932,153.138 145.301 C 161.827 132.510,160.241 127.966,147.671 129.633 C 142.193 130.360,140.577 130.101,139.923 128.395 C 139.042 126.101,135.708 58.104,136.445 57.469 C 137.937 56.182,148.509 51.178,149.846 51.127 C 150.736 51.092,152.463 53.559,153.683 56.608 M228.369 58.894 C 228.369 59.301,225.826 69.992,222.717 82.653 C 219.609 95.315,214.495 116.844,211.353 130.496 C 204.584 159.907,197.242 185.816,195.677 185.816 C 193.270 185.816,187.872 165.654,169.477 87.943 C 166.614 75.851,164.173 65.357,164.051 64.623 C 163.328 60.261,168.470 63.080,170.941 68.400 C 174.703 76.502,178.114 76.832,188.951 70.143 C 197.419 64.917,197.522 64.894,202.336 67.190 C 209.647 70.676,217.947 70.263,219.991 66.312 C 222.956 60.577,228.369 55.786,228.369 58.894 M128.215 71.277 C 128.633 75.372,129.486 91.075,130.111 106.171 C 131.374 136.650,132.232 139.007,142.073 139.007 L 146.244 139.007 142.625 143.751 C 137.121 150.968,137.838 156.067,146.548 171.631 C 172.633 218.243,178.575 229.248,186.760 246.107 L 195.873 264.879 192.263 293.657 C 190.277 309.485,188.652 324.559,188.652 327.154 C 188.652 342.083,151.342 346.392,124.887 334.520 C 108.356 327.101,108.301 326.878,114.895 294.320 C 124.620 246.304,123.882 228.398,110.499 187.695 C 101.563 160.518,98.648 174.996,107.090 204.626 L 111.035 218.472 106.032 233.704 C 103.281 242.082,96.261 262.340,90.432 278.723 C 84.603 295.106,77.988 315.111,75.732 323.177 L 71.631 337.843 63.121 336.912 C 58.440 336.399,48.706 333.991,41.489 331.559 C 26.082 326.367,26.209 326.685,31.920 307.608 C 33.874 301.083,38.660 284.574,42.556 270.922 C 46.453 257.270,52.217 237.482,55.365 226.950 C 58.513 216.418,66.230 188.343,72.514 164.561 C 96.211 74.877,94.931 77.559,119.149 66.852 C 127.741 63.053,127.357 62.866,128.215 71.277 M277.004 69.285 C 291.659 76.055,293.514 78.409,299.824 98.236 C 304.493 112.907,308.502 127.455,324.739 188.652 C 327.947 200.745,334.782 225.000,339.928 242.553 C 359.657 309.849,361.694 317.164,362.048 321.973 L 362.411 326.924 349.323 331.473 C 342.124 333.975,332.436 336.452,327.793 336.977 L 319.351 337.932 317.694 331.732 C 315.425 323.242,301.626 281.810,289.621 247.439 L 279.685 218.992 283.898 204.177 C 291.501 177.436,289.427 162.085,281.321 185.106 C 268.699 220.954,266.672 247.020,273.713 282.979 C 275.240 290.780,277.626 303.451,279.014 311.136 L 281.539 325.109 277.294 328.499 C 255.898 345.588,216.747 346.104,201.151 329.502 L 198.080 326.233 200.457 306.734 C 201.764 296.009,203.545 277.021,204.415 264.539 L 205.996 241.844 214.940 224.757 C 219.860 215.360,228.950 198.764,235.140 187.878 C 254.837 153.241,254.622 153.903,248.936 145.525 C 244.512 139.006,244.512 139.007,249.544 139.007 C 257.855 139.007,260.973 131.435,260.985 111.216 C 260.997 90.892,262.732 63.830,264.022 63.830 C 264.668 63.830,270.510 66.285,277.004 69.285 M298.743 197.962 C 296.970 202.584,306.177 213.996,313.574 216.344 C 320.232 218.457,318.515 212.928,309.269 202.482 C 303.046 195.452,300.179 194.221,298.743 197.962 M72.861 205.558 C 65.002 210.349,60.642 219.867,66.312 219.851 C 70.179 219.840,82.922 209.514,83.432 205.977 C 84.018 201.914,79.153 201.721,72.861 205.558 M300.754 222.340 C 300.843 227.202,308.878 234.043,314.500 234.043 C 319.404 234.043,318.555 229.387,312.717 224.260 C 307.117 219.344,300.681 218.311,300.754 222.340 M63.531 264.837 C 59.006 269.580,56.232 276.116,58.223 277.346 C 62.011 279.687,71.969 271.318,72.655 265.217 C 73.233 260.083,68.264 259.876,63.531 264.837 M138.214 277.209 C 133.169 280.933,137.657 282.468,154.358 282.731 C 170.544 282.986,174.296 281.888,172.573 277.400 C 171.386 274.307,142.365 274.146,138.214 277.209 M220.006 276.474 C 218.917 277.164,218.418 278.750,218.898 279.999 C 220.340 283.756,253.901 283.359,253.901 279.584 C 253.901 275.300,225.916 272.732,220.006 276.474 " stroke="none" fill="#472109" fill-rule="evenodd"></path></g></svg>