<svg id="svg" xmlns="http://www.w3.org/2000/svg" xmlns:xlink="http://www.w3.org/1999/xlink" width="400" height="531.0344827586207" viewBox="0, 0, 400,531.0344827586207"><g id="svgg"><path id="path0" d="M159.999 66.768 C 155.612 67.230,153.292 68.465,152.576 70.721 C 152.003 72.527,147.010 76.752,141.479 80.112 C 119.567 93.423,113.878 103.446,81.820 185.216 C 76.272 199.369,69.170 214.674,66.038 219.226 C 57.345 231.864,59.131 238.284,73.276 245.246 C 89.642 253.301,93.090 250.380,117.654 207.655 C 126.889 191.591,135.195 177.295,136.111 175.885 C 137.399 173.903,139.019 176.056,143.247 185.368 C 154.207 209.502,154.223 209.630,146.903 215.076 C 97.177 252.066,48.638 349.335,36.984 435.345 C 36.092 441.928,34.390 445.456,29.783 450.271 C 15.520 465.180,25.538 490.211,42.976 483.234 C 45.417 482.258,48.761 480.896,50.407 480.209 C 52.602 479.293,53.814 480.042,54.951 483.014 C 58.089 491.224,62.760 493.630,73.060 492.343 C 81.544 491.283,82.568 491.510,83.573 494.677 C 86.534 504.005,103.021 508.557,111.737 502.453 C 115.410 499.879,115.955 500.027,121.843 505.197 C 128.640 511.164,134.624 511.538,146.210 506.718 C 151.233 504.628,152.516 504.702,157.125 507.347 C 163.171 510.817,168.760 511.150,174.792 508.402 C 178.339 506.786,180.084 507.094,185.163 510.233 C 192.633 514.849,201.732 511.769,206.211 503.106 L 208.822 498.057 215.623 504.201 C 223.381 511.209,228.738 511.882,237.911 506.999 C 243.781 503.874,244.078 503.875,250.342 507.071 C 259.686 511.838,266.068 511.270,273.165 505.039 C 278.876 500.024,279.421 499.882,283.091 502.453 C 290.722 507.798,301.452 506.041,308.623 498.273 C 314.751 491.635,315.299 491.415,323.045 492.477 C 331.899 493.691,336.862 490.901,339.877 483.014 C 341.014 480.042,342.226 479.293,344.421 480.209 C 354.428 484.386,356.745 484.895,360.956 483.838 C 373.388 480.717,375.730 462.031,365.156 450.327 C 360.098 444.729,358.868 441.656,357.040 430.054 C 342.803 339.716,301.783 258.931,247.669 214.655 L 241.347 209.483 248.417 193.103 C 252.305 184.095,256.032 176.147,256.699 175.441 C 257.366 174.735,266.246 188.438,276.432 205.891 C 303.266 251.869,304.186 252.745,318.954 246.392 C 335.217 239.396,335.592 234.270,321.974 205.172 C 318.202 197.112,310.500 178.491,304.860 163.793 C 284.174 109.885,273.335 92.253,253.464 80.182 C 247.870 76.784,242.810 72.482,242.220 70.622 C 241.400 68.039,239.445 67.178,233.936 66.973 C 222.474 66.547,219.614 67.098,209.960 71.593 C 198.218 77.060,192.649 76.873,181.034 70.622 C 175.819 67.815,170.388 65.648,168.966 65.807 C 167.543 65.967,163.508 66.399,159.999 66.768 M178.701 78.653 C 193.080 86.695,204.277 86.462,216.235 77.875 C 228.367 69.162,229.310 69.877,229.310 87.777 L 229.310 103.141 221.983 106.707 C 217.953 108.668,210.393 113.781,205.185 118.068 C 193.698 127.521,195.233 127.536,187.169 117.889 C 183.460 113.452,177.182 108.447,173.011 106.602 L 165.517 103.287 165.517 87.850 C 165.517 79.360,165.973 72.414,166.530 72.414 C 167.087 72.414,172.564 75.222,178.701 78.653 M153.422 92.672 C 153.392 103.881,152.889 104.933,145.690 108.846 C 133.470 115.488,125.190 136.218,129.256 149.989 C 132.572 161.218,131.361 164.780,113.894 195.174 C 94.525 228.877,91.993 230.720,80.641 219.367 L 75.570 214.297 82.579 200.357 C 86.434 192.690,94.328 174.926,100.122 160.881 C 118.796 115.610,129.123 98.257,143.652 87.732 C 152.934 81.008,153.452 81.271,153.422 92.672 M255.259 91.166 C 268.555 103.063,278.710 121.181,295.481 162.931 C 303.480 182.845,312.169 202.942,314.790 207.591 L 319.554 216.043 315.871 219.025 C 302.388 229.944,298.822 227.199,278.016 189.882 L 263.242 163.384 265.409 152.479 C 268.955 134.640,262.855 116.920,250.539 109.283 C 242.879 104.533,241.379 101.689,241.379 91.912 C 241.379 80.355,243.075 80.264,255.259 91.166 M177.805 121.590 C 181.244 123.812,185.721 128.321,187.754 131.609 C 193.379 140.712,195.681 140.665,205.718 131.247 C 237.656 101.276,265.123 118.440,251.108 159.612 C 243.141 183.018,236.695 193.641,232.320 190.577 C 226.734 186.664,221.064 187.350,216.273 192.519 L 212.021 197.107 208.054 193.381 C 203.319 188.932,195.112 188.528,187.669 192.377 C 182.680 194.957,182.197 194.901,178.369 191.305 C 175.436 188.550,173.007 187.771,169.493 188.461 C 157.302 190.856,158.291 191.598,149.274 173.276 C 129.020 132.117,146.128 101.124,177.805 121.590 M112.350 163.101 C 108.284 165.948,107.181 174.769,110.624 176.897 C 113.306 178.555,118.966 171.359,118.966 166.290 C 118.966 160.939,116.875 159.931,112.350 163.101 M277.586 166.267 C 277.586 170.408,280.839 177.586,282.716 177.586 C 285.001 177.586,284.991 171.412,282.698 167.128 C 280.607 163.220,277.586 162.712,277.586 166.267 M173.821 204.012 C 174.288 207.952,173.725 208.621,169.942 208.621 C 165.101 208.621,163.830 204.101,167.608 200.323 C 170.670 197.261,173.200 198.763,173.821 204.012 M228.279 202.005 C 231.607 206.757,230.412 208.621,224.036 208.621 C 218.309 208.621,218.361 208.711,220.647 202.698 C 222.701 197.297,224.844 197.102,228.279 202.005 M202.019 202.853 C 206.998 207.359,205.802 208.621,196.552 208.621 C 187.192 208.621,185.782 206.873,191.763 202.684 C 196.604 199.293,198.113 199.318,202.019 202.853 M214.600 218.966 C 249.376 218.966,274.231 241.651,304.925 301.406 C 326.573 343.551,352.300 426.667,350.199 447.675 C 350.009 449.568,339.108 456.897,336.481 456.897 C 335.792 456.897,334.303 447.392,333.174 435.776 C 326.455 366.679,289.791 282.700,251.689 249.138 L 247.774 245.690 249.764 249.484 C 250.859 251.571,256.814 260.740,262.997 269.860 C 292.347 313.149,320.420 393.604,326.556 452.013 L 327.583 461.785 320.257 464.517 C 307.133 469.410,304.373 468.998,303.891 462.069 C 302.339 439.765,290.280 385.952,280.839 359.205 C 275.867 345.119,250.030 289.050,248.990 290.091 C 248.732 290.348,253.815 306.455,260.284 325.883 C 275.234 370.779,296.552 456.366,296.552 471.490 C 296.552 472.615,274.559 475.862,266.938 475.862 L 259.157 475.862 258.063 451.293 C 255.783 400.147,247.591 355.110,233.359 315.487 C 225.587 293.849,223.241 293.296,228.590 314.363 C 235.702 342.368,255.357 472.803,252.845 475.316 C 252.214 475.946,226.877 476.819,196.539 477.254 L 141.379 478.046 141.383 473.937 C 141.395 458.869,162.047 329.366,167.952 307.328 C 173.936 284.995,163.560 307.869,154.461 337.069 C 145.282 366.525,138.572 410.650,137.025 451.724 L 136.148 475.000 129.021 475.543 C 113.402 476.733,98.325 472.681,99.201 467.529 C 108.751 411.318,122.940 357.218,141.894 304.741 C 150.290 281.496,148.342 283.664,134.149 313.362 C 111.578 360.589,91.379 429.998,91.379 460.331 C 91.379 468.854,90.213 469.469,79.954 466.356 C 66.277 462.205,66.739 463.311,69.873 442.205 C 79.238 379.133,103.934 311.484,133.801 267.086 C 149.311 244.031,149.248 241.499,133.619 259.786 C 95.156 304.792,68.034 371.545,61.940 436.199 C 59.733 459.624,60.567 458.211,51.837 453.305 C 43.015 448.346,42.980 447.057,50.717 412.931 C 78.033 292.458,133.236 213.014,186.017 218.219 C 190.179 218.630,203.042 218.966,214.600 218.966 M75.836 229.741 C 75.787 233.748,72.798 236.723,69.927 235.622 C 67.668 234.755,67.470 233.829,68.952 231.060 C 70.993 227.246,75.878 226.310,75.836 229.741 M327.586 234.694 C 327.586 236.772,322.865 236.607,321.552 234.483 C 319.688 231.467,322.452 228.920,325.153 231.162 C 326.491 232.272,327.586 233.862,327.586 234.694 M310.532 236.557 C 312.803 240.800,311.119 242.708,307.245 240.280 C 303.273 237.791,302.153 230.646,305.964 232.108 C 307.478 232.689,309.534 234.691,310.532 236.557 M91.379 235.996 C 91.379 238.201,86.310 242.057,85.057 240.805 C 83.805 239.552,87.662 234.483,89.866 234.483 C 90.698 234.483,91.379 235.164,91.379 235.996 M196.010 320.690 C 193.668 336.240,192.767 473.569,195.032 469.909 C 196.539 467.472,197.336 446.274,197.917 393.185 C 198.711 320.549,198.312 305.405,196.010 320.690 M362.790 470.283 C 360.484 476.865,354.814 477.280,350.041 471.215 L 346.236 466.379 352.831 460.676 L 359.425 454.974 361.933 460.270 C 363.755 464.116,363.990 466.857,362.790 470.283 M43.268 460.462 C 49.361 464.801,49.533 467.183,44.119 472.269 C 36.364 479.555,27.765 471.479,32.413 461.276 C 34.833 455.966,36.752 455.822,43.268 460.462 M71.925 475.234 C 80.469 478.497,80.975 479.723,74.919 482.482 C 67.044 486.070,62.069 483.217,62.069 475.113 C 62.069 471.744,62.809 471.753,71.925 475.234 M332.759 475.533 C 332.759 481.773,328.392 485.432,323.153 483.581 C 316.294 481.158,316.134 478.072,322.720 475.197 C 330.524 471.789,332.759 471.864,332.759 475.533 M104.409 484.687 C 113.523 486.982,113.787 488.061,106.611 493.677 C 100.302 498.614,97.423 498.066,93.902 491.256 C 89.206 482.174,90.705 481.237,104.409 484.687 M303.448 485.823 C 303.448 494.634,293.916 499.382,287.636 493.698 C 282.975 489.480,283.784 486.507,290.086 484.688 C 299.267 482.037,303.448 482.392,303.448 485.823 M143.171 490.559 C 145.799 492.183,143.036 496.161,137.763 498.345 C 131.854 500.793,125.862 497.033,125.862 490.878 C 125.862 487.564,137.964 487.341,143.171 490.559 M175.862 490.813 C 175.862 494.670,170.861 500.000,167.241 500.000 C 164.284 500.000,157.425 493.724,158.838 492.311 C 163.190 487.960,175.862 486.844,175.862 490.813 M199.108 489.606 C 200.511 491.876,195.014 500.000,192.076 500.000 C 189.429 500.000,187.000 492.557,188.733 489.753 C 190.146 487.467,197.719 487.360,199.108 489.606 M235.148 491.355 C 237.331 493.538,231.566 500.000,227.436 500.000 C 224.661 500.000,217.241 491.793,217.241 488.724 C 217.241 486.975,233.098 489.305,235.148 491.355 M268.966 491.256 C 268.966 495.049,264.634 500.000,261.316 500.000 C 257.925 500.000,249.557 492.845,251.170 491.325 C 255.646 487.105,268.966 487.054,268.966 491.256 " stroke="none" fill="#472109" fill-rule="evenodd"></path></g></svg>