<svg id="svg" xmlns="http://www.w3.org/2000/svg" xmlns:xlink="http://www.w3.org/1999/xlink" width="400" height="545.1162790697674" viewBox="0, 0, 400,545.1162790697674"><g id="svgg"><path id="path0" d="M189.767 1.846 C 131.250 7.058,63.322 41.095,17.497 88.165 L 6.623 99.335 7.947 127.574 C 9.798 167.029,10.816 227.153,10.065 252.558 C 9.716 264.326,9.179 309.744,8.871 353.488 C 8.553 398.629,7.895 436.429,7.350 440.898 C 6.255 449.869,6.270 449.895,13.873 452.698 C 25.792 457.091,51.284 469.266,99.070 493.388 C 162.121 525.217,193.473 539.564,208.214 543.334 L 215.112 545.099 235.231 528.997 C 262.484 507.185,278.570 495.521,321.395 466.518 C 363.177 438.221,388.340 420.789,389.604 419.267 C 391.339 417.176,392.540 403.067,393.502 373.488 C 395.366 316.202,397.212 270.836,398.347 254.419 C 399.957 231.158,399.923 144.450,398.298 125.822 C 397.185 113.080,397.209 111.495,398.530 110.174 C 400.363 108.342,400.346 107.905,398.351 105.519 C 384.366 88.786,300.982 36.851,257.674 17.900 C 220.410 1.593,212.801 -0.206,189.767 1.846 M189.535 10.465 C 189.361 11.336,192.918 11.770,203.721 12.195 C 212.980 12.558,219.471 13.261,221.860 14.158 C 223.907 14.927,229.067 16.947,233.326 18.649 C 239.365 21.060,241.235 21.477,241.816 20.538 C 244.956 15.456,326.006 60.660,371.465 92.847 C 384.158 101.835,384.119 101.722,374.091 100.372 C 312.784 92.122,248.303 131.214,210.269 199.692 C 208.837 202.269,208.359 204.140,208.844 205.273 C 209.245 206.210,209.658 227.070,209.761 251.628 C 209.865 276.186,210.267 343.240,210.656 400.637 L 211.362 504.995 204.053 502.166 C 197.213 499.518,162.533 484.101,143.721 475.346 C 139.116 473.203,127.494 467.936,117.893 463.642 C 91.531 451.851,49.005 430.169,30.465 419.066 L 13.953 409.178 14.118 390.403 L 14.283 371.628 14.935 387.907 C 15.294 396.860,15.638 405.080,15.701 406.173 C 15.836 408.555,21.953 411.907,23.444 410.417 C 24.057 409.803,23.476 409.065,21.719 408.227 C 18.559 406.718,18.035 403.731,17.124 382.032 C 16.622 370.094,16.351 368.324,15.099 368.804 C 13.713 369.336,13.949 287.042,15.360 277.674 C 16.956 267.080,15.273 146.260,13.105 115.814 C 12.207 103.190,11.492 104.527,27.788 88.333 C 66.165 50.197,118.411 22.302,170.698 12.030 C 185.545 9.113,189.877 8.753,189.535 10.465 M8.877 90.168 C 8.583 90.645,8.767 91.297,9.287 91.619 C 10.397 92.305,12.093 91.434,12.093 90.178 C 12.093 89.046,9.575 89.038,8.877 90.168 M3.804 95.263 C 0.903 98.257,0.768 98.692,1.374 103.101 C 1.727 105.668,2.318 115.323,2.688 124.556 C 3.057 133.789,3.622 141.607,3.943 141.928 C 5.759 143.743,5.964 139.480,4.980 120.314 L 3.890 99.070 6.131 96.693 C 8.345 94.346,9.076 92.093,7.624 92.093 C 7.213 92.093,5.494 93.519,3.804 95.263 M20.129 102.791 C 19.154 105.330,20.416 106.484,27.685 109.703 C 31.644 111.457,44.512 117.693,56.279 123.562 C 68.047 129.432,83.744 137.145,91.163 140.703 C 98.581 144.261,108.558 149.045,113.333 151.333 C 118.109 153.621,132.528 161.150,145.377 168.065 C 194.884 194.710,204.778 199.096,205.409 194.677 C 205.666 192.877,203.749 191.653,189.595 184.584 C 180.736 180.160,162.814 170.844,149.767 163.884 C 136.721 156.923,111.186 144.050,93.023 135.278 C 74.860 126.506,57.698 118.077,54.884 116.549 C 36.082 106.335,21.052 100.385,20.129 102.791 M382.652 108.254 C 386.669 109.019,390.146 109.836,390.379 110.069 C 393.226 112.916,394.509 216.403,392.175 254.925 C 390.625 280.514,389.313 313.603,388.395 350.233 C 387.603 381.867,387.543 382.284,383.416 385.225 C 381.537 386.563,374.558 391.805,367.907 396.872 C 350.477 410.152,324.188 428.755,288.183 453.289 C 279.333 459.319,264.902 469.575,256.113 476.080 C 247.324 482.585,235.080 491.376,228.904 495.616 L 217.674 503.326 217.666 485.384 C 217.662 475.516,217.465 465.140,217.230 462.326 C 216.834 457.602,216.867 457.495,217.650 460.930 C 218.116 462.977,218.522 472.709,218.551 482.558 C 218.607 501.412,218.719 501.831,222.703 498.140 C 224.083 496.860,225.818 495.814,226.560 495.814 C 227.301 495.814,227.907 495.420,227.907 494.939 C 227.907 493.217,226.015 492.940,223.981 494.365 C 220.647 496.700,220.534 496.338,221.026 484.884 C 221.763 467.743,220.453 452.520,218.259 452.706 C 216.574 452.850,216.539 451.651,217.185 415.497 C 217.779 382.234,216.582 283.163,215.374 265.581 C 214.182 248.239,216.411 202.161,218.622 198.435 C 246.439 151.561,287.288 118.706,330.698 108.291 C 341.599 105.675,369.004 105.656,382.652 108.254 M340.233 107.550 C 335.607 108.952,339.878 109.768,351.860 109.773 C 374.925 109.782,386.977 112.346,386.977 117.242 C 386.977 118.759,387.371 120.000,387.852 120.000 C 389.323 120.000,389.594 118.766,388.963 114.942 L 388.360 111.279 380.924 109.578 C 373.605 107.902,343.948 106.425,340.233 107.550 M387.597 121.550 C 386.527 122.621,386.919 123.721,388.372 123.721 C 389.140 123.721,389.767 123.093,389.767 122.326 C 389.767 120.873,388.667 120.480,387.597 121.550 M35.655 130.658 C 31.492 132.469,30.960 133.990,30.277 146.047 C 29.501 159.724,29.229 161.022,27.298 160.281 C 24.823 159.331,25.998 175.820,28.803 181.395 C 31.261 186.284,39.450 194.419,41.911 194.419 C 42.846 194.419,43.874 194.844,44.195 195.364 C 44.852 196.427,46.512 195.710,46.512 194.364 C 46.512 193.882,45.919 193.488,45.195 193.488 C 39.003 193.488,28.692 178.474,28.951 169.834 C 29.053 166.413,29.140 166.567,29.851 171.424 C 32.105 186.827,50.400 199.079,71.126 199.066 C 84.927 199.058,91.990 180.773,86.066 160.394 C 82.037 146.534,46.859 125.784,35.655 130.658 M48.642 137.783 C 76.810 151.948,81.866 157.471,81.855 174.061 C 81.843 192.506,77.291 196.228,60.453 191.562 C 38.681 185.529,34.769 179.666,35.646 154.391 C 36.352 134.071,37.737 132.300,48.642 137.783 M71.113 140.546 C 70.154 142.097,72.310 143.876,73.593 142.593 C 74.667 141.519,73.995 139.535,72.558 139.535 C 72.107 139.535,71.456 139.990,71.113 140.546 M74.419 142.954 C 74.419 143.300,76.918 145.968,79.972 148.883 C 84.221 152.939,85.796 155.195,86.677 158.488 C 87.310 160.854,88.369 162.791,89.030 162.791 C 92.892 162.791,87.119 151.150,80.736 146.068 C 76.239 142.487,74.419 141.590,74.419 142.954 M107.317 167.366 C 100.653 171.430,95.868 181.806,95.741 192.471 C 95.700 195.845,95.456 198.081,95.198 197.442 C 94.415 195.502,93.023 196.140,93.023 198.439 C 93.023 203.048,95.928 209.489,97.788 209.003 C 98.748 208.752,99.767 208.926,100.054 209.390 C 100.340 209.853,99.922 210.233,99.125 210.233 C 98.327 210.233,97.674 210.860,97.674 211.628 C 97.674 212.395,98.302 213.023,99.070 213.023 C 99.837 213.023,100.465 212.572,100.465 212.021 C 100.465 211.469,102.208 212.509,104.337 214.332 C 120.487 228.156,141.021 204.420,133.790 180.285 C 130.379 168.903,116.170 161.968,107.317 167.366 M123.855 175.617 C 135.985 188.621,125.090 218.722,110.908 211.391 C 104.928 208.299,101.885 202.132,101.891 193.117 C 101.903 174.481,113.888 164.932,123.855 175.617 M114.419 173.046 C 114.419 173.571,115.386 174.367,116.569 174.817 C 120.771 176.415,124.454 181.815,125.152 187.403 C 125.508 190.252,126.140 192.793,126.556 193.051 C 127.618 193.707,128.613 191.840,127.855 190.614 C 127.510 190.056,127.155 187.762,127.066 185.517 C 126.807 179.001,114.419 166.786,114.419 173.046 M147.163 188.093 C 145.306 189.950,145.774 196.995,147.875 198.793 C 155.867 205.636,188.327 220.296,191.519 218.504 C 194.789 216.669,196.005 211.581,193.774 209.066 C 192.127 207.210,192.135 207.193,194.186 208.269 C 195.337 208.874,196.279 210.225,196.279 211.273 C 196.279 213.962,198.541 212.941,198.883 210.098 C 199.248 207.054,174.207 194.336,172.581 196.741 C 171.831 197.850,169.859 197.121,161.192 192.529 C 150.148 186.679,148.955 186.301,147.163 188.093 M358.605 196.130 C 346.000 202.855,336.632 209.145,336.940 210.676 C 337.287 212.399,311.766 227.551,272.715 248.807 L 259.384 256.063 259.847 268.109 C 260.101 274.734,260.449 280.238,260.620 280.340 C 260.791 280.443,261.637 281.065,262.500 281.724 C 263.840 282.747,265.317 282.234,272.609 278.211 C 277.306 275.620,280.684 274.060,280.116 274.744 C 279.159 275.897,259.483 286.512,258.303 286.512 C 258.014 286.512,257.858 284.226,257.958 281.432 C 258.060 278.567,257.734 276.333,257.209 276.309 C 256.691 276.285,256.159 279.356,256.007 283.249 C 255.840 287.542,256.100 290.233,256.682 290.233 C 257.973 290.233,274.895 281.222,279.702 277.975 C 281.841 276.531,284.248 275.349,285.051 275.349 C 285.854 275.349,286.512 274.721,286.512 273.953 C 286.512 273.186,286.009 272.558,285.395 272.558 C 283.186 272.558,286.272 270.748,306.047 260.445 C 335.786 244.949,365.442 228.387,366.730 226.554 C 367.106 226.019,367.420 221.513,367.428 216.541 C 367.440 208.891,367.656 207.583,368.837 208.036 C 369.743 208.383,370.233 208.012,370.233 206.977 C 370.233 205.942,369.743 205.570,368.837 205.918 C 367.996 206.241,367.442 205.923,367.442 205.116 C 367.442 204.310,367.996 203.992,368.837 204.315 C 369.997 204.760,370.233 203.733,370.233 198.239 C 370.233 190.067,370.036 190.031,358.605 196.130 M187.849 212.887 C 186.664 213.283,157.904 198.939,154.409 196.210 C 153.135 195.215,160.371 198.483,170.488 203.472 C 180.605 208.461,188.418 212.698,187.849 212.887 M368.372 198.297 L 368.372 201.136 366.673 199.038 L 364.974 196.940 356.945 201.108 C 352.529 203.400,349.129 204.932,349.389 204.511 C 350.203 203.193,366.843 194.514,367.627 194.998 C 368.037 195.251,368.372 196.736,368.372 198.297 M196.279 199.082 C 196.279 199.600,198.163 200.939,200.465 202.058 L 204.651 204.092 204.651 221.581 C 204.651 231.200,205.021 239.070,205.473 239.070 C 207.011 239.070,207.416 234.898,207.429 218.926 L 207.442 202.967 203.323 200.554 C 199.037 198.042,196.279 197.466,196.279 199.082 M143.707 205.263 C 142.801 206.169,142.339 207.714,142.586 209.006 C 142.817 210.217,142.644 211.431,142.201 211.705 C 141.758 211.979,141.395 211.760,141.395 211.218 C 141.395 210.676,140.767 210.233,140.000 210.233 C 139.025 210.233,138.605 211.214,138.605 213.488 C 138.605 215.279,138.532 217.058,138.442 217.442 C 138.353 217.826,140.782 219.186,143.839 220.465 C 146.897 221.744,150.513 223.523,151.876 224.419 C 155.049 226.504,157.612 226.576,156.837 224.559 C 156.435 223.510,157.846 223.963,161.622 226.096 C 190.952 242.660,190.852 242.636,191.769 233.488 C 192.521 225.995,193.206 226.701,177.370 218.651 C 170.296 215.055,161.044 210.224,156.811 207.917 C 148.472 203.371,146.083 202.887,143.707 205.263 M361.662 214.631 L 361.395 223.681 346.428 232.188 C 330.685 241.134,324.400 244.517,292.299 261.324 C 281.413 267.024,271.157 272.510,269.509 273.515 C 265.168 276.161,265.116 276.091,265.116 267.556 C 265.116 258.626,264.393 259.578,275.814 253.484 C 288.833 246.538,306.161 236.785,320.930 228.091 C 346.759 212.886,359.543 205.671,360.731 205.626 C 361.645 205.592,361.865 207.720,361.662 214.631 M170.282 221.768 C 178.741 226.130,185.716 230.306,185.882 231.108 C 186.345 233.339,185.817 233.115,169.846 224.295 C 161.617 219.750,153.523 215.343,151.860 214.503 C 150.198 213.663,148.837 212.324,148.837 211.528 C 148.837 210.310,149.323 210.381,151.910 211.980 C 153.600 213.024,161.867 217.429,170.282 221.768 M146.581 218.381 C 145.998 218.963,141.395 216.744,141.395 215.880 C 141.395 215.380,142.624 215.675,144.126 216.537 C 145.628 217.399,146.732 218.229,146.581 218.381 M204.341 240.620 C 203.271 241.691,203.664 242.791,205.116 242.791 C 205.884 242.791,206.512 242.163,206.512 241.395 C 206.512 239.943,205.411 239.550,204.341 240.620 M96.279 242.312 C 54.095 251.638,29.035 306.877,45.421 354.419 C 50.890 370.288,66.285 394.421,75.427 401.456 C 108.447 426.864,146.131 425.372,164.797 397.918 C 167.129 394.488,169.248 392.410,170.725 392.104 C 171.989 391.842,174.095 391.404,175.404 391.131 C 193.153 387.428,203.289 338.679,188.886 326.289 C 185.415 323.303,185.350 323.124,184.738 314.884 C 183.781 301.992,180.591 291.179,180.416 300.233 C 180.387 301.734,179.425 299.607,178.088 295.086 C 166.796 256.892,131.965 234.423,96.279 242.312 M124.982 248.911 C 156.445 256.996,174.860 285.820,174.878 327.012 C 174.906 389.176,150.552 420.902,110.233 411.224 C 84.678 405.090,66.133 387.376,53.683 357.209 C 29.997 299.816,72.406 235.399,124.982 248.911 M352.009 268.033 C 337.728 275.966,336.744 276.577,336.744 277.518 C 336.744 277.979,337.581 278.138,338.605 277.870 C 341.463 277.123,340.843 277.846,336.512 280.313 C 334.337 281.551,326.070 286.243,318.140 290.739 C 303.026 299.309,263.578 323.273,261.697 325.027 C 261.032 325.647,260.345 331.055,259.944 338.837 L 259.284 351.628 261.784 351.628 C 264.061 351.628,276.190 344.899,307.907 326.041 C 320.993 318.260,346.762 303.523,355.153 299.021 C 362.592 295.030,362.389 295.394,363.289 284.419 C 363.694 279.477,364.255 277.209,365.074 277.209 C 365.731 277.209,366.527 275.641,366.845 273.721 C 368.838 261.659,365.669 260.444,352.009 268.033 M364.972 268.414 C 364.508 269.621,364.253 269.586,363.179 268.167 C 362.002 266.610,361.537 266.721,355.382 270.017 C 351.782 271.945,348.837 273.320,348.837 273.072 C 348.837 272.824,351.846 270.960,355.523 268.929 C 362.309 265.182,366.295 264.965,364.972 268.414 M357.736 283.477 C 357.373 287.948,357.002 291.654,356.910 291.713 C 356.819 291.771,352.977 293.838,348.372 296.306 C 343.767 298.774,330.372 306.425,318.605 313.308 C 292.497 328.580,276.522 337.873,269.850 341.669 L 264.817 344.533 265.421 340.871 C 265.754 338.857,266.031 335.323,266.036 333.018 L 266.047 328.827 282.093 318.937 C 309.526 302.029,355.348 275.609,357.570 275.419 C 358.039 275.379,358.110 278.860,357.736 283.477 M103.104 283.597 C 77.991 291.860,67.490 323.619,78.147 359.070 C 79.762 364.442,81.313 369.806,81.592 370.991 C 81.872 372.175,84.244 374.743,86.864 376.696 C 115.938 398.376,147.790 374.519,147.887 330.991 C 147.962 297.342,127.415 275.597,103.104 283.597 M128.372 284.472 C 128.372 284.885,130.235 286.536,132.511 288.141 C 140.525 293.789,146.077 303.831,148.294 316.684 C 149.398 323.085,151.628 326.256,151.628 321.424 C 151.628 313.252,146.691 299.768,141.101 292.672 C 136.605 286.964,128.372 281.660,128.372 284.472 M123.036 291.251 C 149.323 304.413,146.909 362.673,119.535 375.756 C 110.116 380.257,96.687 377.849,90.181 370.492 C 88.594 368.697,88.469 368.356,89.767 369.362 C 92.333 371.349,96.442 373.015,97.116 372.341 C 98.313 371.144,97.555 370.094,94.799 369.133 C 90.338 367.578,83.721 348.717,83.721 337.555 C 83.721 332.734,81.464 330.947,80.641 335.116 C 80.414 336.267,80.400 334.279,80.611 330.698 C 82.414 300.026,102.767 281.102,123.036 291.251 M179.535 295.271 C 179.535 296.081,180.198 296.744,181.008 296.744 C 182.650 296.744,182.364 294.742,180.640 294.167 C 180.032 293.964,179.535 294.461,179.535 295.271 M181.122 310.000 C 180.900 311.151,180.718 310.209,180.718 307.907 C 180.718 305.605,180.900 304.663,181.122 305.814 C 181.343 306.965,181.343 308.849,181.122 310.000 M182.070 320.216 C 181.862 321.888,181.689 320.744,181.684 317.674 C 181.678 314.605,181.848 313.237,182.060 314.635 C 182.272 316.032,182.277 318.544,182.070 320.216 M149.298 325.588 C 148.980 326.103,149.392 326.783,150.214 327.098 C 151.995 327.782,152.987 327.029,152.131 325.643 C 151.359 324.393,150.052 324.368,149.298 325.588 M186.371 332.868 C 193.870 341.154,187.624 373.493,176.759 382.635 C 171.811 386.799,171.190 385.148,174.609 376.917 C 177.025 371.098,180.478 351.679,181.077 340.536 C 181.722 328.552,182.044 328.086,186.371 332.868 M355.814 335.516 C 346.652 337.569,322.791 348.311,322.791 350.383 C 322.791 352.049,321.960 352.343,335.256 345.982 C 341.747 342.877,347.488 340.481,348.014 340.656 C 348.540 340.831,345.697 342.315,341.695 343.954 C 331.347 348.191,316.451 357.351,290.102 375.682 C 277.495 384.452,266.338 391.628,265.309 391.628 C 263.598 391.628,260.853 396.357,261.935 397.439 C 262.149 397.653,261.704 402.188,260.946 407.518 C 259.104 420.484,259.140 421.309,261.593 422.217 L 263.652 422.978 261.716 424.015 C 259.100 425.415,258.605 424.665,258.605 419.302 C 258.605 412.766,256.365 413.887,256.005 420.603 C 255.522 429.608,260.946 428.993,278.227 418.084 C 280.275 416.791,283.023 415.326,284.332 414.828 C 286.323 414.071,286.523 413.692,285.550 412.520 C 284.094 410.767,282.463 411.950,300.930 401.366 C 328.038 385.830,339.161 378.840,349.767 370.676 C 357.730 364.548,358.015 364.066,358.327 356.256 C 358.559 350.453,358.854 349.343,360.114 349.548 C 363.028 350.024,363.854 338.925,361.090 336.423 C 359.349 334.848,359.036 334.794,355.814 335.516 M360.232 344.673 C 360.479 345.965,360.318 347.245,359.875 347.519 C 359.432 347.793,359.070 346.736,359.070 345.171 C 359.070 341.718,359.622 341.481,360.232 344.673 M275.477 346.598 C 269.395 350.694,263.486 353.441,260.698 353.468 C 258.582 353.489,258.473 353.223,258.247 347.528 C 258.039 342.286,255.814 343.667,255.814 349.039 C 255.814 354.718,256.878 356.279,260.749 356.279 C 264.980 356.279,282.791 346.382,282.791 344.031 C 282.791 342.469,280.324 343.334,275.477 346.598 M352.986 353.256 C 352.279 362.051,350.940 363.532,333.023 375.327 C 319.897 383.968,267.097 414.384,266.412 413.699 C 265.528 412.815,267.786 398.793,268.995 397.662 C 269.676 397.025,277.977 391.154,287.442 384.615 C 296.907 378.077,307.164 370.981,310.235 368.847 C 322.680 360.199,335.605 352.946,348.837 347.185 C 353.412 345.193,353.611 345.485,352.986 353.256 M394.993 376.047 C 394.724 378.733,394.026 389.091,393.442 399.065 C 392.313 418.340,392.092 419.338,388.410 421.750 C 385.878 423.409,385.287 425.116,387.244 425.116 C 391.218 425.116,394.168 420.123,395.214 411.628 C 396.830 398.503,397.693 371.163,396.491 371.163 C 395.937 371.163,395.262 373.360,394.993 376.047 M386.015 402.909 C 385.441 409.751,384.690 415.603,384.346 415.913 C 383.372 416.793,351.066 438.935,320.465 459.696 C 286.937 482.443,279.425 487.661,264.857 498.324 C 256.273 504.607,242.895 514.880,235.129 521.153 C 227.363 527.426,220.259 533.105,219.342 533.774 C 217.761 534.926,217.676 534.346,217.711 522.611 L 217.747 510.233 236.548 496.999 C 246.888 489.720,261.837 479.023,269.767 473.227 C 277.698 467.432,292.767 456.886,303.256 449.793 C 325.275 434.902,358.513 411.227,375.068 398.643 C 381.362 393.858,386.634 390.061,386.785 390.206 C 386.935 390.350,386.588 396.067,386.015 402.909 M377.674 397.818 C 374.349 400.642,368.593 405.086,364.884 407.693 C 358.298 412.323,356.865 413.953,359.383 413.953 C 360.751 413.953,368.825 408.412,376.652 402.100 C 380.157 399.274,381.972 398.344,382.652 399.025 C 384.432 400.804,385.116 400.041,385.116 396.279 C 385.116 391.591,384.972 391.621,377.674 397.818 M382.326 402.326 C 382.326 403.093,382.953 403.721,383.721 403.721 C 384.488 403.721,385.116 403.093,385.116 402.326 C 385.116 401.558,384.488 400.930,383.721 400.930 C 382.953 400.930,382.326 401.558,382.326 402.326 M275.814 416.381 C 273.648 418.056,266.181 421.972,267.200 420.899 C 268.014 420.042,276.536 414.985,277.209 414.960 C 277.465 414.951,276.837 415.590,275.814 416.381 M20.930 420.130 C 52.724 439.390,123.912 474.084,189.752 502.408 C 192.350 503.525,194.278 504.637,194.037 504.878 C 193.795 505.119,189.160 503.336,183.736 500.915 C 174.431 496.762,172.007 496.207,173.464 498.564 C 174.264 499.860,184.370 504.454,193.953 507.879 C 208.706 513.151,208.935 513.317,208.421 518.372 C 208.326 519.299,208.881 520.000,209.709 520.000 C 210.805 520.000,211.163 520.998,211.163 524.056 C 211.163 526.287,211.429 530.055,211.754 532.428 C 212.545 538.195,207.351 537.688,189.302 530.236 C 184.554 528.276,115.674 494.388,81.395 477.148 C 63.488 468.142,46.176 459.650,42.923 458.277 C 38.058 456.223,37.203 455.548,38.099 454.467 C 39.205 453.134,36.453 451.570,22.250 445.460 C 18.410 443.808,17.738 443.123,17.494 440.606 C 17.112 436.673,15.425 436.869,15.043 440.889 C 14.828 443.147,15.227 444.462,16.384 445.308 C 18.156 446.604,17.784 446.852,15.425 445.947 C 13.857 445.345,13.099 416.741,14.651 416.747 C 15.035 416.748,17.860 418.270,20.930 420.130 M383.437 425.005 C 382.477 425.598,382.508 425.970,383.594 426.871 C 384.596 427.703,385.121 427.721,385.604 426.941 C 386.495 425.499,384.917 424.089,383.437 425.005 " stroke="none" fill="#f5f5db" fill-rule="evenodd"></path></g></svg>