<svg id="svg" xmlns="http://www.w3.org/2000/svg" xmlns:xlink="http://www.w3.org/1999/xlink" width="400" height="445.97701149425285" viewBox="0, 0, 400,445.97701149425285"><g id="svgg"><path id="path0" d="M30.211 40.230 C 24.820 105.779,9.265 378.943,9.230 408.676 L 9.195 438.041 54.023 434.518 C 78.678 432.580,140.230 429.710,190.805 428.141 L 282.759 425.287 288.293 383.908 C 291.336 361.149,295.266 305.075,297.025 259.298 C 299.933 183.617,301.038 175.558,309.213 170.453 C 314.511 167.145,316.950 166.866,315.152 169.776 C 309.196 179.414,321.956 174.444,355.583 154.028 C 383.610 137.013,390.166 130.779,392.544 118.887 C 398.794 87.640,380.465 85.634,337.841 112.900 C 296.282 139.485,298.152 140.637,301.668 90.614 L 304.747 46.811 287.452 25.704 L 270.157 4.598 151.649 4.598 L 33.141 4.598 30.211 40.230 M255.241 28.736 C 253.569 39.483,251.234 51.722,250.052 55.935 C 246.949 66.989,253.656 69.278,273.276 63.860 C 295.894 57.615,295.902 57.630,292.116 103.072 L 288.858 142.187 199.720 195.863 C 150.695 225.385,111.597 251.181,112.838 253.187 C 114.078 255.194,112.670 258.333,109.709 260.163 C 106.347 262.241,105.558 261.497,107.607 258.182 C 115.606 245.239,100.919 255.427,70.384 284.001 C 29.845 321.936,25.194 348.591,60.086 343.011 C 77.588 340.213,77.606 340.227,79.032 357.461 L 80.460 374.713 101.240 373.289 C 118.567 372.103,123.836 373.798,132.943 383.493 C 138.950 389.887,145.736 393.963,148.022 392.550 C 158.747 385.921,127.974 367.816,105.982 367.816 C 83.771 367.816,83.704 367.769,84.380 352.874 C 85.043 338.252,84.637 337.931,65.511 337.931 C 30.400 337.931,39.283 323.116,88.836 299.028 C 112.045 287.746,166.207 257.229,209.195 231.212 L 287.356 183.908 288.802 235.632 C 290.088 281.663,284.628 363.576,277.675 402.575 L 275.166 416.644 157.123 422.257 C 92.200 425.345,33.261 429.107,26.149 430.618 L 13.218 433.366 15.933 394.844 C 17.427 373.657,21.723 299.425,25.479 229.885 C 29.235 160.345,33.620 82.241,35.222 56.322 L 38.136 9.195 148.208 9.195 L 258.280 9.195 255.241 28.736 M282.103 32.554 C 297.215 53.909,297.530 52.943,274.057 57.193 L 256.161 60.433 259.064 42.860 C 260.661 33.195,261.991 22.701,262.018 19.540 C 262.108 9.323,268.674 13.577,282.103 32.554 M75.862 60.065 C 64.100 62.806,65.398 63.360,84.674 63.824 C 97.107 64.123,105.840 62.929,104.081 61.170 C 99.570 56.658,91.785 56.353,75.862 60.065 M87.356 83.043 C 71.558 84.801,90.104 86.139,136.782 86.607 C 178.717 87.028,211.494 85.535,211.494 83.205 C 211.494 78.661,127.711 78.552,87.356 83.043 M110.345 96.552 C 71.494 99.076,75.208 99.487,143.950 100.269 C 194.518 100.845,220.250 99.560,218.391 96.552 C 215.426 91.755,184.184 91.755,110.345 96.552 M386.207 107.733 C 386.207 121.196,332.180 151.726,325.897 141.813 C 319.516 131.745,320.741 130.135,345.977 115.423 C 372.256 100.104,386.207 97.437,386.207 107.733 M147.126 115.479 C 68.767 119.924,50.247 122.642,92.388 123.512 C 139.228 124.479,220.690 118.595,220.690 114.244 C 220.690 112.099,219.138 110.649,217.241 111.021 C 215.345 111.393,183.793 113.399,147.126 115.479 M378.167 132.286 C 365.873 141.732,318.081 168.521,322.850 163.292 C 327.066 158.670,383.140 124.110,386.207 124.243 C 387.471 124.298,383.853 127.917,378.167 132.286 M320.926 148.132 C 321.777 152.520,314.688 159.602,302.535 166.504 C 291.658 172.682,246.033 200.035,201.145 227.290 C 145.380 261.149,117.019 275.879,111.599 273.799 C 104.951 271.247,106.067 269.234,118.494 261.366 C 126.650 256.202,131.971 249.791,130.319 247.117 C 128.516 244.201,129.521 243.621,132.831 245.667 C 140.280 250.270,203.481 212.529,199.395 205.918 C 197.506 202.860,198.404 202.191,201.681 204.216 C 207.734 207.957,303.053 152.891,306.808 143.484 C 309.864 135.826,319.130 138.876,320.926 148.132 M160.920 174.855 C 141.954 176.644,110.402 178.379,90.805 178.709 C 68.564 179.084,55.172 181.190,55.172 184.312 C 55.172 187.474,61.515 188.389,72.414 186.799 C 81.897 185.416,119.160 182.932,155.222 181.278 C 191.284 179.624,221.923 176.436,223.310 174.193 C 226.056 169.750,213.631 169.882,160.920 174.855 M91.954 193.103 L 52.874 195.988 101.149 196.390 C 127.701 196.611,160.805 195.219,174.713 193.296 L 200.000 189.800 165.517 190.010 C 146.552 190.125,113.448 191.517,91.954 193.103 M99.272 207.479 C 76.746 209.645,57.090 212.715,55.594 214.300 C 51.751 218.373,151.678 211.286,163.044 206.679 C 175.112 201.788,155.966 202.029,99.272 207.479 M89.655 223.742 L 52.874 229.407 88.587 228.033 C 119.878 226.828,134.579 223.630,128.352 219.383 C 127.299 218.664,109.885 220.626,89.655 223.742 M102.605 277.621 C 104.183 281.733,97.233 288.230,82.935 296.012 C 52.569 312.539,50.569 311.139,74.121 289.844 C 96.528 269.585,99.098 268.482,102.605 277.621 " stroke="none" fill="#ad4f21" fill-rule="evenodd"></path></g></svg>