<svg id="svg" version="1.1" xmlns="http://www.w3.org/2000/svg" xmlns:xlink="http://www.w3.org/1999/xlink" width="400" height="418.6666666666667" viewBox="0, 0, 400,418.6666666666667"><g id="svgg"><path id="path0" d="M112.000 3.810 C 80.900 13.600,62.337 18.667,57.566 18.667 C 33.971 18.667,19.295 38.077,15.795 73.910 C 14.393 88.259,11.241 106.000,8.790 113.333 C -4.848 154.145,19.693 387.789,39.109 401.987 C 65.397 421.209,215.347 415.708,282.074 393.074 C 297.148 387.961,310.596 384.465,311.957 385.307 C 321.149 390.988,347.249 369.868,363.002 344.000 C 368.808 334.467,377.072 321.867,381.367 316.000 C 400.603 289.726,403.777 126.464,385.798 88.113 C 366.245 46.404,311.259 31.814,248.216 51.607 C 235.869 55.483,225.530 58.358,225.242 57.994 C 224.953 57.631,221.725 52.533,218.068 46.667 C 196.077 11.393,148.708 -7.746,112.000 3.810 M166.667 22.279 C 184.419 30.570,195.059 39.910,208.377 58.895 C 221.362 77.407,218.153 76.845,250.391 66.249 C 333.044 39.083,393.999 78.547,378.835 149.408 C 375.065 167.021,361.960 193.612,357.540 192.615 C 350.152 190.948,329.053 185.862,325.711 184.942 C 322.838 184.152,323.086 182.435,326.908 176.640 C 345.586 148.325,349.572 130.577,339.703 119.672 C 320.937 98.936,272.026 101.180,233.659 124.538 C 218.415 133.819,217.782 133.961,210.581 129.707 C 206.509 127.301,200.944 125.333,198.216 125.333 C 195.487 125.333,188.776 122.933,183.304 120.000 C 177.831 117.067,168.717 114.667,163.052 114.667 L 152.750 114.667 146.855 96.708 C 140.188 76.400,126.557 52.564,115.947 42.660 C 112.023 38.997,106.481 32.747,103.632 28.771 L 98.452 21.542 107.226 19.011 C 124.523 14.023,152.253 15.547,166.667 22.279 M80.785 38.266 C 94.004 43.789,115.367 69.165,127.619 93.898 C 145.214 129.417,142.748 133.669,118.667 109.333 C 93.663 84.066,87.836 89.490,107.593 119.641 C 123.385 143.743,123.245 143.440,120.715 147.961 C 118.872 151.255,115.895 150.011,103.904 140.933 C 75.857 119.701,47.818 113.209,45.795 127.480 C 44.547 136.286,49.048 140.460,72.518 152.260 C 97.947 165.046,98.282 166.457,75.333 164.127 C 25.693 159.088,18.110 150.347,28.957 110.667 C 30.561 104.800,31.901 91.142,31.936 80.315 C 32.051 44.904,53.168 26.727,80.785 38.266 M324.667 124.318 C 334.692 130.676,330.669 145.032,310.968 173.205 C 306.402 179.735,301.813 186.330,300.770 187.862 C 299.623 189.546,294.312 186.170,287.336 179.323 C 267.820 160.170,261.553 163.744,276.134 185.712 C 306.748 231.834,272.740 250.038,226.054 212.520 C 211.143 200.538,213.755 199.282,234.888 208.275 C 256.257 217.369,264.927 217.524,266.163 208.835 C 267.319 200.720,258.112 195.353,227.342 186.205 C 196.827 177.133,190.834 170.858,212.541 170.708 C 228.957 170.593,236.652 161.344,224.000 156.934 C 213.133 153.146,213.882 150.559,228.536 141.265 C 261.159 120.577,306.237 112.629,324.667 124.318 M171.813 133.031 C 172.616 134.331,166.987 143.171,159.304 152.675 C 151.620 162.179,143.958 172.215,142.276 174.977 C 136.666 184.195,131.810 175.599,135.560 163.085 C 140.545 146.446,166.702 124.761,171.813 133.031 M201.380 141.409 C 202.891 143.854,185.909 175.635,174.701 191.333 C 169.087 199.197,163.177 198.961,161.126 190.792 C 157.335 175.687,194.435 130.172,201.380 141.409 M79.590 181.261 C 108.422 183.336,113.741 184.481,122.400 190.482 C 127.838 194.250,134.577 197.333,137.376 197.333 C 140.176 197.333,144.989 200.497,148.072 204.364 C 154.955 212.995,172.938 214.264,181.288 206.707 C 186.294 202.177,187.102 202.568,205.452 218.401 C 233.423 242.535,241.744 246.135,272.667 247.485 C 290.126 248.247,298.667 249.647,298.667 251.747 C 298.667 258.785,249.475 282.936,216.216 292.226 C 199.382 296.928,91.465 300.714,65.768 297.503 L 50.782 295.631 43.880 273.815 C 33.399 240.688,24.126 203.070,22.270 186.151 L 20.605 170.969 33.636 174.930 C 40.803 177.109,61.482 179.957,79.590 181.261 M382.865 223.300 C 378.466 257.119,374.536 272.000,370.006 272.000 C 363.713 272.000,370.172 208.763,377.999 193.734 C 387.370 175.742,388.309 181.454,382.865 223.300 M331.849 197.506 C 339.943 200.534,347.285 204.177,348.165 205.601 C 354.789 216.318,353.626 316.247,346.631 337.441 C 344.133 345.012,321.197 370.470,319.250 367.834 C 318.100 366.278,321.869 278.963,323.683 265.112 C 325.015 254.947,324.309 253.442,313.050 242.445 C 303.483 233.100,301.267 229.289,302.321 224.000 C 303.815 216.514,314.312 192.000,316.025 192.000 C 316.634 192.000,323.755 194.478,331.849 197.506 M31.947 285.493 C 41.088 310.636,38.257 309.339,90.761 312.428 C 186.827 318.080,251.178 305.445,299.333 271.476 L 306.667 266.303 306.667 297.048 C 306.667 333.569,307.646 332.106,271.022 350.284 C 231.100 370.099,222.345 371.566,142.667 371.798 C 104.533 371.909,66.547 371.028,58.253 369.840 L 43.173 367.679 38.746 348.506 C 31.596 317.540,21.318 266.660,21.514 263.197 C 21.734 259.299,24.827 265.910,31.947 285.493 M139.528 270.936 C 136.456 278.941,148.937 282.904,154.835 275.797 C 157.726 272.313,157.668 271.179,154.495 269.171 C 148.524 265.393,141.329 266.241,139.528 270.936 M92.448 273.266 C 87.224 278.491,89.164 284.318,96.791 286.313 C 104.115 288.228,115.259 281.067,114.141 275.165 C 112.982 269.041,97.986 267.728,92.448 273.266 M372.199 301.858 C 367.332 308.807,366.513 303.761,371.113 295.165 C 372.992 291.656,374.658 290.640,375.313 292.605 C 375.910 294.397,374.509 298.561,372.199 301.858 M297.765 366.972 C 267.736 392.802,97.467 408.768,49.271 390.274 C 37.869 385.899,46.945 383.612,67.333 385.722 C 151.142 394.399,222.432 387.417,272.267 365.653 C 303.905 351.836,314.712 352.395,297.765 366.972 " stroke="none" fill="#472109" fill-rule="evenodd"></path></g></svg>