<svg id="svg" xmlns="http://www.w3.org/2000/svg" xmlns:xlink="http://www.w3.org/1999/xlink" width="400" height="400" viewBox="0, 0, 400,400"><g id="svgg"><path id="path0" d="M174.828 1.216 C 172.233 2.624,168.210 10.768,165.261 20.586 L 163.184 27.499 160.303 26.949 C 138.587 22.800,130.469 25.673,130.469 37.508 C 130.469 54.779,174.777 67.849,185.421 53.718 C 190.990 46.326,194.139 14.925,190.073 7.325 C 186.477 0.602,180.426 -1.822,174.828 1.216 M222.952 40.925 C 219.835 42.334,217.123 45.913,214.148 52.543 L 211.784 57.813 208.211 57.813 C 191.487 57.813,187.484 76.148,202.734 82.899 C 216.141 88.834,228.468 83.919,235.647 69.775 C 243.708 53.894,235.505 35.252,222.952 40.925 M279.724 53.363 C 274.375 55.068,268.750 63.168,268.750 69.164 C 268.750 70.790,268.445 70.858,261.523 70.782 C 253.277 70.692,250.464 71.970,248.143 76.860 C 243.363 86.934,250.980 91.665,273.120 92.375 C 282.968 92.691,287.203 88.071,290.251 73.683 C 293.646 57.661,289.762 50.163,279.724 53.363 M203.466 105.382 C 201.720 106.175,197.184 109.534,193.386 112.845 C 181.300 123.383,172.593 130.138,121.094 168.928 C 53.548 219.806,36.719 233.810,36.719 239.142 C 36.719 242.010,40.553 250.613,46.201 260.415 C 53.195 272.555,54.754 272.866,66.701 264.502 L 75.000 258.692 75.003 274.854 C 75.012 319.215,78.725 381.861,81.684 387.584 C 84.319 392.680,87.528 393.387,114.972 394.918 C 126.718 395.573,147.051 396.897,160.156 397.859 C 191.168 400.137,244.358 400.283,269.531 398.160 C 301.781 395.441,317.347 393.708,319.494 392.597 C 323.930 390.303,323.855 391.499,323.531 328.502 C 323.367 296.697,323.483 269.541,323.787 268.155 L 324.341 265.635 329.784 270.509 C 338.858 278.633,339.434 278.532,350.508 266.903 C 363.158 253.620,365.167 249.586,361.846 244.140 C 358.513 238.676,347.829 226.350,324.465 201.014 C 306.904 181.972,299.638 173.569,299.706 172.383 C 299.760 171.459,300.130 168.005,300.528 164.706 C 301.437 157.184,300.348 114.475,299.175 111.625 C 297.777 108.230,295.228 107.633,280.325 107.213 L 266.510 106.824 264.977 109.343 C 263.556 111.680,263.476 112.906,263.870 126.244 C 264.104 134.154,264.106 140.625,263.875 140.625 C 263.644 140.625,253.308 132.897,240.907 123.452 C 214.275 103.169,211.398 101.780,203.466 105.382 M220.313 118.275 C 266.121 154.966,312.751 200.770,352.144 247.772 C 353.216 249.051,341.776 263.281,339.676 263.281 C 338.077 263.281,324.978 253.634,317.578 247.006 C 303.891 234.747,286.918 217.188,288.756 217.188 C 290.755 217.188,292.664 215.170,293.831 211.823 C 295.201 207.891,294.050 207.966,289.872 212.081 C 285.646 216.244,286.048 216.251,280.619 211.913 L 278.815 210.472 284.414 203.237 C 287.494 199.258,289.801 195.790,289.541 195.531 C 288.537 194.527,285.183 196.954,280.798 201.856 C 276.514 206.645,276.137 206.889,274.832 205.707 C 272.763 203.835,273.057 202.702,277.344 196.020 C 283.845 185.884,281.924 184.163,274.158 193.164 C 267.949 200.360,265.808 200.607,264.472 194.284 C 264.097 192.510,263.643 192.131,262.130 192.329 C 260.721 192.514,258.736 191.201,254.151 187.054 C 250.794 184.017,242.949 177.355,236.719 172.250 C 230.488 167.145,222.608 160.572,219.206 157.643 C 204.252 144.769,201.344 144.532,189.765 155.240 C 183.607 160.936,178.430 164.595,175.551 165.287 C 174.332 165.580,172.585 166.963,171.597 168.416 C 169.814 171.041,163.644 176.312,160.306 178.064 C 158.550 178.985,158.517 178.938,159.026 176.223 C 159.937 171.367,156.653 173.500,154.252 179.325 C 152.333 183.980,147.580 188.498,148.734 184.570 C 151.686 174.521,149.049 175.314,143.537 186.133 L 139.060 194.922 139.544 188.867 C 140.181 180.890,139.730 181.168,134.684 191.866 C 129.762 202.300,127.980 204.948,124.384 207.170 C 120.958 209.288,120.912 209.144,122.738 202.018 C 124.235 196.174,124.264 193.750,122.836 193.750 C 121.985 193.750,119.128 199.669,116.354 207.183 C 113.285 215.493,107.838 222.508,103.262 224.042 C 102.911 224.159,103.323 220.908,104.178 216.816 C 106.867 203.938,104.112 205.922,99.554 220.146 C 97.055 227.945,96.147 229.752,93.075 233.036 C 89.955 236.371,85.156 239.817,85.156 238.722 C 85.156 238.513,85.859 235.326,86.719 231.641 C 89.558 219.463,87.858 220.663,82.439 234.662 C 79.014 243.510,75.872 248.039,71.644 250.221 C 67.673 252.272,67.638 252.861,72.356 238.281 C 77.127 223.535,76.728 225.000,75.977 225.001 C 74.626 225.005,70.976 232.269,67.928 241.020 C 63.599 253.451,58.226 263.361,56.744 261.649 C 54.980 259.612,46.875 242.667,46.875 241.017 C 46.875 236.805,61.552 224.582,130.859 171.072 C 162.227 146.855,192.583 123.066,198.318 118.209 C 204.369 113.083,209.123 109.602,209.646 109.915 C 210.141 110.211,214.941 113.973,220.313 118.275 M292.611 121.289 C 292.369 124.834,291.805 136.161,291.357 146.460 C 290.409 168.260,290.881 166.877,286.048 162.032 C 283.947 159.926,280.631 156.892,278.679 155.289 C 271.531 149.419,270.459 145.040,271.505 125.977 L 272.115 114.844 282.583 114.844 L 293.050 114.844 292.611 121.289 M260.938 208.186 C 288.223 233.436,311.836 255.371,313.411 256.930 L 316.274 259.766 315.235 267.188 C 312.509 286.663,312.109 295.862,312.109 339.126 L 312.109 382.550 293.750 384.700 C 283.652 385.882,267.936 387.445,258.826 388.172 L 242.261 389.494 242.029 346.895 C 241.788 302.628,241.722 301.762,238.498 300.362 C 237.293 299.839,208.059 298.829,178.516 298.290 C 162.634 298.001,163.779 294.150,164.479 345.508 L 165.041 386.719 156.473 386.719 C 149.366 386.719,135.339 385.483,134.552 384.787 C 134.434 384.683,136.128 380.629,138.317 375.777 C 141.423 368.895,142.071 366.813,141.266 366.303 C 139.658 365.283,139.778 365.141,133.607 375.419 L 127.762 385.156 124.232 385.139 C 118.409 385.110,94.741 383.034,93.833 382.473 C 91.682 381.144,89.304 367.258,90.202 361.269 C 90.735 357.719,93.667 353.610,107.319 337.280 C 110.080 333.978,110.308 333.410,109.283 332.386 C 108.258 331.361,107.087 332.394,99.179 341.296 C 89.717 351.948,89.095 352.230,89.074 345.873 C 89.058 340.757,90.047 338.799,99.222 325.781 C 108.563 312.528,109.345 311.103,107.805 310.152 C 106.291 309.216,106.397 309.115,97.559 319.965 C 88.513 331.072,88.610 331.014,87.889 325.769 C 87.008 319.366,88.589 314.877,95.084 305.332 C 100.334 297.617,101.542 294.531,99.314 294.531 C 98.909 294.531,96.174 297.309,93.235 300.703 C 87.736 307.054,86.754 307.346,86.731 302.637 C 86.714 299.169,88.315 295.064,92.810 287.058 C 99.473 275.190,99.142 273.510,91.848 282.174 C 86.123 288.973,86.260 289.200,85.076 270.897 C 84.134 256.330,84.369 252.955,86.490 250.585 C 87.260 249.724,109.501 231.926,135.914 211.034 C 162.326 190.141,188.693 169.281,194.507 164.679 L 205.078 156.311 208.203 159.294 C 209.922 160.934,233.652 182.936,260.938 208.186 M248.625 233.549 C 237.672 234.387,237.544 234.757,237.519 265.777 C 237.496 293.189,236.834 291.560,248.786 293.537 C 264.896 296.202,285.165 293.234,286.569 288.004 C 287.219 285.587,286.488 255.062,285.514 243.907 C 284.561 233.001,278.393 231.269,248.625 233.549 M125.391 237.548 C 115.247 238.473,114.161 238.767,113.232 240.842 C 111.814 244.008,113.453 291.531,115.065 293.992 C 119.033 300.047,158.922 303.348,161.033 297.796 C 162.823 293.088,161.520 243.296,159.552 241.203 C 155.970 237.393,142.683 235.971,125.391 237.548 M256.755 240.625 L 258.594 240.625 258.594 252.037 C 258.594 261.620,258.414 263.380,257.475 263.019 C 256.859 262.783,254.193 262.345,251.549 262.046 C 245.894 261.406,246.328 262.339,245.810 249.698 L 245.398 239.630 250.157 240.128 C 252.775 240.401,255.744 240.625,256.755 240.625 M275.300 241.634 C 276.741 242.688,278.650 257.592,277.489 258.726 C 277.194 259.014,274.979 259.759,272.567 260.382 L 268.181 261.515 267.684 255.640 C 266.625 243.111,266.846 241.548,269.727 241.190 C 271.123 241.017,272.638 240.819,273.093 240.750 C 273.548 240.681,274.541 241.079,275.300 241.634 M148.665 245.003 L 153.125 245.528 153.125 253.571 C 153.125 260.557,152.945 261.666,151.758 262.013 C 150.562 262.363,141.533 264.063,140.872 264.063 C 140.736 264.063,140.625 259.454,140.625 253.822 L 140.625 243.581 142.415 244.030 C 143.400 244.277,146.213 244.715,148.665 245.003 M132.645 261.884 C 132.093 262.260,129.396 262.444,126.653 262.295 C 119.116 261.883,117.612 259.288,119.584 250.095 L 120.418 246.207 125.639 245.713 C 128.510 245.441,131.387 245.146,132.031 245.058 C 133.632 244.839,134.215 260.817,132.645 261.884 M277.780 276.363 C 277.473 280.551,277.161 284.026,277.087 284.087 C 277.013 284.148,275.107 284.447,272.852 284.751 L 268.750 285.303 268.750 277.854 L 268.750 270.404 272.070 269.661 C 278.736 268.168,278.410 267.785,277.780 276.363 M131.055 270.767 C 132.773 271.115,132.813 271.361,132.813 281.636 L 132.813 292.148 130.273 291.705 C 121.632 290.196,121.305 289.740,120.608 278.257 L 120.083 269.620 124.690 270.015 C 127.224 270.233,130.088 270.571,131.055 270.767 M254.188 270.809 L 257.813 271.306 257.813 278.231 L 257.813 285.156 252.344 285.156 L 246.875 285.156 246.875 277.734 C 246.875 269.335,246.440 269.747,254.188 270.809 M153.414 272.852 C 153.673 273.818,153.890 278.564,153.896 283.398 L 153.906 292.188 147.773 292.188 L 141.640 292.188 141.133 285.036 C 140.853 281.103,140.625 276.552,140.625 274.923 L 140.625 271.961 144.336 271.668 C 152.916 270.991,152.915 270.991,153.414 272.852 M231.696 307.216 C 233.556 309.077,234.120 377.295,232.351 386.458 C 231.888 388.856,231.734 388.940,227.349 389.192 L 222.825 389.453 222.318 376.563 C 221.388 352.974,220.302 331.690,219.811 327.436 C 218.814 318.800,214.996 317.266,194.371 317.213 L 184.446 317.188 184.039 319.727 C 181.625 334.787,181.620 371.897,184.031 385.859 L 184.490 388.516 179.613 388.006 C 176.931 387.726,174.632 387.393,174.505 387.266 C 174.038 386.799,172.437 308.553,172.885 308.105 C 174.351 306.638,230.273 305.794,231.696 307.216 M213.281 356.250 L 213.281 388.281 201.953 388.281 L 190.625 388.281 190.625 356.250 L 190.625 324.219 201.953 324.219 L 213.281 324.219 213.281 356.250 M114.962 346.624 C 107.264 352.649,92.694 375.856,96.665 375.768 C 98.151 375.735,118.723 345.806,117.855 344.939 C 117.677 344.760,116.375 345.518,114.962 346.624 M125.212 358.949 C 117.838 364.493,110.249 375.869,110.175 381.491 C 110.145 383.754,111.036 382.744,121.099 369.102 C 131.648 354.800,132.050 353.809,125.212 358.949 M261.375 371.558 C 255.761 380.069,254.611 382.286,255.516 382.857 C 257.413 384.057,257.991 383.424,264.772 372.722 C 271.064 362.793,271.692 360.936,268.750 360.965 C 268.535 360.967,265.216 365.734,261.375 371.558 M277.209 369.762 C 273.251 372.777,271.683 375.603,272.022 379.114 C 272.262 381.608,272.321 381.560,276.614 375.391 C 283.280 365.809,283.357 365.080,277.209 369.762 " stroke="none" fill="#f5f5db" fill-rule="evenodd"></path></g></svg>