<svg id="svg" xmlns="http://www.w3.org/2000/svg" xmlns:xlink="http://www.w3.org/1999/xlink" width="400" height="374.5762711864407" viewBox="0, 0, 400,374.5762711864407"><g id="svgg"><path id="path0" d="M196.301 1.742 C 167.315 3.947,150.428 10.493,134.657 25.637 L 124.383 35.503 110.358 29.439 C 59.795 7.578,8.210 33.753,2.273 84.282 C -1.870 119.543,51.445 155.563,90.990 144.221 C 98.568 142.048,98.298 139.268,98.368 220.054 C 98.477 344.927,98.992 347.200,130.370 361.366 C 159.254 374.406,221.298 377.039,255.085 366.660 C 291.809 355.378,313.574 343.955,329.410 327.651 L 335.593 321.285 335.593 222.800 L 335.593 124.314 345.656 126.772 C 382.634 135.806,409.431 98.726,396.416 56.534 C 381.741 8.966,353.074 -3.340,313.637 21.001 L 303.959 26.975 291.386 20.406 C 269.727 9.090,230.768 -1.224,215.254 0.251 C 213.856 0.384,205.327 1.055,196.301 1.742 M243.133 12.748 C 256.717 15.553,288.391 26.996,294.071 31.149 C 297.148 33.399,297.099 33.675,292.699 38.905 C 283.425 49.926,289.113 53.765,299.153 43.261 C 312.469 29.329,336.350 16.949,349.906 16.949 C 385.667 16.949,403.691 88.487,373.989 112.531 C 367.034 118.161,363.062 118.648,340.225 116.671 C 333.870 116.121,329.874 116.519,328.805 117.807 C 327.253 119.677,325.617 202.026,325.481 285.129 L 325.424 320.258 313.136 329.396 C 292.399 344.816,277.649 351.456,244.915 360.104 C 210.233 369.268,147.857 363.294,123.345 348.462 C 105.762 337.822,105.421 335.369,105.187 217.797 C 105.115 181.441,104.573 147.679,103.983 142.770 L 102.911 133.845 94.252 135.143 C 43.063 142.815,-0.737 110.864,13.015 75.882 C 33.248 24.409,77.503 15.462,133.871 51.450 C 140.672 55.793,143.741 56.907,145.312 55.603 C 149.044 52.505,147.628 50.141,138.954 44.991 L 130.517 39.983 136.021 34.303 C 157.451 12.191,199.484 3.732,243.133 12.748 M277.918 109.479 C 222.092 136.319,166.825 136.793,145.934 110.610 C 141.082 104.530,138.743 103.832,135.659 107.548 C 129.961 114.414,156.868 133.457,178.843 138.112 C 214.917 145.753,303.377 120.148,293.897 104.809 C 292.555 102.637,291.517 102.941,277.918 109.479 M117.654 135.823 C 116.199 138.178,135.862 157.534,143.644 161.406 C 152.059 165.593,150.410 162.997,135.021 147.828 C 120.153 133.173,119.550 132.756,117.654 135.823 M287.288 139.739 C 284.492 140.929,278.362 144.182,273.666 146.966 C 261.700 154.062,246.855 159.322,238.795 159.322 C 233.177 159.322,232.064 159.852,232.568 162.288 C 234.249 170.416,268.550 158.316,290.675 141.790 C 295.356 138.294,293.427 137.126,287.288 139.739 M112.749 155.871 C 112.194 156.770,114.844 159.466,118.639 161.861 C 122.434 164.257,126.900 167.526,128.564 169.125 C 133.875 174.232,142.608 179.991,143.574 179.025 C 144.885 177.714,129.909 163.446,121.944 158.418 C 114.470 153.700,114.147 153.610,112.749 155.871 M115.254 181.284 C 115.254 182.176,117.978 185.036,121.307 187.640 C 124.635 190.243,128.947 193.708,130.888 195.339 C 134.429 198.315,137.288 199.186,137.288 197.290 C 137.288 196.731,133.471 192.536,128.805 187.967 C 120.919 180.246,115.254 177.452,115.254 181.284 M114.757 202.822 C 113.314 205.158,131.258 223.544,133.142 221.660 C 133.666 221.136,129.985 216.293,124.963 210.897 C 119.935 205.496,115.348 201.867,114.757 202.822 M119.397 235.746 C 118.494 237.208,120.808 240.383,126.397 245.350 C 142.925 260.040,146.081 258.630,130.713 243.422 C 123.521 236.306,120.372 234.169,119.397 235.746 M120.391 258.051 C 120.460 260.843,135.337 272.008,136.902 270.443 C 138.263 269.082,124.848 255.932,122.100 255.932 C 121.131 255.932,120.363 256.886,120.391 258.051 M117.683 269.675 C 116.400 271.751,122.757 277.440,132.627 283.047 C 140.880 287.735,140.748 285.040,132.353 277.456 C 123.594 269.542,119.204 267.214,117.683 269.675 M117.015 288.559 C 117.089 290.916,131.989 302.474,133.284 301.179 C 134.466 299.998,121.241 286.441,118.907 286.441 C 117.830 286.441,116.979 287.394,117.015 288.559 M118.029 299.485 C 115.891 301.623,117.082 303.198,125.503 309.381 C 134.961 316.323,137.486 316.423,132.154 309.644 C 127.740 304.032,119.446 298.068,118.029 299.485 M115.254 320.956 C 115.254 323.640,128.366 333.216,129.918 331.664 C 131.211 330.371,119.683 318.644,117.119 318.644 C 116.093 318.644,115.254 319.684,115.254 320.956 " stroke="none" fill="#f5f5db" fill-rule="evenodd"></path></g></svg>