<svg id="svg" xmlns="http://www.w3.org/2000/svg" xmlns:xlink="http://www.w3.org/1999/xlink" width="400" height="323.6467236467236" viewBox="0, 0, 400,323.6467236467236"><g id="svgg"><path id="path0" d="M178.063 3.104 C 175.682 3.399,174.359 4.192,174.359 5.322 C 174.359 6.550,174.961 6.834,176.353 6.262 C 177.450 5.811,185.527 5.184,194.302 4.870 C 232.855 3.487,267.073 15.185,299.633 40.877 L 308.832 48.136 308.833 56.832 C 308.835 65.682,319.619 89.633,323.077 88.464 C 324.651 87.932,323.924 75.358,321.938 68.758 C 321.043 65.786,320.514 63.151,320.762 62.903 C 321.658 62.008,332.901 78.243,336.785 86.040 L 340.759 94.017 337.901 109.913 C 333.972 131.762,334.488 137.975,341.857 157.550 C 345.414 166.999,346.440 165.721,346.431 151.852 C 346.423 138.997,349.592 118.327,351.145 121.103 C 352.805 124.068,356.695 149.596,356.695 157.519 L 356.695 165.455 348.084 174.724 C 336.798 186.873,327.608 203.989,332.372 203.989 C 335.987 203.989,346.833 194.213,351.773 186.502 C 355.566 180.583,355.722 181.270,353.294 193.172 C 351.207 203.403,351.192 203.431,343.336 211.396 C 331.271 223.629,322.836 240.331,319.764 258.072 C 317.884 268.931,318.168 269.756,322.682 266.542 C 339.341 254.680,351.345 233.677,352.899 213.675 C 353.240 209.288,354.746 199.480,356.247 191.880 C 357.747 184.279,358.974 174.921,358.974 171.082 C 358.974 167.189,359.478 164.103,360.114 164.103 C 360.741 164.103,361.264 165.256,361.276 166.667 C 361.368 176.930,369.167 197.277,378.016 210.336 C 389.216 226.865,389.665 227.007,386.440 212.991 C 385.228 207.726,383.891 199.909,383.469 195.620 C 381.554 176.157,372.549 156.457,362.583 149.928 C 359.464 147.884,359.019 146.688,356.658 133.973 C 355.254 126.413,353.839 119.459,353.514 118.519 C 353.188 117.578,357.498 121.244,363.091 126.666 C 374.267 137.497,377.220 138.892,389.583 139.171 C 398.887 139.381,399.095 138.841,391.560 134.021 C 388.068 131.787,381.319 126.351,376.563 121.941 C 368.903 114.839,366.929 113.632,359.283 111.383 L 350.651 108.843 347.380 101.551 C 343.725 93.407,343.871 92.249,348.192 95.081 C 354.050 98.919,367.097 101.675,368.519 99.375 C 370.124 96.778,349.800 84.347,343.933 84.338 C 339.955 84.331,339.391 83.843,333.894 75.661 C 327.918 66.765,327.411 64.982,331.479 67.159 C 334.626 68.843,352.196 72.117,353.114 71.190 C 355.724 68.554,338.506 59.561,328.982 58.585 L 321.530 57.822 310.815 47.429 C 276.174 13.835,226.160 -2.865,178.063 3.104 M126.933 15.249 C 95.028 23.184,76.543 73.117,107.019 69.042 C 119.779 67.336,130.000 50.125,122.630 42.755 C 120.985 41.109,119.130 40.078,118.509 40.462 C 116.692 41.585,117.201 42.993,119.658 43.635 C 130.266 46.409,113.448 69.057,102.557 66.665 C 80.016 61.714,108.091 17.094,133.747 17.094 C 148.355 17.094,147.017 29.755,128.870 63.248 C 124.455 71.396,120.833 78.447,120.820 78.917 C 120.744 81.796,123.579 78.555,128.294 70.370 C 138.890 51.980,153.938 32.306,159.839 29.128 C 171.392 22.906,169.212 37.822,154.505 65.608 C 146.047 81.589,148.194 81.452,159.620 65.283 C 174.903 43.654,192.162 27.350,199.773 27.350 C 203.032 27.350,202.882 29.293,199.056 36.631 C 196.979 40.615,191.642 50.798,187.195 59.259 C 175.473 81.567,172.741 92.969,177.885 98.112 C 181.488 101.716,192.245 98.966,194.171 93.949 C 194.981 91.838,193.272 91.825,191.526 93.929 C 189.494 96.377,184.365 97.815,181.476 96.746 C 174.566 94.190,182.847 69.565,200.596 39.886 C 215.572 14.846,192.256 21.105,168.760 48.433 C 163.651 54.376,163.562 53.975,167.526 42.891 C 175.680 20.088,161.297 17.670,146.375 39.336 C 141.176 46.884,140.847 46.812,143.635 38.734 C 149.934 20.486,143.312 11.175,126.933 15.249 M317.317 63.407 C 320.219 70.658,322.372 80.912,320.991 80.912 C 318.702 80.912,311.140 63.990,311.126 58.835 C 311.106 51.546,313.182 53.078,317.317 63.407 M72.000 60.689 C 56.324 73.893,45.641 94.915,45.560 112.718 C 45.548 115.595,44.271 124.103,42.723 131.624 C 41.176 139.145,39.905 148.504,39.898 152.422 C 39.891 156.402,39.383 159.544,38.746 159.544 C 38.120 159.544,37.597 158.390,37.584 156.980 C 37.493 146.717,29.693 126.370,20.844 113.310 C 9.644 96.781,9.196 96.640,12.421 110.655 C 13.632 115.920,14.969 123.737,15.391 128.027 C 17.307 147.490,26.312 167.190,36.278 173.719 C 39.397 175.762,39.841 176.959,42.202 189.673 C 43.606 197.233,45.021 204.188,45.347 205.128 C 45.672 206.068,41.362 202.402,35.769 196.981 C 24.593 186.149,21.640 184.755,9.278 184.476 C -0.027 184.265,-0.234 184.806,7.300 189.626 C 10.792 191.860,17.541 197.296,22.297 201.706 C 29.957 208.808,31.931 210.014,39.577 212.264 L 48.209 214.803 51.481 222.096 C 55.439 230.917,55.374 231.016,48.037 227.331 C 41.877 224.237,31.526 222.356,30.428 224.131 C 28.755 226.838,48.870 239.299,54.927 239.309 C 58.905 239.316,59.470 239.804,64.966 247.986 C 70.943 256.882,71.449 258.665,67.381 256.488 C 64.234 254.804,46.664 251.530,45.746 252.457 C 43.136 255.092,60.354 264.086,69.878 265.062 L 77.330 265.825 88.046 276.217 C 109.648 297.167,137.091 311.861,166.382 318.161 C 185.218 322.212,224.501 322.412,224.501 318.456 C 224.501 317.252,223.602 317.067,220.798 317.692 C 213.214 319.384,182.191 318.601,171.061 316.437 C 143.827 311.142,122.539 301.164,99.228 282.769 L 90.028 275.510 90.027 266.815 C 90.026 257.964,79.241 234.014,75.783 235.183 C 74.209 235.715,74.936 248.289,76.923 254.889 C 77.817 257.861,78.346 260.495,78.098 260.743 C 77.203 261.639,65.959 245.403,62.075 237.607 L 58.101 229.630 60.959 213.734 C 64.888 191.885,64.372 185.672,57.004 166.097 C 53.423 156.584,52.428 157.930,52.372 172.365 C 52.345 179.416,51.821 187.493,51.209 190.313 C 50.596 193.134,49.774 197.423,49.381 199.844 C 47.946 208.704,42.165 181.696,42.165 166.128 L 42.165 158.192 50.777 148.923 C 62.063 136.774,71.252 119.658,66.488 119.658 C 62.874 119.658,52.027 129.434,47.087 137.145 C 43.295 143.064,43.138 142.376,45.566 130.475 C 47.654 120.244,47.669 120.216,55.524 112.251 C 67.576 100.031,76.001 83.361,79.113 65.575 C 81.163 53.859,80.582 53.460,72.000 60.689 M76.880 64.672 C 74.159 80.926,65.503 98.359,54.249 110.256 C 47.223 117.684,46.523 116.484,49.548 102.206 C 52.150 89.929,58.266 78.545,67.465 68.861 C 76.605 59.239,77.886 58.670,76.880 64.672 M341.145 64.689 L 344.729 66.635 341.385 67.032 C 337.879 67.448,326.763 62.950,327.670 61.483 C 328.387 60.322,336.780 62.319,341.145 64.689 M355.688 91.835 C 362.239 96.644,362.520 97.312,357.550 96.272 C 354.246 95.580,343.020 89.344,343.020 88.200 C 343.020 86.104,351.000 88.394,355.688 91.835 M345.061 105.128 C 347.542 115.378,347.696 119.500,345.943 128.744 C 344.962 133.914,344.160 140.907,344.160 144.285 C 344.160 152.270,342.438 152.100,340.008 143.875 C 337.446 135.205,337.472 124.956,340.092 111.396 C 342.472 99.076,343.333 97.989,345.061 105.128 M197.520 107.634 C 178.388 113.574,171.107 130.082,182.567 141.541 C 187.262 146.236,187.279 146.284,184.851 147.896 C 183.505 148.789,179.632 152.930,176.243 157.096 C 149.767 189.652,170.259 201.527,204.920 173.714 L 215.248 165.427 220.353 169.405 C 233.854 179.923,231.682 195.861,215.079 208.104 C 200.900 218.559,183.273 216.013,190.758 204.590 C 193.423 200.522,193.112 199.242,189.821 200.742 C 179.140 205.608,185.305 216.856,198.550 216.669 C 226.856 216.271,242.487 185.209,223.272 167.543 L 217.536 162.269 223.666 154.791 C 233.176 143.189,236.652 133.873,233.599 128.169 C 232.024 125.227,223.228 121.181,221.170 122.453 C 218.885 123.866,219.927 125.055,224.033 125.722 C 235.106 127.519,233.260 137.719,218.720 155.086 L 214.029 160.688 204.735 154.241 C 191.116 144.793,191.581 145.486,195.896 141.081 C 213.983 122.613,214.974 102.215,197.520 107.634 M205.657 110.940 C 211.772 115.411,193.777 144.994,187.112 141.427 C 174.316 134.579,180.487 117.275,197.946 111.047 C 203.395 109.104,203.150 109.107,205.657 110.940 M22.469 120.523 C 28.696 131.344,30.371 136.022,34.279 153.500 C 38.289 171.436,38.212 172.446,33.221 167.351 C 25.119 159.080,18.667 140.150,16.653 118.743 C 15.841 110.116,16.617 110.353,22.469 120.523 M365.242 116.474 C 367.749 117.723,373.134 121.911,377.208 125.780 C 381.282 129.648,385.897 133.673,387.464 134.723 L 390.313 136.633 386.003 136.692 C 378.985 136.790,373.769 133.784,363.818 123.910 C 351.865 112.049,352.257 110.004,365.242 116.474 M61.699 130.684 C 59.288 135.349,45.771 151.567,44.293 151.567 C 40.854 151.567,50.141 135.707,57.602 128.841 C 63.648 123.276,65.172 123.962,61.699 130.684 M200.884 155.066 C 212.542 163.177,212.294 162.422,205.413 168.837 C 185.674 187.240,163.106 192.035,167.445 176.905 C 169.113 171.089,172.761 166.074,186.927 150.123 C 189.420 147.316,190.083 147.550,200.884 155.066 M367.995 159.011 C 375.474 169.425,380.351 185.174,382.208 204.904 C 383.020 213.531,382.244 213.294,376.392 203.124 C 370.179 192.328,368.488 187.621,364.638 170.400 C 360.105 150.128,360.545 148.637,367.995 159.011 M353.892 176.508 C 351.554 183.135,347.396 189.157,341.259 194.806 C 330.820 204.413,334.483 194.439,346.488 180.570 C 354.833 170.929,356.107 170.229,353.892 176.508 M58.868 179.772 C 61.428 188.370,61.372 199.809,58.705 212.821 C 56.287 224.619,55.503 225.526,53.781 218.519 C 51.283 208.354,51.096 203.302,52.897 194.584 C 53.889 189.781,54.701 183.009,54.701 179.535 C 54.701 171.391,56.401 171.488,58.868 179.772 M21.404 188.651 C 25.343 190.284,44.444 207.957,44.444 209.968 C 44.444 213.631,30.402 206.176,21.652 197.867 C 17.578 193.998,12.963 189.974,11.396 188.924 L 8.547 187.014 12.857 186.954 C 15.228 186.921,19.074 187.685,21.404 188.651 M350.977 211.111 C 350.854 227.128,330.994 263.248,322.311 263.248 C 319.861 263.248,325.206 244.242,330.804 233.048 C 338.115 218.428,351.029 204.384,350.977 211.111 M231.624 215.944 C 225.056 220.681,231.359 231.967,243.672 237.517 C 248.021 239.477,248.458 240.026,247.854 242.775 C 247.352 245.061,247.935 246.741,250.138 249.360 L 253.096 252.875 248.201 254.192 C 220.019 261.774,213.982 289.716,238.957 296.976 C 264.748 304.474,311.439 284.788,304.417 269.376 C 302.669 265.540,300.504 265.895,301.378 269.875 C 302.048 272.922,300.408 276.124,295.620 281.124 C 280.560 296.848,236.948 300.052,228.672 286.042 C 220.215 271.725,240.086 255.271,265.831 255.271 C 273.285 255.271,272.520 252.676,264.783 251.716 C 255.724 250.592,251.902 247.982,251.869 242.898 C 251.856 240.854,252.307 240.387,253.754 240.942 C 273.830 248.646,308.832 240.472,308.832 228.081 C 308.832 213.263,271.786 215.712,254.468 231.675 L 249.368 236.376 243.053 233.070 C 237.832 230.336,232.441 224.795,232.500 222.222 C 232.564 219.486,235.150 218.325,240.648 218.564 C 246.142 218.803,246.508 218.669,244.857 217.018 C 242.155 214.316,234.717 213.712,231.624 215.944 M303.065 225.111 C 312.693 234.541,284.320 243.925,260.589 239.159 C 253.180 237.671,253.018 237.387,257.265 233.330 C 268.181 222.901,295.756 217.953,303.065 225.111 M50.707 231.739 L 56.399 235.328 52.670 235.687 C 49.341 236.008,37.607 229.368,37.607 227.163 C 37.607 225.724,45.587 228.512,50.707 231.739 M83.137 250.997 C 87.968 259.709,90.061 272.283,86.138 269.027 C 82.668 266.147,75.305 242.735,77.869 242.735 C 78.246 242.735,80.617 246.453,83.137 250.997 M66.427 258.938 C 70.755 261.218,70.960 261.507,68.514 261.886 C 65.636 262.331,56.307 259.227,55.215 257.460 C 53.956 255.423,61.690 256.442,66.427 258.938 " stroke="none" fill="#472109" fill-rule="evenodd"></path></g></svg>