<svg id="svg" xmlns="http://www.w3.org/2000/svg" xmlns:xlink="http://www.w3.org/1999/xlink" width="400" height="510.1796407185629" viewBox="0, 0, 400,510.1796407185629"><g id="svgg"><path id="path0" d="M178.443 28.334 C 84.019 42.868,23.949 153.112,53.868 256.957 C 61.879 284.764,86.167 334.552,108.611 369.175 C 117.049 382.192,127.983 399.168,132.909 406.900 C 157.240 445.089,193.169 488.619,200.359 488.622 C 211.157 488.626,276.106 413.759,303.214 370.060 C 350.610 293.655,367.947 196.855,346.003 131.138 C 321.477 57.683,254.547 16.619,178.443 28.334 M214.559 51.487 C 248.235 54.763,278.686 70.832,299.856 96.498 C 310.521 109.427,323.017 133.851,313.304 122.783 C 306.722 115.281,306.950 118.616,313.891 131.377 C 328.274 157.818,327.957 156.900,329.141 175.449 C 330.647 199.038,330.652 199.038,318.622 177.542 C 313.924 169.145,309.061 160.936,307.816 159.299 C 300.836 150.120,306.791 168.584,314.376 179.641 C 317.313 183.922,321.040 191.328,322.658 196.098 C 324.276 200.868,326.441 205.973,327.470 207.443 C 330.591 211.898,329.722 233.533,326.423 233.533 C 324.356 233.533,320.683 228.137,314.949 216.675 C 309.428 205.642,309.237 205.333,308.427 206.144 C 308.121 206.450,309.991 211.848,312.582 218.141 C 321.955 240.904,326.278 263.920,321.477 265.501 C 320.774 265.732,316.812 261.025,312.671 255.040 C 308.531 249.055,304.860 244.441,304.515 244.787 C 303.567 245.734,309.982 276.201,312.895 284.588 L 315.446 291.931 311.898 303.656 C 307.823 317.124,306.380 318.414,303.813 310.882 C 302.802 307.914,299.609 301.826,296.718 297.353 C 293.827 292.881,289.432 285.589,286.951 281.148 C 279.521 267.850,279.039 268.411,283.285 285.412 C 287.706 303.117,289.695 308.924,293.409 314.970 C 298.840 323.811,299.358 337.476,294.577 345.808 C 289.142 355.281,285.142 353.847,281.640 341.171 C 279.541 333.574,259.845 300.599,257.407 300.599 C 254.233 300.599,266.624 338.164,272.388 346.017 C 276.151 351.142,276.597 352.629,277.293 362.355 L 278.059 373.054 272.530 380.564 C 265.559 390.034,263.960 389.490,258.762 375.880 C 256.707 370.498,252.406 361.733,249.203 356.401 C 246.001 351.069,241.062 342.126,238.228 336.527 C 231.185 322.615,231.175 326.376,238.188 350.549 C 244.129 371.027,245.800 375.194,250.350 380.882 C 256.766 388.901,252.593 416.766,244.977 416.766 C 241.733 416.766,236.228 408.569,233.215 399.252 C 231.537 394.065,226.697 383.892,222.459 376.647 C 218.221 369.401,213.204 360.778,211.310 357.485 C 206.715 349.494,206.209 352.704,210.053 365.470 C 211.705 370.958,214.469 381.090,216.196 387.984 C 218.215 396.047,220.799 402.891,223.440 407.169 C 225.741 410.897,227.545 415.409,227.545 417.437 C 227.545 419.426,228.354 424.162,229.344 427.961 L 231.143 434.867 226.852 440.488 C 224.491 443.579,221.930 446.108,221.160 446.108 C 218.517 446.108,192.089 398.951,185.588 382.635 C 179.007 366.118,174.284 356.886,172.414 356.886 C 171.064 356.886,172.856 361.638,182.350 383.234 C 186.259 392.126,190.769 403.713,192.373 408.982 C 193.976 414.251,197.239 424.760,199.624 432.335 C 204.371 447.411,208.455 464.752,207.592 466.168 C 203.379 473.080,175.483 430.032,168.478 405.810 C 165.077 394.048,165.293 394.513,154.828 376.347 C 147.839 364.215,143.544 359.078,145.474 365.160 C 145.873 366.417,147.288 371.374,148.619 376.174 C 151.463 386.437,157.416 401.133,164.177 414.580 C 168.823 423.821,169.508 427.524,165.898 423.881 C 161.928 419.874,114.294 342.004,108.414 329.907 C 69.066 248.968,58.387 176.267,79.655 134.132 C 105.593 82.746,146.689 54.466,201.198 50.492 C 202.186 50.420,208.198 50.868,214.559 51.487 M186.961 122.787 C 148.421 133.535,124.547 189.804,145.510 220.484 C 167.836 253.158,200.883 261.211,235.925 242.515 C 253.429 233.175,263.917 213.518,266.678 184.873 C 270.153 148.818,223.607 112.566,186.961 122.787 M223.507 143.873 C 237.084 148.953,248.981 171.201,249.081 191.699 C 249.213 218.920,215.147 241.105,188.623 231.072 C 166.296 222.625,153.121 190.501,164.980 173.422 C 184.759 144.939,202.465 136.000,223.507 143.873 " stroke="none" fill="#472109" fill-rule="evenodd"></path></g></svg>