<svg id="svg" xmlns="http://www.w3.org/2000/svg" xmlns:xlink="http://www.w3.org/1999/xlink" width="400" height="400" viewBox="0, 0, 400,400"><g id="svgg"><path id="path0" d="M117.051 33.196 C 111.002 36.353,107.169 43.737,102.536 61.156 C 98.304 77.066,99.120 76.262,90.104 73.420 C 71.047 67.413,70.371 72.848,89.016 82.177 L 97.892 86.618 97.045 91.741 C 96.579 94.559,96.191 100.401,96.183 104.724 L 96.167 112.584 84.465 111.853 C 58.144 110.211,60.050 117.117,86.843 120.464 C 95.794 121.582,96.119 122.184,96.148 137.695 C 96.167 147.651,96.076 147.915,91.822 150.239 C 65.987 164.355,66.093 173.488,91.939 160.303 C 98.598 156.906,99.288 157.248,101.740 165.157 C 105.720 178.000,118.875 195.122,124.762 195.122 C 125.920 195.122,128.066 195.871,129.532 196.786 C 132.917 198.900,134.896 198.014,152.748 186.387 C 196.623 157.813,223.553 147.225,252.265 147.258 C 286.277 147.298,295.870 155.897,298.264 188.488 C 299.010 198.652,299.981 210.649,300.421 215.148 L 301.221 223.327 292.048 215.148 C 285.467 209.281,282.474 205.498,281.459 201.766 C 278.760 191.838,278.008 191.868,227.875 203.955 L 202.787 210.004 202.787 214.758 C 202.787 219.030,202.364 219.549,198.606 219.877 C 173.361 222.079,149.054 229.342,136.585 238.409 C 129.168 243.802,125.262 245.843,98.132 258.500 L 85.462 264.410 84.609 286.561 C 83.396 318.070,83.600 318.827,94.774 324.290 C 111.401 332.419,199.230 363.763,205.381 363.763 C 206.585 363.763,209.701 364.779,212.304 366.020 C 223.678 371.444,320.389 330.595,338.328 312.789 L 342.857 308.293 342.857 281.786 C 342.857 250.345,343.166 251.444,333.555 248.650 C 324.027 245.880,325.102 252.338,323.485 188.153 C 322.010 129.608,321.618 126.237,314.609 111.838 C 303.622 89.266,285.606 78.799,250.553 74.622 C 180.533 66.278,166.159 61.456,141.005 37.870 C 133.507 30.840,124.817 29.144,117.051 33.196 M131.451 43.433 C 157.507 57.311,157.239 172.499,131.119 186.006 C 119.102 192.221,103.849 157.999,113.492 146.458 C 119.190 139.637,118.971 138.676,111.715 138.676 L 106.620 138.676 106.200 131.387 L 105.780 124.098 111.234 123.226 C 122.321 121.453,122.211 116.874,111.027 114.632 C 105.306 113.486,105.232 113.394,105.597 107.954 C 106.555 93.695,107.423 90.328,109.858 91.426 C 113.929 93.263,125.436 93.782,125.436 92.129 C 125.436 90.252,114.558 82.230,112.013 82.230 C 108.560 82.230,108.591 76.010,112.112 62.170 C 117.221 42.091,121.374 38.067,131.451 43.433 M81.088 53.310 C 81.374 55.325,82.654 56.605,84.669 56.891 C 88.623 57.453,88.939 53.666,85.109 51.617 C 81.216 49.534,80.589 49.798,81.088 53.310 M189.636 75.192 C 195.011 76.682,208.008 78.879,218.520 80.075 C 229.031 81.271,243.589 82.921,250.871 83.741 C 288.208 87.945,305.649 101.116,311.587 129.593 C 315.468 148.207,318.074 241.295,314.771 243.336 C 310.132 246.203,309.178 240.224,306.831 193.601 C 305.378 164.743,304.896 163.087,295.234 153.750 C 269.011 128.413,217.076 134.084,161.672 168.337 C 150.723 175.106,151.208 175.478,154.593 162.903 C 160.307 141.677,162.436 100.134,158.834 80.139 C 158.005 75.540,156.969 69.428,156.530 66.556 L 155.732 61.335 167.798 66.910 C 174.435 69.976,184.262 73.703,189.636 75.192 M119.396 65.041 C 117.359 67.078,118.548 72.312,121.242 73.167 C 124.718 74.270,126.829 73.030,126.829 69.883 C 126.829 65.686,121.937 62.499,119.396 65.041 M49.710 80.372 C 47.915 82.166,48.822 83.690,53.310 86.426 C 58.814 89.782,66.899 90.176,66.899 87.088 C 66.899 82.698,52.866 77.215,49.710 80.372 M290.147 128.571 C 290.392 130.296,291.533 131.707,292.683 131.707 C 293.833 131.707,294.974 130.296,295.219 128.571 C 295.562 126.158,294.977 125.436,292.683 125.436 C 290.388 125.436,289.804 126.158,290.147 128.571 M74.216 131.695 C 69.391 133.792,68.254 137.131,71.891 138.527 C 77.737 140.770,85.601 135.769,82.363 131.867 C 80.136 129.184,79.998 129.181,74.216 131.695 M117.352 150.801 C 114.547 153.606,115.275 158.885,118.467 158.885 C 122.139 158.885,126.985 153.943,125.952 151.251 C 124.981 148.721,119.708 148.445,117.352 150.801 M79.335 183.865 C 74.942 188.258,75.066 192.334,79.592 192.334 C 82.992 192.334,87.805 187.521,87.805 184.121 C 87.805 179.595,83.728 179.472,79.335 183.865 M272.349 205.753 C 272.828 207.000,272.825 210.995,272.343 214.630 L 271.466 221.239 266.395 220.042 C 263.606 219.384,250.763 218.887,237.855 218.938 C 224.947 218.990,214.087 218.733,213.723 218.369 C 212.468 217.114,234.174 211.109,264.111 204.430 C 269.581 203.209,271.491 203.516,272.349 205.753 M292.170 227.875 C 296.038 236.110,296.562 240.705,293.022 235.346 C 291.686 233.323,288.868 229.945,286.760 227.839 C 281.749 222.833,280.953 213.841,285.912 218.251 C 287.554 219.711,290.370 224.042,292.170 227.875 M265.598 228.595 C 312.106 240.490,280.602 265.224,214.109 269.020 C 152.583 272.532,119.274 262.861,136.731 246.554 C 150.350 233.832,198.662 221.725,203.689 229.775 C 206.136 233.694,208.481 233.537,211.278 229.268 C 214.435 224.451,247.778 224.037,265.598 228.595 M259.806 234.253 C 264.130 239.392,264.160 239.906,260.702 249.956 C 257.678 258.745,258.369 259.660,263.762 254.007 C 271.716 245.670,271.512 236.243,263.288 231.990 C 257.122 228.801,255.892 229.601,259.806 234.253 M180.815 232.970 C 158.209 237.889,148.322 257.840,168.490 257.840 C 172.813 257.840,173.361 255.238,169.417 253.441 C 163.204 250.610,165.007 247.249,175.958 241.243 C 190.883 233.058,190.434 233.381,188.068 232.540 C 186.965 232.148,183.701 232.341,180.815 232.970 M235.192 234.960 C 240.136 238.857,240.816 242.512,237.631 248.084 C 233.451 255.395,237.209 257.988,242.408 251.380 C 248.534 243.592,243.726 231.338,234.558 231.374 L 230.662 231.390 235.192 234.960 M211.861 240.400 C 209.190 243.619,211.225 246.690,216.028 246.690 C 218.553 246.690,220.627 245.829,221.106 244.582 C 222.132 241.906,219.226 238.328,216.028 238.328 C 214.682 238.328,212.808 239.260,211.861 240.400 M186.411 241.227 C 183.370 242.998,183.214 248.888,186.177 250.025 C 189.395 251.260,189.547 251.162,189.547 247.845 C 189.547 246.181,190.585 243.672,191.854 242.270 C 194.575 239.263,190.969 238.572,186.411 241.227 M313.895 250.352 C 318.280 252.171,322.984 253.680,324.348 253.707 C 325.713 253.733,322.439 255.531,317.073 257.701 C 276.116 274.270,260.223 281.079,243.206 289.346 C 217.105 302.025,219.233 302.096,167.247 286.818 C 144.634 280.172,119.549 273.078,111.503 271.054 C 103.457 269.029,96.630 267.130,96.333 266.832 C 95.607 266.106,121.276 253.659,123.500 253.659 C 124.463 253.659,125.449 255.320,125.691 257.351 C 127.214 270.101,146.390 274.994,195.122 275.067 C 251.880 275.151,284.530 266.591,293.483 249.277 C 295.976 244.456,300.221 244.680,313.895 250.352 M336.946 281.882 C 336.562 294.338,335.807 305.573,335.269 306.847 C 332.608 313.144,273.298 342.173,248.780 349.178 C 244.181 350.492,236.412 353.370,231.515 355.574 C 226.618 357.778,222.438 359.582,222.226 359.582 C 220.916 359.582,220.039 336.279,220.884 323.894 L 221.889 309.146 226.972 307.068 C 229.768 305.925,247.735 297.556,266.899 288.471 C 296.344 274.512,331.951 259.574,336.418 259.307 C 337.103 259.266,337.336 269.221,336.946 281.882 M125.142 280.961 C 160.510 290.674,208.192 305.205,209.731 306.739 C 211.643 308.645,212.347 326.458,211.186 343.505 L 210.208 357.851 193.954 353.054 C 185.014 350.415,158.258 341.721,134.495 333.735 L 91.289 319.213 90.903 300.564 C 90.282 270.637,89.396 271.144,125.142 280.961 M303.416 289.383 C 300.899 291.900,302.439 297.058,305.575 296.613 C 307.867 296.287,308.711 295.234,308.711 292.702 C 308.711 289.338,305.484 287.315,303.416 289.383 M316.470 292.507 C 314.415 296.348,314.608 299.078,317.114 301.583 C 320.770 305.240,323.541 302.805,323.068 296.351 C 322.594 289.877,318.999 287.783,316.470 292.507 M301.472 308.912 C 300.265 312.057,304.977 315.531,307.551 313.395 C 308.572 312.547,309.408 310.676,309.408 309.237 C 309.408 305.865,302.746 305.592,301.472 308.912 " stroke="none" fill="#472109" fill-rule="evenodd"></path></g></svg>