<svg id="svg" xmlns="http://www.w3.org/2000/svg" xmlns:xlink="http://www.w3.org/1999/xlink" width="400" height="276.21247113163975" viewBox="0, 0, 400,276.21247113163975"><g id="svgg"><path id="path0" d="M219.400 32.367 C 194.087 32.940,176.444 34.770,176.443 36.821 C 176.443 37.147,200.450 37.292,229.792 37.143 C 283.752 36.870,314.012 38.270,326.270 41.606 C 332.053 43.181,340.887 60.365,350.657 89.046 C 357.475 109.061,357.349 109.584,346.017 108.220 C 334.782 106.867,332.094 99.015,331.661 66.282 C 331.649 65.393,331.224 64.665,330.716 64.665 C 330.208 64.665,329.786 66.432,329.780 68.591 C 329.746 79.087,327.959 78.953,322.876 68.074 C 317.387 56.328,318.405 56.843,303.392 58.205 C 289.453 59.470,281.550 59.007,269.515 56.221 C 259.522 53.907,257.490 54.451,264.271 57.623 C 271.990 61.235,277.671 61.971,297.585 61.941 C 312.272 61.918,315.935 62.166,316.829 63.243 C 317.709 64.303,322.282 91.168,322.378 95.843 C 322.391 96.478,323.393 96.998,324.604 96.998 C 326.401 96.998,327.177 97.911,328.822 101.964 C 332.395 110.767,336.112 112.869,350.343 114.131 L 357.498 114.766 359.350 120.760 C 360.368 124.056,361.201 127.329,361.201 128.032 C 361.201 128.735,363.245 131.568,365.744 134.328 C 371.918 141.145,372.169 143.698,369.233 169.842 C 366.567 193.575,366.598 193.504,359.381 192.765 C 351.316 191.938,350.154 189.999,350.791 178.434 C 351.516 165.278,347.007 157.978,329.020 143.187 L 325.088 139.954 326.138 125.940 L 327.188 111.926 324.699 108.388 L 322.210 104.850 322.775 108.752 C 323.170 111.483,322.784 114.260,321.488 118.005 C 320.469 120.949,319.111 126.254,318.469 129.796 L 317.302 136.235 304.378 136.313 C 297.271 136.357,290.332 136.714,288.961 137.107 C 286.678 137.761,286.220 137.421,283.570 133.114 C 280.640 128.353,278.060 126.961,278.060 130.141 C 278.060 132.260,276.551 133.597,273.215 134.434 C 270.210 135.189,265.127 140.675,265.127 143.165 C 265.127 146.571,266.909 145.946,271.971 140.761 C 276.297 136.330,277.299 135.706,278.495 136.698 C 281.158 138.909,279.940 141.733,272.904 149.654 C 265.532 157.953,261.962 163.256,260.933 167.436 C 259.723 172.352,263.067 170.195,267.050 163.491 C 274.204 151.450,284.128 145.035,295.601 145.035 C 299.546 145.035,301.283 144.642,301.855 143.620 C 303.904 139.959,316.479 141.796,318.779 146.093 C 321.812 151.761,317.732 155.677,309.129 155.358 C 292.002 154.721,271.975 166.250,265.163 180.667 C 263.620 183.933,261.998 186.605,261.558 186.605 C 260.157 186.605,255.889 182.823,255.889 181.582 C 255.889 180.925,255.058 179.331,254.042 178.039 C 252.476 176.048,252.194 174.291,252.194 166.521 C 252.194 156.951,251.801 155.453,249.739 157.165 C 248.953 157.817,248.492 160.268,248.479 163.854 C 248.468 166.968,247.636 173.235,246.631 177.782 C 244.347 188.115,244.101 203.347,246.189 205.081 C 248.936 207.361,250.647 204.457,249.982 198.641 C 249.661 195.832,249.300 192.536,249.180 191.318 C 248.461 184.044,257.868 192.657,259.564 200.824 C 260.919 207.351,260.495 207.813,253.118 207.848 C 250.323 207.861,245.996 208.491,243.502 209.248 C 238.316 210.821,214.789 211.207,213.878 209.734 C 213.044 208.385,217.349 200.524,222.149 194.631 C 224.547 191.687,225.877 189.376,225.174 189.376 C 222.683 189.376,212.881 201.427,211.028 206.767 L 209.850 210.162 190.672 209.875 C 168.422 209.543,168.129 209.457,168.129 203.322 C 168.129 196.646,165.655 183.742,163.047 176.811 C 161.777 173.439,160.750 169.171,160.763 167.327 C 160.806 161.441,167.673 149.907,172.739 147.212 C 177.345 144.761,182.910 139.552,182.910 137.691 C 182.910 134.820,181.816 134.918,177.554 138.172 C 169.728 144.148,166.282 143.713,166.282 136.750 C 166.282 131.237,165.000 130.767,163.054 135.566 C 162.281 137.471,159.720 140.737,157.362 142.822 C 152.625 147.012,152.387 149.948,157.004 147.220 C 163.054 143.647,164.273 148.614,159.728 158.326 C 156.219 165.824,156.796 165.854,148.076 157.718 C 121.661 133.072,88.466 135.037,69.856 162.349 C 62.280 173.466,52.719 201.104,55.121 204.942 C 56.549 207.224,61.469 207.631,60.478 205.385 C 55.803 194.795,70.062 164.768,84.958 153.833 C 110.904 134.787,150.589 153.898,160.676 190.297 C 165.047 206.069,161.261 210.323,156.128 195.405 C 146.793 168.272,115.681 155.292,91.224 168.327 C 81.027 173.762,75.991 180.751,65.530 203.988 C 60.783 214.533,52.792 215.995,32.548 210.022 C 28.111 208.713,23.720 207.424,22.790 207.158 C 21.388 206.757,21.152 207.130,21.404 209.342 C 22.052 215.013,38.731 220.878,55.311 221.265 C 66.277 221.520,67.391 221.944,67.423 225.866 C 67.448 228.982,72.577 238.631,75.869 241.754 C 94.793 259.708,147.669 243.657,155.636 217.540 C 158.236 209.014,158.725 208.618,162.619 211.895 C 164.666 213.617,166.781 214.225,172.452 214.719 C 176.426 215.065,185.289 215.992,192.148 216.778 C 206.395 218.412,230.337 217.920,246.581 215.659 C 264.227 213.203,263.587 213.008,276.111 224.653 C 286.719 234.516,291.577 236.742,303.561 237.232 C 328.604 238.255,349.688 224.985,353.014 206.106 C 353.561 203.002,354.483 200.433,355.064 200.397 C 355.645 200.361,359.271 200.385,363.121 200.451 C 371.933 200.602,371.797 200.775,374.083 186.539 C 378.658 158.059,378.860 138.413,374.624 133.964 C 370.044 129.155,365.942 120.880,363.967 112.470 C 357.004 82.808,337.539 42.375,327.799 37.338 C 324.194 35.474,306.603 33.510,283.141 32.353 C 263.749 31.397,262.237 31.397,219.400 32.367 M155.658 43.366 C 137.186 47.849,118.242 80.164,113.599 115.109 C 112.391 124.204,111.167 127.385,108.659 127.942 C 104.915 128.774,86.297 131.096,71.896 132.527 C 31.388 136.551,17.364 150.568,17.416 186.979 C 17.429 196.633,17.651 198.250,19.108 199.319 C 20.697 200.484,20.821 199.926,21.471 188.727 C 22.799 165.827,26.122 156.947,27.032 173.871 C 27.757 187.367,33.066 203.079,37.474 204.770 C 45.224 207.744,52.838 175.797,47.169 164.088 C 44.326 158.216,38.006 155.019,33.899 157.377 C 28.253 160.617,30.521 153.719,36.390 149.799 C 47.026 142.695,54.953 140.735,82.099 138.498 C 109.265 136.258,113.139 135.223,116.953 129.181 C 118.184 127.231,119.342 125.635,119.526 125.635 C 119.710 125.635,121.679 126.318,123.902 127.152 C 128.178 128.756,143.432 129.405,147.914 128.174 C 149.847 127.642,150.424 126.811,150.799 124.013 C 151.057 122.091,152.296 119.003,153.552 117.153 C 156.093 113.408,156.574 109.449,157.573 84.065 C 158.142 69.613,157.468 62.805,155.400 62.116 C 154.617 61.855,154.270 63.103,154.266 66.205 C 154.262 68.661,153.818 74.203,153.280 78.522 C 152.741 82.841,151.589 93.857,150.720 103.002 C 148.940 121.723,149.005 121.520,144.308 122.824 C 134.553 125.534,125.364 123.413,124.875 118.340 C 123.853 107.723,139.764 64.960,147.316 58.026 C 162.745 43.857,164.205 41.292,155.658 43.366 M248.201 48.730 C 249.109 55.082,249.110 56.868,248.208 85.912 C 247.821 98.360,246.828 114.218,246.002 121.151 C 244.375 134.793,245.041 143.825,248.007 148.351 C 250.821 152.647,251.270 150.857,251.270 135.335 L 251.270 120.092 254.273 120.122 C 255.924 120.138,261.640 120.748,266.975 121.478 C 286.705 124.178,309.127 121.947,314.813 116.718 L 317.321 114.411 311.316 115.020 C 308.014 115.355,302.194 115.987,298.383 116.425 C 284.529 118.017,261.889 116.846,258.921 114.382 C 258.004 113.622,257.737 106.901,257.737 84.626 L 257.737 55.853 253.589 50.328 C 251.308 47.290,249.438 44.492,249.432 44.111 C 249.427 43.730,248.977 43.418,248.432 43.418 C 247.755 43.418,247.682 45.095,248.201 48.730 M201.386 55.947 C 197.575 56.614,190.884 57.185,186.517 57.217 C 174.671 57.303,174.824 57.006,171.354 86.593 C 167.383 120.451,167.432 120.707,178.742 125.170 C 188.062 128.848,190.274 128.893,203.233 125.665 C 209.584 124.083,219.349 122.404,224.932 121.933 C 237.413 120.882,237.062 121.292,237.847 106.875 C 239.885 69.440,238.729 57.737,232.791 55.710 C 228.556 54.264,210.219 54.403,201.386 55.947 M188.259 59.521 C 192.491 60.648,194.347 60.639,202.116 59.455 C 214.848 57.513,230.642 58.034,232.409 60.454 C 233.467 61.903,233.718 67.346,233.718 88.828 C 233.718 119.438,234.678 116.715,223.557 117.651 C 219.746 117.972,210.304 119.778,202.574 121.665 L 188.519 125.096 181.788 122.948 C 171.479 119.658,171.497 119.718,174.075 96.998 C 174.796 90.647,175.669 80.772,176.016 75.054 C 176.533 66.522,176.995 64.202,178.591 62.121 C 181.973 57.711,181.718 57.780,188.259 59.521 M215.704 145.406 C 209.166 148.293,206.422 158.539,210.464 164.970 C 215.805 173.466,234.236 172.372,238.346 163.314 C 244.461 149.842,230.561 138.848,215.704 145.406 M334.986 157.406 C 343.515 166.032,346.064 170.332,343.567 171.875 C 342.688 172.418,340.501 170.910,336.282 166.852 C 332.967 163.663,329.147 160.335,327.793 159.456 C 325.000 157.644,321.999 152.035,322.761 150.051 C 323.822 147.286,326.682 149.007,334.986 157.406 M231.594 151.655 C 236.662 155.861,223.643 161.475,217.029 157.935 C 214.925 156.809,214.691 154.033,216.569 152.474 C 219.895 149.714,228.678 149.235,231.594 151.655 M172.496 161.452 C 165.473 168.516,163.988 171.357,166.763 172.421 C 168.764 173.190,174.352 169.088,175.688 165.870 C 176.309 164.373,178.024 161.774,179.500 160.094 C 181.921 157.336,182.383 154.273,180.377 154.273 C 179.968 154.273,176.421 157.503,172.496 161.452 M199.029 163.943 C 197.479 167.653,197.257 169.857,198.566 168.545 C 200.176 166.931,202.385 160.739,201.351 160.739 C 200.810 160.739,199.765 162.181,199.029 163.943 M41.955 168.206 C 42.653 173.463,41.746 187.747,40.502 191.093 C 38.460 196.589,34.947 186.338,33.662 171.132 L 33.018 163.510 37.175 163.510 L 41.332 163.510 41.955 168.206 M323.600 170.687 C 325.544 174.015,325.157 176.734,322.865 175.854 C 321.215 175.221,318.707 170.826,318.707 168.569 C 318.707 166.111,321.679 167.397,323.600 170.687 M123.779 174.438 C 132.878 180.602,131.031 183.315,121.798 177.348 C 114.901 172.890,115.140 173.111,115.897 171.886 C 116.878 170.299,118.398 170.791,123.779 174.438 M301.608 171.838 C 301.057 172.730,294.389 176.443,293.339 176.443 C 291.813 176.443,293.247 174.321,295.843 172.738 C 299.008 170.808,302.590 170.249,301.608 171.838 M172.281 175.525 C 170.591 177.394,170.864 178.994,172.682 177.870 C 174.082 177.005,175.741 173.672,174.772 173.672 C 174.324 173.672,173.204 174.506,172.281 175.525 M97.576 178.705 C 95.792 181.427,94.418 181.712,93.581 179.533 C 93.204 178.550,93.762 177.381,95.144 176.263 C 98.075 173.889,99.677 175.499,97.576 178.705 M285.450 176.721 C 285.450 178.434,283.516 180.139,281.570 180.139 C 279.671 180.139,279.376 178.268,281.016 176.628 C 282.494 175.151,285.450 175.212,285.450 176.721 M112.702 181.184 C 112.702 183.250,110.031 184.993,103.766 187.013 C 100.395 188.100,97.845 189.793,95.110 192.760 L 91.234 196.965 91.650 204.487 C 91.984 210.526,92.622 213.102,94.888 217.552 C 100.417 228.409,100.892 236.130,95.649 229.899 C 93.033 226.789,92.341 225.397,88.669 215.856 C 84.339 204.606,89.528 190.592,100.693 183.388 C 103.995 181.257,107.277 178.813,107.985 177.955 C 109.549 176.062,112.702 178.220,112.702 181.184 M203.426 177.597 C 200.338 181.318,197.078 196.767,199.380 196.767 C 200.316 196.767,205.418 178.839,204.912 177.324 C 204.660 176.567,204.213 176.649,203.426 177.597 M316.022 181.569 C 326.075 186.768,323.435 204.362,311.949 208.714 C 299.772 213.328,290.067 202.785,295.194 190.514 C 298.882 181.689,308.372 177.613,316.022 181.569 M140.466 193.607 C 142.828 197.040,143.258 198.387,142.753 200.765 C 142.411 202.377,141.915 205.640,141.651 208.017 C 140.868 215.054,138.530 214.645,139.140 207.577 C 139.609 202.147,139.459 201.585,136.274 196.832 C 134.425 194.073,132.670 190.601,132.373 189.117 L 131.833 186.419 134.695 187.899 C 136.269 188.713,138.866 191.282,140.466 193.607 M84.988 190.246 C 84.988 191.336,83.187 192.502,82.525 191.840 C 81.863 191.178,83.029 189.376,84.119 189.376 C 84.597 189.376,84.988 189.768,84.988 190.246 M123.027 191.943 C 131.894 197.791,132.923 211.703,124.939 217.793 C 114.334 225.882,96.494 216.683,98.195 204.003 C 99.410 194.944,115.632 187.066,123.027 191.943 M339.492 191.224 C 339.806 191.732,339.207 192.148,338.161 192.148 C 337.115 192.148,336.259 191.732,336.259 191.224 C 336.259 190.716,336.858 190.300,337.590 190.300 C 338.322 190.300,339.178 190.716,339.492 191.224 M347.961 201.776 C 346.998 204.287,345.497 203.366,345.497 200.264 C 345.497 197.514,345.608 197.406,347.009 198.807 C 347.840 199.638,348.269 200.974,347.961 201.776 M77.584 201.155 C 77.566 203.169,76.043 205.681,75.294 204.932 C 74.510 204.149,75.776 199.538,76.775 199.538 C 77.228 199.538,77.592 200.266,77.584 201.155 M290.488 211.311 C 290.982 212.948,290.810 213.267,289.668 212.828 C 288.870 212.522,288.222 211.200,288.222 209.878 C 288.222 207.204,289.489 208.005,290.488 211.311 M336.114 213.892 C 335.619 216.413,331.260 219.235,328.979 218.511 C 326.001 217.566,326.614 215.933,330.947 213.273 C 334.959 210.809,336.679 211.015,336.114 213.892 M316.859 216.195 C 316.859 216.718,315.424 218.407,313.670 219.947 C 311.916 221.487,310.225 223.552,309.913 224.537 C 309.092 227.124,306.828 226.717,301.893 223.096 C 293.687 217.074,294.272 214.518,303.130 217.693 C 307.263 219.174,307.525 219.161,310.520 217.312 C 313.916 215.217,316.859 214.698,316.859 216.195 M110.913 227.784 C 111.914 228.991,111.894 229.384,110.795 230.078 C 108.904 231.274,107.667 230.652,107.326 228.334 C 106.975 225.947,109.116 225.619,110.913 227.784 M83.556 234.036 C 86.288 237.618,86.366 237.965,84.596 238.644 C 83.218 239.173,81.112 236.611,79.979 233.025 C 79.006 229.951,80.834 230.468,83.556 234.036 " stroke="none" fill="#472109" fill-rule="evenodd"></path></g></svg>