<svg id="svg" xmlns="http://www.w3.org/2000/svg" xmlns:xlink="http://www.w3.org/1999/xlink" width="400" height="274.3034055727554" viewBox="0, 0, 400,274.3034055727554"><g id="svgg"><path id="path0" d="M304.954 1.651 C 302.570 1.744,295.882 2.117,290.093 2.478 C 284.303 2.839,263.684 3.398,244.272 3.718 C 166.162 5.009,135.143 5.914,116.718 7.439 C 112.972 7.749,103.359 8.297,95.356 8.657 C 87.353 9.017,77.043 9.718,72.446 10.217 C 67.848 10.715,60.325 11.411,55.728 11.765 C 25.710 14.071,12.900 16.143,8.099 19.471 C 2.097 23.630,1.667 27.994,3.672 64.396 C 5.185 91.878,5.925 108.225,6.797 133.437 C 7.139 143.313,7.974 157.312,8.652 164.547 C 9.330 171.781,10.316 184.253,10.842 192.262 C 11.369 200.270,12.061 208.840,12.380 211.306 C 12.700 213.772,13.257 222.198,13.619 230.031 C 14.768 254.875,15.639 258.545,21.674 263.971 C 31.292 272.619,52.750 275.299,84.830 271.860 C 88.065 271.513,94.195 271.221,98.452 271.210 C 102.709 271.200,114.272 270.788,124.149 270.294 C 156.999 268.651,170.384 268.116,194.737 267.476 C 208.019 267.126,226.269 266.301,235.294 265.641 C 244.319 264.982,256.579 264.143,262.539 263.779 C 300.931 261.428,357.483 253.673,375.647 248.267 C 386.649 244.992,394.372 237.542,397.685 227.009 C 399.244 222.051,399.524 194.541,398.189 177.399 C 397.844 172.972,396.991 160.851,396.293 150.464 C 395.595 140.077,394.330 121.966,393.483 110.217 C 392.635 98.467,391.671 84.675,391.340 79.567 C 389.491 51.043,382.618 18.126,377.042 11.085 C 370.356 2.643,349.445 -0.093,304.954 1.651 M356.942 10.175 C 369.684 13.150,374.826 22.332,377.075 46.130 C 377.461 50.217,378.301 56.765,378.940 60.681 C 379.579 64.598,380.409 70.867,380.785 74.613 C 381.160 78.359,381.867 84.489,382.355 88.235 C 383.194 94.668,383.566 98.618,385.157 117.957 C 385.521 122.384,386.070 127.957,386.377 130.341 C 386.684 132.724,387.373 141.362,387.908 149.536 C 388.443 157.709,389.155 167.043,389.488 170.279 C 395.487 228.391,388.195 239.365,339.938 244.853 C 335.341 245.376,325.588 246.493,318.266 247.335 C 293.078 250.232,270.881 252.584,262.539 253.241 C 257.941 253.602,250.139 254.298,245.201 254.786 C 233.360 255.956,220.859 256.787,203.096 257.583 C 195.093 257.942,182.972 258.511,176.161 258.848 C 169.350 259.184,155.000 259.730,144.272 260.062 C 133.545 260.394,120.170 260.987,114.551 261.380 C 98.306 262.516,58.366 262.351,48.607 261.107 C 29.438 258.663,27.639 255.888,25.057 224.768 C 24.845 222.214,24.152 215.387,23.516 209.598 C 22.880 203.808,22.052 194.613,21.674 189.164 C 21.296 183.715,20.306 171.873,19.473 162.848 C 18.640 153.824,17.951 143.932,17.943 140.867 C 17.934 137.802,17.661 131.950,17.335 127.864 C 15.944 110.428,14.834 91.411,14.246 74.923 C 13.900 65.217,13.438 53.218,13.220 48.260 C 12.372 28.998,15.405 25.984,39.319 22.329 C 44.087 21.601,48.545 20.876,49.226 20.720 C 49.907 20.563,58.824 20.011,69.040 19.493 C 79.257 18.975,93.572 18.137,100.852 17.629 C 108.131 17.122,122.481 16.428,132.740 16.087 C 142.999 15.747,157.523 15.063,165.015 14.569 C 172.508 14.074,190.480 13.377,204.954 13.020 C 250.487 11.897,295.200 10.404,308.050 9.578 C 324.773 8.504,351.163 8.826,356.942 10.175 M287.922 41.445 C 275.250 45.300,271.195 61.548,278.872 77.709 C 282.491 85.327,298.512 102.810,303.970 105.097 C 313.509 109.095,339.702 85.936,344.050 69.659 C 348.886 51.557,333.573 40.883,316.125 50.194 C 311.637 52.589,311.995 52.692,306.462 47.406 C 300.276 41.496,294.189 39.539,287.922 41.445 M115.480 156.990 C 109.690 157.450,98.266 158.261,90.093 158.794 C 56.808 160.963,53.154 161.691,54.193 165.944 C 54.992 169.220,55.295 169.274,66.658 168.181 C 112.375 163.781,148.519 162.794,209.410 164.282 C 215.470 164.430,215.776 158.522,209.782 157.115 C 205.410 156.088,128.129 155.987,115.480 156.990 M195.046 190.131 C 169.528 192.480,111.871 193.722,80.709 192.595 C 56.410 191.716,56.966 191.652,56.966 195.322 C 56.966 199.135,56.954 199.132,73.994 199.916 C 114.232 201.769,173.632 200.073,215.350 195.881 C 219.815 195.432,220.733 194.487,220.081 191.013 L 219.676 188.854 213.399 188.937 C 209.946 188.983,201.687 189.520,195.046 190.131 M64.750 223.264 C 63.410 224.605,63.531 226.999,65.015 228.483 C 66.240 229.708,67.079 229.721,142.105 229.721 C 217.131 229.721,217.970 229.708,219.195 228.483 C 220.740 226.938,220.787 224.661,219.301 223.316 C 217.607 221.783,66.282 221.732,64.750 223.264 " stroke="none" fill="#472109" fill-rule="evenodd"></path></g></svg>