<svg id="svg" xmlns="http://www.w3.org/2000/svg" xmlns:xlink="http://www.w3.org/1999/xlink" width="400" height="394.16909620991254" viewBox="0, 0, 400,394.16909620991254"><g id="svgg"><path id="path0" d="M193.003 1.856 C 92.683 11.716,37.537 50.420,11.210 129.446 C -15.563 209.816,8.656 280.627,84.327 343.224 C 132.913 383.416,177.452 397.755,230.170 390.178 C 294.092 380.991,333.489 353.332,372.322 290.379 C 426.333 202.821,397.634 82.072,309.278 25.128 C 281.050 6.935,235.031 -2.275,193.003 1.856 M257.726 11.440 C 354.520 32.302,417.136 149.457,384.660 248.936 C 376.308 274.519,357.641 304.008,329.028 336.820 C 297.926 372.486,223.980 394.123,172.595 382.595 C 110.074 368.568,34.915 301.141,15.208 241.399 C -9.910 165.255,28.684 67.355,97.376 32.965 C 117.251 23.015,145.979 14.549,171.429 11.141 C 178.805 10.154,186.414 9.127,188.338 8.859 C 199.132 7.357,247.056 9.140,257.726 11.440 M167.930 26.873 C 139.569 29.222,110.036 39.907,84.303 57.128 C 71.581 65.643,57.143 78.660,57.143 81.617 C 57.143 86.267,60.750 85.022,68.869 77.572 C 104.735 44.657,153.074 29.039,203.224 34.161 C 212.947 35.154,216.611 33.212,211.739 29.650 C 208.243 27.093,183.897 25.550,167.930 26.873 M229.000 34.384 C 227.836 37.417,230.785 39.164,239.650 40.694 C 244.140 41.470,251.405 43.163,255.796 44.458 C 264.045 46.891,267.055 46.745,267.055 43.911 C 267.055 38.797,230.791 29.718,229.000 34.384 M148.105 97.377 C 105.399 102.111,65.820 113.382,55.156 123.849 C 43.487 135.301,47.302 150.544,63.016 155.252 C 68.196 156.804,66.132 157.289,90.962 148.687 C 173.730 120.011,264.699 130.932,336.314 178.143 C 354.378 190.052,360.980 189.118,368.863 173.537 C 376.791 157.867,372.411 151.942,338.635 132.638 C 286.507 102.845,216.188 89.831,148.105 97.377 M226.239 103.816 C 285.522 110.599,370.087 147.544,365.763 164.771 C 361.809 180.525,354.677 182.229,338.056 171.392 C 271.658 128.097,191.092 115.588,110.204 136.017 C 97.539 139.216,79.429 145.109,74.402 147.668 C 65.882 152.005,54.810 146.053,54.810 137.135 C 54.810 115.366,155.738 95.750,226.239 103.816 M143.440 115.083 C 127.179 116.772,85.289 128.438,67.347 136.273 C 61.749 138.718,60.127 141.702,63.660 143.058 C 65.673 143.830,65.884 143.768,87.837 135.940 C 116.153 125.844,139.340 121.095,159.184 121.327 C 176.069 121.525,175.146 121.683,174.717 118.666 C 174.178 114.884,160.473 113.314,143.440 115.083 M186.737 118.189 C 182.937 122.767,186.013 123.692,203.927 123.354 L 220.991 123.032 220.991 120.117 L 220.991 117.201 204.542 116.879 C 191.566 116.624,187.806 116.901,186.737 118.189 M151.603 177.376 C 89.918 184.289,58.422 201.898,75.128 220.134 C 80.554 226.057,88.933 226.191,104.178 220.597 C 168.404 197.033,240.717 204.906,299.708 241.886 C 317.082 252.777,321.272 252.537,328.576 240.233 C 335.125 229.203,332.672 223.550,316.895 213.314 C 271.733 184.014,210.729 170.750,151.603 177.376 M220.408 184.833 C 251.609 189.300,283.683 200.516,307.844 215.408 C 326.836 227.114,327.880 228.813,321.892 238.256 C 317.478 245.215,316.691 245.152,303.790 236.795 C 242.962 197.390,164.148 189.848,94.461 216.764 C 86.064 220.007,84.443 219.900,80.377 215.833 C 67.194 202.651,103.496 188.518,165.598 182.656 C 175.182 181.751,207.984 183.054,220.408 184.833 M166.427 190.751 C 158.382 192.700,155.102 194.310,155.102 196.309 C 155.102 199.817,157.550 200.303,164.431 198.161 C 168.186 196.992,175.582 195.765,180.866 195.434 C 190.870 194.808,193.209 193.826,192.028 190.749 C 191.120 188.382,176.203 188.383,166.427 190.751 M195.260 192.779 C 194.006 196.046,195.880 197.085,203.030 197.085 C 238.397 197.085,275.363 209.654,301.104 230.431 C 309.306 237.051,311.811 237.976,313.018 234.828 C 315.183 229.186,282.533 207.932,259.626 200.071 C 238.042 192.665,197.084 188.024,195.260 192.779 M160.350 248.513 C 115.522 253.186,91.848 267.008,105.423 280.583 C 110.328 285.489,113.833 285.661,125.211 281.557 C 172.689 264.431,224.625 270.116,266.314 297.003 C 276.927 303.848,281.207 303.727,286.087 296.443 C 293.853 284.848,289.313 278.793,262.974 265.616 C 232.702 250.473,197.626 244.627,160.350 248.513 M206.445 255.448 C 233.057 258.734,266.651 271.623,280.742 283.954 L 283.965 286.775 281.438 291.201 C 278.383 296.551,277.503 296.469,267.281 289.879 C 251.520 279.717,230.221 271.220,212.635 268.078 C 206.172 266.924,204.667 266.302,205.993 265.332 C 214.708 258.960,184.684 254.454,158.601 258.220 C 135.470 261.559,110.787 268.857,110.787 272.355 C 110.787 275.455,114.206 275.602,123.405 272.899 C 151.547 264.631,184.834 260.919,195.918 264.814 C 197.928 265.520,196.153 265.709,190.209 265.424 C 169.566 264.433,144.112 268.159,123.883 275.131 C 114.640 278.317,113.505 278.474,111.097 276.896 C 93.178 265.155,161.180 249.858,206.445 255.448 M49.028 264.082 C 46.676 266.916,55.741 293.771,60.956 299.417 C 66.145 305.033,70.911 300.799,65.987 294.947 C 62.977 291.370,59.484 282.910,56.320 271.529 C 54.272 264.161,51.398 261.226,49.028 264.082 M76.487 309.775 C 72.938 319.023,110.362 347.403,138.529 356.826 C 176.203 369.429,266.472 372.738,266.472 361.516 C 266.472 358.049,266.647 358.058,243.763 360.304 C 173.984 367.150,108.884 347.653,84.621 312.641 C 81.192 307.694,77.751 306.481,76.487 309.775 " stroke="none" fill="#ad4f21" fill-rule="evenodd"></path></g></svg>