<svg id="svg" xmlns="http://www.w3.org/2000/svg" xmlns:xlink="http://www.w3.org/1999/xlink" width="400" height="351.219512195122" viewBox="0, 0, 400,351.219512195122"><g id="svgg"><path id="path0" d="M72.943 41.790 C 32.072 42.260,26.103 42.654,24.162 45.007 C 21.711 47.980,21.664 68.623,23.940 142.827 L 25.203 184.028 29.268 187.354 C 33.358 190.700,102.524 190.788,131.566 187.483 L 140.368 186.482 139.332 218.038 C 138.763 235.393,137.165 263.444,135.781 280.372 C 134.397 297.300,133.854 311.740,134.575 312.462 C 137.106 314.993,153.459 317.073,170.821 317.073 C 193.789 317.073,193.711 317.110,192.539 306.739 C 192.019 302.138,192.804 289.228,194.283 278.049 C 195.763 266.870,197.389 241.823,197.898 222.389 L 198.824 187.055 204.613 185.969 C 212.224 184.541,262.286 186.527,278.916 188.917 L 291.979 190.794 308.086 179.222 C 352.604 147.241,383.940 113.821,369.409 113.821 C 367.368 113.821,345.658 95.561,316.754 69.535 C 301.595 55.884,287.965 43.990,286.466 43.104 C 283.694 41.465,164.777 40.733,72.943 41.790 M42.884 70.325 C 43.394 80.386,44.213 103.618,44.705 121.951 C 45.196 140.285,46.054 160.648,46.612 167.204 L 47.627 179.123 42.919 178.586 L 38.211 178.049 36.396 131.707 C 34.475 82.661,33.620 55.264,33.948 53.252 C 34.057 52.581,35.903 52.033,38.051 52.033 C 41.887 52.033,41.972 52.355,42.884 70.325 M307.889 75.203 C 321.439 87.947,338.226 103.430,345.193 109.611 C 352.161 115.791,357.648 121.773,357.386 122.905 C 355.825 129.662,300.206 172.279,290.494 174.160 C 286.779 174.879,256.301 175.532,222.764 175.610 C 189.228 175.689,139.106 176.381,111.382 177.149 C 83.659 177.918,60.718 178.298,60.402 177.995 C 59.730 177.349,55.553 96.371,54.912 71.545 L 54.472 54.472 74.797 53.582 C 85.976 53.092,137.451 52.543,189.187 52.362 L 283.253 52.033 307.889 75.203 M174.739 73.262 C 172.008 77.588,168.225 80.867,163.743 82.792 C 155.956 86.136,144.310 97.998,140.970 105.988 C 137.923 113.277,133.831 116.558,130.448 114.424 C 125.689 111.422,126.521 109.169,135.661 100.317 C 144.831 91.435,146.070 88.495,143.032 82.820 C 139.291 75.829,129.175 79.737,121.710 91.057 L 119.029 95.122 117.875 90.650 C 116.635 85.847,113.122 84.670,111.630 88.558 C 109.826 93.261,95.609 113.821,94.162 113.821 C 93.349 113.821,92.683 110.894,92.683 107.317 C 92.683 99.584,89.492 98.615,85.035 104.996 C 83.428 107.296,80.491 111.138,78.507 113.532 L 74.900 117.886 74.848 114.115 C 74.820 112.040,77.065 104.894,79.838 98.233 C 86.663 81.838,84.475 75.951,75.508 86.585 C 57.036 108.492,60.253 126.970,82.409 126.225 L 96.536 125.750 106.693 114.501 C 117.150 102.920,117.283 102.899,119.396 112.555 C 121.893 123.968,147.500 123.937,159.756 112.505 L 164.228 108.335 164.228 114.234 C 164.228 121.154,164.645 121.498,175.565 123.569 C 183.039 124.986,184.705 124.730,191.658 121.094 C 198.247 117.649,200.167 117.300,204.406 118.778 C 208.321 120.143,210.747 119.955,215.649 117.907 C 219.747 116.194,222.099 115.891,222.477 117.026 C 225.065 124.789,243.700 125.069,249.593 117.433 C 255.374 109.944,263.855 100.712,264.429 101.285 C 264.735 101.592,264.396 106.751,263.673 112.750 C 262.156 125.352,263.801 126.213,269.576 115.839 C 279.169 98.609,275.741 87.364,261.347 88.836 C 249.427 90.055,249.782 89.833,244.323 99.506 C 235.645 114.881,230.652 116.563,235.627 102.435 C 240.660 88.145,236.387 84.810,227.390 96.006 C 222.695 101.848,213.588 108.943,210.784 108.943 C 208.360 108.943,210.216 103.441,217.035 90.405 C 224.625 75.893,224.995 71.545,218.636 71.545 C 214.738 71.545,209.556 77.340,206.673 84.922 C 205.490 88.034,203.643 89.168,198.677 89.834 C 190.706 90.904,183.833 95.827,178.706 104.142 C 170.534 117.394,171.901 108.227,181.592 84.789 C 189.245 66.280,184.347 58.042,174.739 73.262 M239.397 75.074 C 236.633 77.838,236.892 82.835,239.858 83.973 C 243.308 85.297,247.406 81.429,246.826 77.395 C 246.260 73.451,242.268 72.204,239.397 75.074 M284.591 97.863 C 272.800 105.875,270.432 125.203,281.242 125.203 C 286.275 125.203,286.496 127.829,281.920 133.267 C 271.064 146.169,257.775 147.529,220.199 139.586 C 175.923 130.227,156.262 132.081,138.495 147.289 C 128.780 155.604,129.917 156.102,145.935 150.546 C 165.837 143.644,190.418 143.545,217.886 150.257 C 252.476 158.708,273.377 156.593,286.179 143.344 C 293.510 135.758,308.943 108.094,308.943 102.540 C 308.943 94.700,293.586 91.751,284.591 97.863 M195.196 105.552 C 193.190 109.300,185.745 114.742,184.427 113.424 C 183.966 112.963,186.194 109.825,189.377 106.450 C 195.370 100.095,198.364 99.633,195.196 105.552 M292.677 109.763 C 290.580 111.995,287.711 113.800,286.302 113.773 C 284.576 113.741,285.516 112.111,289.180 108.780 C 295.519 103.015,298.285 103.793,292.677 109.763 M329.381 109.875 C 323.653 115.603,328.030 124.853,335.572 122.960 C 342.623 121.190,342.304 112.874,335.035 108.984 C 332.710 107.739,331.294 107.963,329.381 109.875 M187.564 195.528 C 189.837 214.447,188.520 237.038,182.028 290.494 C 179.801 308.832,179.696 308.943,164.786 308.943 C 156.960 308.943,156.863 308.113,159.964 267.503 C 161.481 247.636,163.174 221.394,163.726 209.187 L 164.729 186.992 175.634 186.992 L 186.539 186.992 187.564 195.528 M153.829 216.815 C 153.207 232.324,152.013 251.531,151.175 259.498 C 150.337 267.465,149.627 280.203,149.597 287.805 C 149.544 301.420,148.139 306.994,145.216 305.187 C 144.324 304.636,144.535 295.266,145.745 281.808 C 146.855 269.456,148.288 243.435,148.929 223.984 C 149.912 194.199,150.479 188.618,152.527 188.618 C 154.635 188.618,154.809 192.369,153.829 216.815 " stroke="none" fill="#472109" fill-rule="evenodd"></path></g></svg>