<svg id="svg" xmlns="http://www.w3.org/2000/svg" xmlns:xlink="http://www.w3.org/1999/xlink" width="400" height="299.84350547730827" viewBox="0, 0, 400,299.84350547730827"><g id="svgg"><path id="path0" d="M118.782 1.001 C 115.202 2.102,114.279 3.420,113.381 8.720 C 112.555 13.592,112.139 13.918,107.340 13.447 C 102.634 12.984,101.589 13.380,100.473 16.050 C 99.416 18.579,95.541 18.546,92.645 15.982 C 85.265 9.450,74.396 13.276,66.910 25.039 C 62.681 31.685,62.411 31.925,59.186 31.925 C 44.476 31.925,35.556 40.321,31.915 57.590 C 29.773 67.751,29.566 68.169,25.015 71.547 C 11.922 81.264,8.828 90.659,12.948 108.195 C 14.202 113.534,14.331 113.191,8.534 119.965 C -1.626 131.837,-1.877 145.165,7.829 157.433 C 13.240 164.273,13.769 165.788,14.338 176.073 C 15.074 189.374,18.197 194.686,28.225 199.693 C 33.908 202.531,35.492 204.239,36.935 209.083 C 39.975 219.292,48.107 226.351,58.671 227.951 C 64.409 228.820,65.208 229.469,68.577 235.990 C 71.896 242.416,73.867 244.179,78.148 244.552 C 93.259 245.866,95.726 246.485,101.905 250.511 C 104.353 252.106,107.194 253.350,109.391 253.791 C 118.245 255.564,120.451 266.734,113.599 275.096 C 109.581 279.999,109.410 285.160,113.144 288.738 C 116.401 291.858,118.499 292.171,141.079 292.902 C 152.656 293.277,171.634 293.892,183.253 294.268 C 194.871 294.644,204.567 295.070,204.798 295.213 C 205.030 295.356,214.609 295.748,226.084 296.085 C 237.559 296.421,253.005 297.108,260.407 297.612 C 278.380 298.834,331.621 299.155,335.376 298.063 C 345.206 295.205,347.206 284.419,339.148 277.726 L 336.463 275.497 336.106 253.711 C 335.805 235.377,335.532 230.635,334.382 223.787 C 333.631 219.311,332.744 213.818,332.412 211.581 C 330.233 196.888,319.378 163.094,316.639 162.472 C 313.025 161.651,300.800 160.823,286.802 160.452 C 269.151 159.983,270.221 160.441,269.498 153.052 C 268.750 145.410,266.147 131.090,264.470 125.383 C 262.918 120.102,260.078 102.155,260.697 101.536 C 260.861 101.372,262.389 101.838,264.092 102.570 C 279.501 109.199,295.311 105.114,300.808 93.084 C 303.104 88.060,306.016 65.616,306.537 48.927 C 306.980 34.741,305.991 36.131,316.432 35.030 C 325.284 34.097,354.220 33.465,354.929 34.190 C 355.226 34.494,355.771 38.025,356.141 42.038 C 357.033 51.705,356.415 53.914,352.641 54.557 C 344.731 55.905,338.634 62.991,337.104 72.613 C 336.432 76.838,335.375 78.099,332.093 78.591 C 328.781 79.088,328.816 78.911,330.525 86.643 C 332.044 93.517,332.852 94.523,336.851 94.523 C 340.439 94.523,340.849 95.073,341.319 100.524 C 341.995 108.378,343.810 109.856,351.632 108.926 C 354.651 108.567,362.253 108.058,368.527 107.794 C 382.977 107.185,386.144 104.906,386.209 95.069 C 386.235 91.238,386.868 90.852,393.460 90.637 L 399.061 90.454 399.248 85.766 C 399.551 78.179,398.576 76.375,394.165 76.361 C 388.471 76.342,387.986 75.799,388.854 70.405 C 390.059 62.918,387.543 57.944,380.794 54.473 C 376.829 52.434,376.609 51.963,377.096 46.588 C 377.800 38.814,379.031 36.933,383.411 36.933 C 387.689 36.933,388.732 35.154,388.732 27.856 C 388.732 20.324,387.871 19.027,382.460 18.415 C 377.694 17.876,376.998 17.316,375.906 13.142 C 373.175 2.703,357.201 3.427,355.202 14.081 C 354.644 17.053,353.872 17.516,350.548 16.874 C 348.998 16.575,338.972 16.318,328.266 16.303 C 306.709 16.272,308.126 16.543,305.836 12.023 C 304.375 9.141,302.531 8.438,298.513 9.232 C 295.815 9.766,294.499 9.669,290.908 8.674 C 284.915 7.013,275.613 6.400,245.070 5.651 C 230.610 5.297,214.554 4.734,209.390 4.400 C 204.225 4.067,197.260 3.611,193.912 3.389 C 186.185 2.874,182.700 3.386,180.768 5.318 C 179.306 6.780,179.191 6.795,176.507 5.870 C 172.640 4.538,170.182 5.189,166.401 8.548 C 163.493 11.131,162.976 11.362,160.937 10.997 C 157.504 10.383,144.257 9.430,138.846 9.409 C 133.483 9.387,132.479 8.705,131.700 4.549 C 130.891 0.240,125.801 -1.158,118.782 1.001 M127.574 3.881 C 127.987 4.294,128.326 5.978,128.326 7.623 C 128.326 12.033,129.037 12.303,141.784 12.727 C 152.528 13.085,160.637 13.958,163.224 15.036 C 164.691 15.647,165.472 26.950,164.105 27.795 C 163.815 27.974,156.984 27.904,148.925 27.639 C 128.380 26.962,127.982 27.129,129.466 35.784 C 130.432 41.420,130.452 41.400,122.721 42.494 C 115.313 43.543,115.180 43.438,115.180 36.579 C 115.180 30.098,114.517 29.421,108.177 29.421 C 102.879 29.421,102.330 28.687,102.864 22.317 C 103.369 16.300,103.803 15.965,109.790 16.971 C 116.110 18.033,116.539 17.636,117.027 10.288 C 117.316 5.946,117.620 4.724,118.593 4.013 C 120.078 2.928,126.526 2.833,127.574 3.881 M204.883 7.528 C 208.602 7.881,222.686 8.467,236.182 8.832 C 285.037 10.151,287.055 10.312,273.083 11.767 C 262.930 12.825,257.974 12.720,246.009 11.195 C 237.397 10.096,231.155 9.827,208.451 9.574 C 183.986 9.301,177.052 8.864,181.600 7.884 C 182.424 7.706,183.662 7.441,184.351 7.296 C 186.833 6.771,198.262 6.900,204.883 7.528 M174.662 10.023 C 177.346 11.460,177.812 19.410,176.153 35.470 C 175.315 43.576,175.273 46.472,175.888 53.398 C 176.291 57.942,176.834 65.321,177.094 69.797 C 177.822 82.339,180.715 87.646,186.815 87.627 C 193.289 87.606,197.587 82.789,199.175 73.776 C 199.825 70.085,199.856 70.043,201.794 70.232 L 203.756 70.423 203.560 78.247 C 203.324 87.678,203.670 89.831,205.724 91.735 L 207.298 93.193 203.962 94.184 C 186.686 99.315,175.470 94.503,170.877 79.990 C 168.310 71.877,166.670 13.162,168.934 10.427 C 169.895 9.267,172.858 9.058,174.662 10.023 M370.862 11.282 C 371.750 12.163,372.154 13.602,372.342 16.558 C 372.663 21.608,373.199 22.073,378.784 22.156 C 384.116 22.236,384.977 23.040,384.977 27.940 C 384.977 31.516,383.651 33.177,380.798 33.177 C 376.447 33.177,374.656 36.001,374.048 43.818 C 373.369 52.549,372.778 53.208,365.632 53.208 C 360.287 53.208,360.055 52.749,359.825 41.717 C 359.679 34.740,359.389 31.830,358.765 31.080 C 357.154 29.143,324.496 29.891,311.500 32.162 L 306.569 33.024 307.010 27.017 C 307.252 23.712,307.577 20.805,307.731 20.556 C 308.722 18.953,345.181 19.793,352.426 21.586 C 358.804 23.165,362.653 20.342,360.237 15.857 C 357.595 10.951,366.613 7.067,370.862 11.282 M211.581 11.883 C 225.381 12.258,235.549 12.872,243.192 13.792 C 252.951 14.966,256.388 15.097,268.858 14.769 C 284.059 14.369,288.690 14.871,290.076 17.069 C 291.396 19.160,289.624 19.253,275.960 17.811 C 267.776 16.947,254.010 16.110,241.218 15.698 C 200.062 14.374,182.644 13.016,183.755 11.219 C 184.029 10.776,185.419 10.675,187.707 10.932 C 189.648 11.151,200.391 11.579,211.581 11.883 M302.132 13.440 C 302.855 13.947,303.574 15.029,303.730 15.845 C 304.192 18.260,303.128 54.807,302.378 62.285 C 301.357 72.473,301.162 73.399,300.118 72.998 C 299.587 72.794,299.218 73.029,299.218 73.572 C 299.218 74.078,299.622 74.491,300.117 74.491 C 303.055 74.491,297.663 94.262,293.800 97.653 C 286.717 103.872,274.969 104.926,265.298 100.209 C 258.764 97.022,258.833 97.120,259.661 92.188 C 260.052 89.857,260.654 85.470,260.997 82.440 C 261.740 75.893,262.622 73.794,264.980 72.965 C 268.302 71.797,268.819 72.801,269.182 81.130 C 269.837 96.193,276.486 99.449,286.489 89.603 C 295.252 80.977,297.675 67.645,294.698 44.444 C 294.156 40.221,294.047 36.977,294.395 35.368 C 294.692 33.991,294.983 28.647,295.042 23.494 C 295.165 12.657,297.099 9.915,302.132 13.440 M205.477 16.880 C 211.315 17.671,221.751 18.345,234.663 18.767 C 258.929 19.560,282.680 21.765,285.461 23.483 C 287.176 24.544,285.574 24.732,281.221 23.981 C 278.479 23.508,266.840 22.874,254.460 22.523 C 242.410 22.182,226.635 21.454,219.405 20.905 C 212.175 20.357,200.485 19.791,193.427 19.649 C 181.194 19.402,180.585 19.332,180.394 18.142 C 179.947 15.360,190.375 14.835,205.477 16.880 M88.197 16.972 C 89.788 17.527,90.644 18.558,92.386 22.017 C 93.909 25.041,95.221 26.746,96.698 27.617 C 98.068 28.425,98.965 29.525,99.227 30.715 C 99.759 33.140,101.295 33.928,103.985 33.156 C 113.755 30.354,116.081 41.616,106.813 46.847 C 102.541 49.258,100.698 52.173,99.840 57.880 L 99.182 62.256 96.453 62.722 C 92.952 63.320,93.204 62.906,92.288 69.566 C 91.329 76.545,91.468 76.995,94.590 76.995 C 96.784 76.995,97.027 77.154,97.027 78.591 C 97.027 79.469,97.471 81.046,98.013 82.096 C 98.851 83.715,98.936 85.585,98.577 94.428 C 97.551 119.666,107.531 138.011,125.368 143.672 C 135.510 146.891,155.823 147.225,161.543 144.267 C 170.226 139.777,174.841 105.397,168.546 92.098 C 166.608 88.004,161.424 87.257,152.707 89.815 C 144.178 92.317,142.718 91.635,142.728 85.150 C 142.741 77.392,143.344 75.055,145.578 74.122 C 150.481 72.073,152.969 63.075,148.797 62.481 C 147.554 62.304,147.374 61.797,146.971 57.355 C 146.161 48.419,144.306 45.383,137.902 42.510 C 132.370 40.028,131.021 35.489,134.716 31.794 C 135.912 30.598,163.216 30.300,164.386 31.470 C 164.512 31.596,164.888 41.116,165.222 52.626 C 166.169 85.302,168.365 91.680,180.774 97.787 C 185.564 100.145,193.399 100.579,201.767 98.951 C 207.271 97.880,207.413 98.095,205.657 104.851 C 204.852 107.950,203.317 116.451,202.247 123.743 C 200.229 137.485,197.925 147.737,196.020 151.441 L 194.917 153.585 174.610 153.632 C 159.656 153.665,153.946 153.883,152.946 154.455 C 151.587 155.233,122.786 210.775,119.613 218.737 C 118.383 221.822,118.072 223.829,117.956 229.421 C 117.878 233.208,117.784 236.527,117.749 236.796 C 117.713 237.066,117.052 237.520,116.280 237.806 C 115.356 238.147,114.435 239.478,113.590 241.694 C 111.915 246.083,110.546 246.807,104.885 246.299 C 95.764 245.481,93.612 242.936,98.114 238.291 C 107.739 228.363,107.827 217.840,98.285 217.840 C 91.671 217.840,88.758 222.165,88.374 232.551 C 88.092 240.196,88.003 240.352,83.922 240.366 C 76.774 240.391,65.819 230.016,70.147 227.321 C 85.468 217.780,87.695 194.290,72.613 201.300 C 65.579 204.569,63.763 207.721,63.262 217.527 L 62.911 224.413 60.869 224.610 C 55.523 225.125,44.884 217.590,41.482 210.878 C 38.167 204.337,38.290 203.875,43.505 203.305 C 55.774 201.962,62.172 194.010,59.202 183.794 C 55.204 170.040,35.999 177.653,34.594 193.548 C 34.043 199.774,32.563 199.708,25.961 193.167 C 19.667 186.932,16.901 180.415,16.901 171.822 C 16.901 167.780,17.307 167.467,23.227 166.941 C 36.650 165.750,45.817 156.224,43.133 146.256 C 42.253 142.991,38.336 138.967,36.036 138.967 C 30.902 138.967,20.731 148.157,16.838 156.315 C 14.668 160.860,14.468 160.942,12.162 158.216 C 5.235 150.025,4.999 130.786,11.700 120.609 C 14.441 116.447,15.289 116.279,18.187 119.325 C 26.785 128.360,40.470 126.655,41.183 116.460 C 41.873 106.589,30.540 102.518,20.354 108.978 C 17.096 111.044,17.111 111.058,16.269 105.122 C 14.714 94.157,18.578 82.109,25.922 75.024 C 28.834 72.215,29.118 72.311,29.994 76.396 C 32.775 89.364,47.372 97.584,54.230 90.044 C 62.286 81.188,55.710 72.341,38.498 68.878 C 32.534 67.678,32.448 67.496,34.420 60.264 C 38.269 46.144,47.607 35.807,57.580 34.626 C 61.257 34.191,61.387 34.404,60.723 39.778 C 59.597 48.899,62.748 54.638,69.369 55.526 C 80.637 57.037,81.131 42.455,70.055 35.290 C 65.176 32.133,65.005 31.635,67.538 27.954 C 72.932 20.115,82.548 15.003,88.197 16.972 M145.227 21.806 C 145.227 22.968,145.982 24.413,146.589 24.413 C 147.460 24.413,146.939 21.743,146.009 21.437 C 145.579 21.295,145.227 21.461,145.227 21.806 M139.704 22.953 C 140.008 24.523,141.471 24.739,141.471 23.213 C 141.471 22.444,141.067 21.909,140.486 21.909 C 139.903 21.909,139.584 22.335,139.704 22.953 M152.739 22.796 C 152.739 23.341,153.185 23.787,153.730 23.787 C 154.275 23.787,154.609 23.453,154.473 23.044 C 154.086 21.883,152.739 21.691,152.739 22.796 M206.573 23.556 C 211.909 24.108,221.909 24.661,228.795 24.784 C 250.923 25.180,271.853 26.238,276.894 27.217 C 279.592 27.740,283.395 28.173,285.345 28.179 C 289.399 28.190,290.673 28.762,290.352 30.428 C 289.955 32.489,265.685 31.254,243.505 28.043 C 230.326 26.136,229.535 26.094,205.321 26.037 C 181.032 25.979,180.595 25.956,180.595 24.726 C 180.595 22.444,191.212 21.965,206.573 23.556 M319.502 25.908 C 319.094 26.972,319.642 28.169,320.538 28.169 C 321.327 28.169,321.293 25.842,320.496 25.349 C 320.150 25.135,319.702 25.387,319.502 25.908 M328.413 26.099 C 327.665 26.848,328.009 28.169,328.951 28.169 C 329.468 28.169,329.890 27.763,329.890 27.267 C 329.890 26.221,328.997 25.515,328.413 26.099 M313.086 27.263 C 313.205 27.876,313.681 28.504,314.144 28.659 C 314.683 28.838,314.909 28.537,314.770 27.823 C 314.651 27.210,314.175 26.582,313.712 26.427 C 313.173 26.248,312.947 26.549,313.086 27.263 M169.014 28.795 C 169.014 29.139,169.437 29.421,169.953 29.421 C 170.469 29.421,170.892 29.139,170.892 28.795 C 170.892 28.451,170.469 28.169,169.953 28.169 C 169.437 28.169,169.014 28.451,169.014 28.795 M224.931 30.116 C 244.521 31.904,243.758 32.280,219.438 32.829 C 197.136 33.332,181.905 33.131,181.097 32.323 C 178.658 29.884,206.837 28.465,224.931 30.116 M300.278 29.821 C 299.694 30.405,300.400 31.299,301.445 31.299 C 301.942 31.299,302.347 30.876,302.347 30.360 C 302.347 29.417,301.026 29.073,300.278 29.821 M117.684 35.874 C 117.684 38.576,119.139 40.815,119.791 39.116 C 120.285 37.828,119.126 33.803,118.261 33.803 C 117.944 33.803,117.684 34.735,117.684 35.874 M278.739 34.687 C 282.796 35.143,286.317 35.730,286.563 35.992 C 287.259 36.732,268.170 35.789,262.911 34.823 L 258.216 33.960 264.789 33.909 C 268.404 33.881,274.681 34.231,278.739 34.687 M122.396 35.653 C 121.798 36.620,122.671 38.922,123.527 38.636 C 124.473 38.321,124.477 35.545,123.532 35.230 C 123.133 35.097,122.622 35.288,122.396 35.653 M70.862 39.080 C 74.933 42.939,74.468 50.704,70.166 50.704 C 66.671 50.704,63.850 46.524,63.850 41.344 C 63.850 35.073,65.928 34.403,70.862 39.080 M251.330 37.001 C 255.806 37.344,263.271 38.192,267.919 38.885 C 272.567 39.577,279.682 40.158,283.732 40.175 C 292.375 40.210,291.523 39.378,292.735 48.971 C 294.953 66.533,292.544 77.715,284.749 86.049 C 276.772 94.575,271.749 91.866,272.455 79.417 C 272.848 72.483,272.735 72.613,278.332 72.613 C 285.421 72.613,288.860 68.641,286.291 63.420 C 284.038 58.842,282.800 58.547,265.189 58.392 C 247.823 58.239,248.870 58.507,245.576 53.369 C 241.413 46.874,235.300 45.835,228.587 50.483 C 222.312 54.826,217.414 55.575,194.599 55.675 C 184.739 55.718,184.992 55.575,184.386 61.420 C 183.788 67.180,185.166 68.857,190.950 69.412 C 196.629 69.956,197.482 73.904,193.270 80.153 C 187.418 88.838,180.951 83.307,180.917 69.588 C 180.912 67.407,180.315 63.323,179.591 60.511 C 178.079 54.639,178.067 38.898,179.573 37.390 C 181.065 35.896,233.246 35.613,251.330 37.001 M299.844 37.872 C 299.844 38.388,300.266 38.811,300.782 38.811 C 301.299 38.811,301.721 38.388,301.721 37.872 C 301.721 37.355,301.299 36.933,300.782 36.933 C 300.266 36.933,299.844 37.355,299.844 37.872 M169.934 39.468 C 169.339 40.430,170.154 41.051,170.957 40.248 C 171.407 39.798,171.417 39.448,170.990 39.184 C 170.639 38.967,170.164 39.095,169.934 39.468 M362.744 44.504 C 362.280 47.253,363.132 49.012,364.343 47.801 C 365.064 47.080,364.472 41.941,363.668 41.941 C 363.398 41.941,362.982 43.094,362.744 44.504 M367.849 44.879 C 367.016 45.712,367.441 48.826,368.388 48.826 C 369.010 48.826,369.327 48.204,369.327 46.985 C 369.327 45.148,368.607 44.121,367.849 44.879 M169.414 45.505 C 168.709 46.210,168.985 46.948,169.953 46.948 C 170.469 46.948,170.892 46.683,170.892 46.359 C 170.892 45.570,169.914 45.005,169.414 45.505 M137.764 47.120 C 143.027 50.666,145.312 60.604,141.225 62.172 C 139.877 62.690,104.214 62.858,103.394 62.351 C 102.084 61.542,102.497 55.463,103.990 53.564 C 109.113 47.052,131.363 42.806,137.764 47.120 M298.712 48.247 C 298.835 48.617,299.203 48.920,299.531 48.920 C 299.858 48.920,300.226 48.617,300.350 48.247 C 300.473 47.877,300.104 47.574,299.531 47.574 C 298.957 47.574,298.588 47.877,298.712 48.247 M127.700 48.723 C 127.700 49.885,128.455 51.330,129.062 51.330 C 129.932 51.330,129.412 48.660,128.482 48.354 C 128.052 48.212,127.700 48.378,127.700 48.723 M134.817 50.235 C 135.024 51.009,135.198 51.854,135.203 52.113 C 135.216 52.855,137.089 52.659,137.089 51.915 C 137.089 50.792,135.833 48.826,135.116 48.826 C 134.720 48.826,134.596 49.410,134.817 50.235 M120.556 49.989 C 120.012 50.869,120.849 52.675,121.673 52.400 C 122.600 52.091,122.585 49.938,121.654 49.628 C 121.255 49.495,120.761 49.657,120.556 49.989 M114.345 51.122 C 113.725 51.742,113.840 54.460,114.487 54.460 C 115.111 54.460,115.806 52.949,115.806 51.592 C 115.806 50.658,115.052 50.415,114.345 51.122 M239.503 52.525 C 244.149 54.635,245.740 60.900,246.147 78.694 C 246.384 89.032,246.898 88.598,234.525 88.500 C 220.669 88.390,219.153 87.248,219.963 77.532 C 221.504 59.055,229.984 48.202,239.503 52.525 M107.825 53.372 C 106.878 54.575,106.345 57.472,106.997 57.875 C 107.725 58.325,109.546 55.813,109.546 54.358 C 109.546 52.941,108.594 52.396,107.825 53.372 M171.211 55.076 C 170.750 55.823,171.336 56.964,172.181 56.964 C 172.943 56.964,172.948 55.270,172.187 54.800 C 171.867 54.602,171.428 54.726,171.211 55.076 M234.408 58.609 C 234.948 62.209,235.327 63.224,236.132 63.224 C 236.733 63.224,236.337 58.587,235.563 56.571 C 234.769 54.501,233.997 55.864,234.408 58.609 M297.966 56.338 C 297.966 56.682,298.388 56.964,298.905 56.964 C 299.421 56.964,299.844 56.682,299.844 56.338 C 299.844 55.994,299.421 55.712,298.905 55.712 C 298.388 55.712,297.966 55.994,297.966 56.338 M380.343 58.672 C 385.169 61.212,387.303 69.908,384.245 74.576 L 383.200 76.170 364.840 76.605 C 354.741 76.845,345.493 77.181,344.288 77.353 C 340.637 77.873,340.130 77.107,341.076 72.494 C 342.627 64.931,346.219 60.345,351.761 58.852 C 360.062 56.617,376.243 56.515,380.343 58.672 M220.496 59.202 C 220.694 59.400,220.282 61.264,219.579 63.344 L 218.302 67.125 214.159 66.749 C 211.880 66.542,205.368 66.191,199.687 65.968 C 188.273 65.521,187.793 65.359,187.793 61.947 C 187.793 60.633,188.143 59.431,188.576 59.257 C 189.673 58.814,220.056 58.762,220.496 59.202 M238.618 62.753 C 238.758 65.098,239.234 67.325,239.688 67.760 C 240.360 68.404,240.462 67.786,240.255 64.321 C 240.115 61.976,239.639 59.749,239.185 59.313 C 238.513 58.670,238.412 59.287,238.618 62.753 M199.687 60.617 C 199.687 61.778,200.442 63.224,201.049 63.224 C 201.920 63.224,201.400 60.554,200.469 60.247 C 200.039 60.106,199.687 60.272,199.687 60.617 M205.321 61.622 C 205.321 63.121,206.319 64.312,207.003 63.629 C 207.536 63.096,206.629 60.094,205.935 60.094 C 205.597 60.094,205.321 60.781,205.321 61.622 M352.555 61.851 C 349.976 64.260,348.730 68.874,349.690 72.457 C 350.276 74.641,351.020 74.128,351.506 71.205 C 351.977 68.367,353.112 65.816,355.100 63.127 C 357.351 60.083,355.461 59.136,352.555 61.851 M194.433 61.607 C 194.642 62.152,195.088 62.598,195.424 62.598 C 196.247 62.598,195.732 61.175,194.796 60.863 C 194.339 60.711,194.199 60.997,194.433 61.607 M370.768 61.756 C 370.493 62.474,371.076 63.358,372.666 64.634 C 374.199 65.864,374.961 66.991,374.961 68.032 C 374.961 70.114,376.321 69.598,376.941 67.281 C 378.210 62.535,372.448 57.378,370.768 61.756 M170.576 61.976 C 170.101 62.745,171.824 63.496,172.750 62.923 C 173.117 62.697,173.254 62.249,173.056 61.929 C 172.578 61.156,171.066 61.185,170.576 61.976 M281.398 62.867 C 283.131 64.002,283.450 66.382,282.057 67.775 C 281.154 68.678,252.063 69.846,250.019 69.061 C 248.901 68.632,248.821 63.501,249.922 62.798 C 252.614 61.078,278.755 61.135,281.398 62.867 M362.415 62.647 C 361.368 64.604,362.226 66.455,363.425 64.826 C 364.444 63.442,364.618 61.346,363.715 61.346 C 363.383 61.346,362.798 61.931,362.415 62.647 M260.407 64.439 C 260.407 65.585,261.452 66.769,261.989 66.233 C 262.419 65.803,261.537 63.224,260.960 63.224 C 260.656 63.224,260.407 63.771,260.407 64.439 M298.931 63.807 C 298.468 64.556,299.646 65.298,300.480 64.782 C 301.180 64.350,300.720 63.224,299.844 63.224 C 299.540 63.224,299.129 63.486,298.931 63.807 M266.137 64.821 C 266.256 65.435,266.733 66.063,267.196 66.217 C 267.735 66.397,267.960 66.096,267.822 65.382 C 267.703 64.769,267.227 64.140,266.763 63.986 C 266.225 63.807,265.999 64.108,266.137 64.821 M271.058 64.319 C 271.063 64.577,271.330 65.203,271.650 65.710 C 272.371 66.850,273.217 66.137,272.710 64.816 C 272.336 63.840,271.040 63.451,271.058 64.319 M225.209 64.912 C 224.706 65.895,225.960 84.739,226.569 85.348 C 227.753 86.532,227.950 84.037,227.432 74.440 C 226.966 65.800,226.274 62.833,225.209 64.912 M136.735 66.141 C 143.272 66.454,145.424 66.765,145.681 67.435 C 146.329 69.123,144.688 69.752,140.056 69.589 C 133.987 69.376,103.260 71.222,99.740 72.011 C 96.368 72.766,95.775 72.474,95.775 70.057 C 95.775 66.332,110.792 64.896,136.735 66.141 M172.578 68.632 C 172.078 69.132,172.644 70.110,173.433 70.110 C 173.757 70.110,174.022 69.687,174.022 69.171 C 174.022 68.203,173.283 67.927,172.578 68.632 M217.632 73.709 C 217.429 75.344,217.072 78.461,216.840 80.635 C 216.390 84.844,215.439 86.385,213.292 86.385 C 212.560 86.385,211.175 87.139,210.213 88.061 C 207.749 90.421,207.512 89.788,207.512 80.856 C 207.512 70.394,207.319 70.736,213.207 70.736 L 218.002 70.736 217.632 73.709 M45.530 72.840 C 52.901 76.652,51.970 87.637,44.275 87.637 C 38.866 87.637,30.407 75.963,32.897 71.934 C 33.549 70.880,43.057 71.561,45.530 72.840 M258.035 78.247 C 257.576 91.700,255.149 95.678,251.802 88.465 C 247.711 79.648,249.322 72.353,255.276 72.737 L 258.216 72.926 258.035 78.247 M139.383 74.221 C 140.661 77.550,136.115 80.113,128.857 80.156 C 125.982 80.173,119.405 80.566,114.241 81.028 C 103.588 81.982,103.912 82.041,103.912 79.149 C 103.912 76.054,105.703 74.509,109.390 74.420 C 111.025 74.381,116.025 74.147,120.501 73.900 C 135.545 73.071,138.964 73.129,139.383 74.221 M124.687 75.782 C 124.838 76.234,125.331 76.727,125.782 76.878 C 126.252 77.034,126.487 76.800,126.330 76.330 C 126.180 75.878,125.687 75.385,125.235 75.235 C 124.765 75.078,124.531 75.313,124.687 75.782 M130.829 75.667 C 130.829 76.467,132.670 77.867,133.125 77.413 C 133.579 76.958,132.179 75.117,131.379 75.117 C 131.077 75.117,130.829 75.365,130.829 75.667 M109.017 76.976 C 109.136 77.794,109.585 78.578,110.016 78.720 C 111.142 79.091,110.980 77.300,109.799 76.319 C 108.927 75.596,108.827 75.679,109.017 76.976 M115.180 76.606 C 115.180 77.768,116.838 79.109,117.317 78.334 C 117.873 77.435,117.047 75.743,116.052 75.743 C 115.572 75.743,115.180 76.131,115.180 76.606 M231.280 79.343 C 231.739 83.109,232.322 84.290,233.394 83.627 C 233.975 83.268,233.875 80.871,233.124 77.152 C 232.432 73.723,230.828 75.630,231.280 79.343 M239.124 79.154 C 239.124 81.180,239.412 82.153,240.090 82.413 C 241.503 82.955,241.653 82.537,241.136 79.509 C 240.482 75.677,239.124 75.437,239.124 79.154 M394.202 81.259 C 395.919 82.215,396.591 84.567,395.649 86.327 C 394.972 87.593,394.500 87.637,381.668 87.646 C 374.364 87.651,363.459 88.072,357.433 88.583 C 351.408 89.093,344.348 89.690,341.743 89.910 C 335.550 90.431,334.269 89.796,334.282 86.206 C 334.297 82.171,334.927 81.822,344.601 80.503 C 349.443 79.842,392.846 80.504,394.202 81.259 M198.586 86.024 C 198.937 90.387,199.324 91.396,200.269 90.412 C 201.129 89.516,200.156 82.469,199.125 82.127 C 198.413 81.891,198.313 82.615,198.586 86.024 M137.214 85.559 C 137.946 86.221,138.345 87.478,138.351 89.142 C 138.371 94.467,143.562 95.843,155.927 93.801 C 166.130 92.116,169.956 105.430,164.947 125.190 C 161.066 140.501,157.683 142.382,138.530 139.880 C 120.781 137.561,115.314 134.748,110.310 125.359 C 106.072 117.408,102.665 88.891,105.634 86.219 C 108.029 84.064,134.941 83.502,137.214 85.559 M262.413 90.610 C 262.648 95.992,263.788 95.886,264.035 90.460 C 264.189 87.073,264.052 86.385,263.224 86.385 C 262.393 86.385,262.258 87.086,262.413 90.610 M196.557 89.202 C 196.557 90.552,196.810 91.311,197.183 91.080 C 197.527 90.867,197.809 90.022,197.809 89.202 C 197.809 88.382,197.527 87.537,197.183 87.324 C 196.810 87.093,196.557 87.851,196.557 89.202 M294.366 87.793 C 294.510 88.224,295.003 88.576,295.462 88.576 C 295.921 88.576,296.414 88.224,296.557 87.793 C 296.712 87.328,296.268 87.011,295.462 87.011 C 294.655 87.011,294.211 87.328,294.366 87.793 M219.406 91.086 C 222.140 91.676,228.846 92.157,237.246 92.365 L 250.704 92.700 252.062 94.340 C 255.135 98.053,263.944 136.003,266.051 154.607 C 268.618 177.276,269.862 187.181,270.678 191.464 C 271.748 197.083,271.674 197.119,267.071 193.217 C 243.883 173.556,214.731 169.478,195.436 183.196 C 190.172 186.939,190.024 185.537,194.293 172.360 C 200.320 153.757,203.542 140.223,209.098 110.172 C 210.849 100.704,212.436 92.324,212.625 91.549 C 213.031 89.884,213.641 89.843,219.406 91.086 M267.394 91.830 C 266.644 93.231,266.997 95.149,268.005 95.149 C 268.966 95.149,269.370 93.289,268.724 91.841 L 268.116 90.480 267.394 91.830 M380.856 91.147 C 381.996 91.584,382.291 99.531,381.268 102.224 C 380.504 104.233,374.891 105.133,360.100 105.618 L 349.308 105.971 348.437 103.846 C 346.657 99.500,346.502 93.477,348.159 93.077 C 354.040 91.656,378.431 90.216,380.856 91.147 M292.958 92.332 C 292.958 92.976,293.368 93.284,294.053 93.152 C 295.373 92.897,295.289 91.787,293.930 91.503 C 293.363 91.385,292.958 91.730,292.958 92.332 M130.538 94.488 C 128.901 97.137,142.489 101.523,149.212 100.515 C 156.633 99.402,155.171 97.966,146.618 97.966 C 138.789 97.966,138.442 97.908,134.699 95.980 C 132.578 94.888,130.706 94.216,130.538 94.488 M215.131 96.181 C 214.950 96.818,214.608 98.607,214.370 100.156 C 214.133 101.706,212.983 107.320,211.816 112.633 C 209.531 123.029,208.369 133.531,209.635 132.351 C 210.029 131.983,210.750 129.307,211.236 126.404 C 211.722 123.502,212.837 117.942,213.715 114.050 C 215.752 105.013,216.844 96.406,216.054 95.616 C 215.680 95.242,215.339 95.451,215.131 96.181 M353.678 97.299 C 353.678 98.481,354.014 100.242,354.424 101.211 L 355.171 102.973 355.414 101.153 C 355.731 98.787,355.040 95.149,354.275 95.149 C 353.947 95.149,353.678 96.116,353.678 97.299 M110.718 97.809 C 107.753 104.836,113.325 124.678,119.695 129.777 C 122.743 132.216,126.864 133.237,131.258 132.641 C 137.291 131.822,136.268 129.972,129.432 129.336 C 122.371 128.680,120.052 126.566,116.429 117.483 C 114.148 111.765,112.676 104.700,112.676 99.475 C 112.676 95.339,112.002 94.766,110.718 97.809 M218.229 103.038 C 217.792 109.254,217.961 110.302,219.201 109.062 C 220.150 108.113,220.277 97.546,219.343 97.223 C 218.891 97.067,218.508 99.067,218.229 103.038 M359.937 98.472 C 359.937 99.267,360.340 100.464,360.832 101.132 C 362.072 102.818,362.926 100.778,361.911 98.552 C 361.032 96.623,359.937 96.579,359.937 98.472 M367.258 99.494 C 367.444 100.203,368.005 100.782,368.507 100.782 C 369.758 100.782,369.270 98.658,367.961 98.406 C 367.186 98.257,367.007 98.533,367.258 99.494 M224.726 102.571 C 224.726 106.463,225.655 108.233,226.316 105.600 C 226.884 103.336,226.392 99.347,225.509 99.057 C 224.941 98.871,224.726 99.835,224.726 102.571 M239.750 103.599 C 239.750 105.149,240.031 106.416,240.376 106.416 C 240.720 106.416,241.002 105.149,241.002 103.599 C 241.002 102.050,240.720 100.782,240.376 100.782 C 240.031 100.782,239.750 102.050,239.750 103.599 M243.291 102.817 C 243.680 104.901,244.499 106.257,245.041 105.716 C 245.683 105.073,244.562 100.782,243.752 100.782 C 243.142 100.782,243.015 101.342,243.291 102.817 M250.444 105.529 C 250.541 110.074,253.802 127.285,254.617 127.549 C 255.834 127.945,255.591 125.578,253.249 114.217 C 251.021 103.407,250.354 101.341,250.444 105.529 M152.526 104.375 C 152.301 104.739,153.605 105.143,155.707 105.360 C 159.111 105.711,160.225 105.556,159.501 104.832 C 158.827 104.158,152.901 103.770,152.526 104.375 M34.429 109.546 C 37.156 112.273,35.296 119.598,31.565 120.829 C 26.978 122.343,16.454 115.796,18.840 112.913 C 21.925 109.186,31.912 107.029,34.429 109.546 M154.408 118.101 C 153.513 118.996,154.081 119.300,156.187 119.054 C 157.396 118.913,158.539 118.547,158.728 118.241 C 159.123 117.601,155.040 117.469,154.408 118.101 M224.100 126.117 C 224.100 127.775,227.376 133.438,227.983 132.830 C 228.883 131.931,226.223 125.822,224.932 125.822 C 224.475 125.822,224.100 125.954,224.100 126.117 M148.357 128.028 C 148.357 128.806,151.957 129.629,153.828 129.278 C 157.176 128.649,156.144 127.700,152.113 127.700 C 150.047 127.700,148.357 127.847,148.357 128.028 M221.596 130.145 C 221.596 130.842,222.071 132.408,222.651 133.625 C 224.494 137.490,225.554 135.900,223.851 131.825 C 222.782 129.266,221.596 128.383,221.596 130.145 M143.975 134.570 C 143.975 136.760,154.964 136.985,155.689 134.810 C 155.842 134.352,153.963 134.130,149.945 134.130 C 146.662 134.130,143.975 134.328,143.975 134.570 M36.182 144.100 C 38.341 146.259,35.577 155.888,31.612 160.022 C 26.954 164.877,17.527 165.166,17.527 160.454 C 17.527 153.223,32.329 140.247,36.182 144.100 M241.487 144.831 C 240.286 146.032,238.847 149.540,239.349 150.042 C 240.031 150.724,242.165 148.306,242.591 146.369 C 243.084 144.121,242.714 143.604,241.487 144.831 M246.680 150.430 C 245.631 153.189,245.631 155.520,246.681 155.725 C 247.665 155.918,249.420 150.570,248.736 149.463 C 248.170 148.547,247.227 148.990,246.680 150.430 M193.334 158.444 C 195.088 163.388,188.784 164.202,162.617 162.410 C 156.068 161.961,156.503 161.567,152.163 171.880 C 150.146 176.673,145.046 187.637,140.830 196.244 C 130.415 217.506,130.415 217.500,142.723 215.362 C 147.159 214.591,168.095 214.834,168.927 215.666 C 169.095 215.835,168.972 217.026,168.654 218.315 L 168.075 220.657 149.609 220.839 C 123.710 221.093,124.524 221.425,127.696 211.905 C 130.309 204.062,151.614 162.271,155.008 158.333 C 156.006 157.174,192.921 157.282,193.334 158.444 M202.584 161.575 C 198.968 174.500,198.081 178.966,199.392 177.655 C 200.234 176.813,204.594 159.274,204.088 158.767 C 203.757 158.436,203.140 159.588,202.584 161.575 M263.367 160.629 C 261.858 162.138,264.121 182.369,266.012 184.259 C 266.902 185.149,266.881 184.727,265.399 172.042 C 263.980 159.894,263.998 159.997,263.367 160.629 M302.034 164.689 C 308.576 165.087,314.496 165.627,315.189 165.890 C 317.299 166.688,329.210 209.113,329.310 216.187 C 329.335 217.957,329.566 220.884,329.824 222.692 L 330.292 225.978 323.675 225.961 C 313.833 225.934,287.746 224.849,286.626 224.419 C 286.090 224.213,285.190 223.078,284.626 221.895 C 283.185 218.872,283.717 218.710,296.714 218.231 C 319.401 217.394,321.758 217.165,322.691 215.711 C 324.098 213.520,316.445 176.948,313.602 172.273 C 311.096 168.152,311.047 168.143,290.353 168.107 C 271.284 168.075,270.482 167.981,270.432 165.772 C 270.381 163.491,278.025 163.229,302.034 164.689 M176.736 166.307 C 186.384 166.575,190.488 166.904,190.689 167.428 C 190.970 168.162,186.673 184.535,184.932 189.358 C 184.435 190.736,182.478 193.684,180.584 195.909 C 178.689 198.135,175.854 202.446,174.282 205.489 C 170.795 212.240,170.134 212.603,163.067 211.649 C 158.355 211.013,149.147 211.380,140.035 212.567 L 137.034 212.958 137.440 211.174 C 138.281 207.484,157.850 166.637,159.219 165.713 C 159.614 165.447,160.642 165.386,161.502 165.578 C 162.363 165.770,169.218 166.098,176.736 166.307 M221.596 167.449 C 221.596 168.310,221.878 169.014,222.222 169.014 C 222.567 169.014,222.848 168.310,222.848 167.449 C 222.848 166.588,222.567 165.884,222.222 165.884 C 221.878 165.884,221.596 166.588,221.596 167.449 M212.207 169.014 C 212.207 170.391,212.488 171.518,212.833 171.518 C 213.177 171.518,213.459 170.391,213.459 169.014 C 213.459 167.637,213.177 166.510,212.833 166.510 C 212.488 166.510,212.207 167.637,212.207 169.014 M206.448 167.480 C 205.655 168.813,205.282 172.046,205.879 172.415 C 206.234 172.635,206.687 171.856,206.917 170.630 C 207.344 168.357,207.060 166.451,206.448 167.480 M252.269 171.555 C 252.269 173.507,252.509 174.573,252.895 174.335 C 253.239 174.122,253.521 172.697,253.521 171.168 C 253.521 169.639,253.239 168.388,252.895 168.388 C 252.551 168.388,252.269 169.813,252.269 171.555 M257.277 174.022 C 257.277 176.109,257.555 177.778,257.903 177.778 C 258.251 177.778,258.529 176.109,258.529 174.022 C 258.529 171.935,258.251 170.266,257.903 170.266 C 257.555 170.266,257.277 171.935,257.277 174.022 M292.776 171.276 C 312.586 171.803,311.166 170.447,315.740 193.198 C 320.165 215.211,321.265 213.459,302.272 214.655 C 280.920 216.000,279.643 215.095,276.052 196.082 C 275.353 192.384,273.982 185.210,273.004 180.141 C 271.025 169.879,271.002 170.028,274.490 170.510 C 275.868 170.701,284.096 171.045,292.776 171.276 M180.698 173.667 C 179.685 176.306,179.512 182.160,180.447 182.160 C 181.656 182.160,181.986 181.268,182.518 176.568 C 182.938 172.856,181.741 170.948,180.698 173.667 M174.708 174.888 C 173.819 175.960,174.035 181.278,174.961 181.101 C 175.900 180.922,176.878 175.376,176.107 174.604 C 175.677 174.174,175.224 174.266,174.708 174.888 M276.069 175.250 C 274.839 177.548,277.408 186.651,278.872 185.186 C 279.275 184.783,277.625 174.756,277.064 174.195 C 276.910 174.041,276.462 174.516,276.069 175.250 M280.856 174.439 C 280.050 175.245,280.440 179.504,281.392 180.294 C 282.797 181.460,283.053 180.796,282.580 177.225 C 282.174 174.164,281.775 173.520,280.856 174.439 M155.243 179.860 C 155.243 181.010,157.915 183.412,159.195 183.412 C 160.778 183.412,160.466 181.794,158.601 180.327 C 156.720 178.847,155.243 178.642,155.243 179.860 M228.211 180.940 C 245.431 183.990,267.276 198.393,275.131 211.875 C 284.176 227.401,281.771 256.533,270.206 271.545 C 256.019 289.959,227.686 295.624,205.659 284.450 C 174.608 268.698,164.198 241.764,177.736 212.207 C 179.392 208.592,181.255 204.226,181.877 202.506 C 186.621 189.375,211.212 177.929,228.211 180.940 M52.246 182.393 C 58.963 189.109,53.395 199.467,42.913 199.756 C 37.600 199.902,36.787 199.203,36.842 194.541 C 36.959 184.738,46.817 176.964,52.246 182.393 M299.597 183.776 C 298.868 185.677,299.179 189.045,300.083 189.045 C 301.033 189.045,301.700 187.187,301.713 184.507 C 301.722 182.621,300.238 182.108,299.597 183.776 M305.200 185.429 C 303.985 187.164,303.940 189.907,305.111 190.879 C 305.879 191.517,307.981 186.780,307.981 184.411 C 307.981 183.479,306.078 184.176,305.200 185.429 M152.739 185.588 C 152.739 186.853,155.458 188.538,156.719 188.054 C 158.235 187.472,157.968 186.217,156.152 185.390 C 153.989 184.404,152.739 184.477,152.739 185.588 M218.070 190.104 C 214.224 190.857,209.614 196.848,209.548 201.177 C 209.367 213.137,227.487 213.491,231.050 201.597 C 233.364 193.874,227.105 188.333,218.070 190.104 M226.740 194.628 C 232.140 200.671,223.411 209.486,215.882 205.592 C 213.701 204.464,212.100 201.203,212.648 199.003 C 214.239 192.613,222.616 190.012,226.740 194.628 M167.880 195.807 C 166.780 197.733,166.085 205.947,167.021 205.947 C 168.062 205.947,169.102 201.312,168.889 197.624 C 168.714 194.584,168.646 194.463,167.880 195.807 M243.442 197.988 C 236.088 202.937,241.236 216.047,250.178 215.141 C 255.245 214.627,258.791 210.300,258.825 204.589 C 258.863 198.011,249.425 193.962,243.442 197.988 M282.320 199.531 C 282.324 203.276,283.289 206.814,284.603 207.905 C 285.513 208.659,285.584 208.521,285.290 206.564 C 283.884 197.212,282.313 193.491,282.320 199.531 M253.521 200.902 C 257.462 203.672,254.583 211.581,249.633 211.581 C 243.008 211.581,240.110 201.018,246.322 199.513 C 248.316 199.030,251.821 199.706,253.521 200.902 M289.202 203.036 C 289.202 205.419,290.501 208.451,291.522 208.451 C 292.229 208.451,292.364 208.038,292.056 206.813 C 291.830 205.912,291.483 204.363,291.284 203.370 C 290.851 201.201,289.202 200.937,289.202 203.036 M159.292 202.849 C 158.744 203.734,158.637 207.672,159.146 208.181 C 160.013 209.048,160.876 207.619,160.876 205.321 C 160.876 202.867,160.064 201.599,159.292 202.849 M296.088 203.797 C 296.088 205.657,297.110 207.825,297.988 207.825 C 298.812 207.825,298.748 205.723,297.865 203.785 C 296.932 201.738,296.088 201.743,296.088 203.797 M193.114 204.720 C 184.582 207.282,182.019 217.457,188.634 222.503 C 195.752 227.932,208.965 217.434,204.658 209.771 C 202.525 205.976,196.994 203.556,193.114 204.720 M77.054 206.631 C 79.534 209.111,76.442 217.311,71.381 221.675 C 67.278 225.213,66.091 224.831,65.855 219.894 C 65.519 212.851,67.524 208.655,72.251 206.508 C 75.458 205.052,75.475 205.052,77.054 206.631 M197.986 208.051 C 203.104 210.218,203.605 214.283,199.169 217.657 C 194.220 221.422,188.419 220.134,188.419 215.270 C 188.419 209.435,193.031 205.954,197.986 208.051 M258.945 221.590 C 251.955 227.727,257.426 241.628,266.830 241.628 C 274.827 241.628,278.480 227.559,272.029 221.606 C 269.145 218.946,261.966 218.937,258.945 221.590 M219.200 221.139 C 210.174 224.027,204.982 239.057,209.829 248.268 C 219.949 267.498,247.813 260.168,247.880 238.257 C 247.916 226.366,232.193 216.981,219.200 221.139 M124.097 223.300 C 125.131 224.236,127.534 224.444,142.300 224.878 C 151.656 225.154,160.720 225.586,162.441 225.839 L 165.571 226.300 165.952 236.311 C 166.607 253.559,170.801 263.687,182.338 275.880 C 185.040 278.736,184.342 278.852,168.467 278.188 C 161.021 277.876,147.324 277.621,138.028 277.621 L 121.127 277.621 121.127 254.773 C 121.127 233.716,121.626 222.222,122.539 222.222 C 122.741 222.222,123.442 222.707,124.097 223.300 M269.126 223.138 C 273.321 225.307,272.325 235.934,267.779 237.510 C 262.909 239.199,256.461 229.688,259.605 225.452 C 261.954 222.288,265.714 221.374,269.126 223.138 M99.859 224.347 C 102.203 226.061,96.960 237.014,93.228 238.198 C 90.411 239.092,89.670 231.765,92.193 227.954 C 94.495 224.474,97.865 222.889,99.859 224.347 M234.642 226.093 C 245.463 231.283,244.072 247.484,232.289 253.495 C 223.281 258.091,212.211 249.502,211.991 237.746 C 211.792 227.142,223.870 220.928,234.642 226.093 M126.252 227.634 C 125.305 228.581,125.768 241.628,126.749 241.628 C 128.062 241.628,128.408 239.624,128.197 233.227 C 128.027 228.098,127.450 226.437,126.252 227.634 M132.508 228.890 C 131.979 229.419,131.947 233.662,132.461 235.004 C 133.207 236.947,133.959 235.945,133.950 233.020 C 133.940 230.000,133.282 228.116,132.508 228.890 M309.717 229.622 C 326.692 230.074,328.129 230.199,329.243 231.330 C 330.480 232.586,332.166 277.481,331.134 281.690 C 330.344 284.914,327.915 285.155,305.049 284.282 C 286.457 283.572,277.166 283.636,267.356 284.541 L 263.977 284.853 270.230 278.733 C 280.494 268.687,286.698 253.188,286.698 237.591 C 286.698 229.189,287.161 228.112,290.430 228.901 C 290.960 229.029,299.639 229.353,309.717 229.622 M140.619 230.168 C 139.786 231.001,140.211 234.116,141.158 234.116 C 141.780 234.116,142.097 233.494,142.097 232.275 C 142.097 230.437,141.377 229.411,140.619 230.168 M187.501 233.571 C 177.191 235.986,178.158 252.883,188.607 252.893 C 193.640 252.898,199.687 247.229,199.687 242.506 C 199.687 239.625,196.754 235.397,193.837 234.072 C 190.940 232.757,190.969 232.759,187.501 233.571 M317.084 234.033 C 316.644 235.421,317.693 238.498,318.607 238.498 C 318.960 238.498,319.249 237.676,319.249 236.671 C 319.249 233.264,317.864 231.576,317.084 234.033 M292.578 234.376 C 292.036 235.789,292.572 238.690,293.427 238.971 C 293.977 239.151,294.210 238.374,294.210 236.359 C 294.210 233.615,293.296 232.505,292.578 234.376 M298.083 236.085 C 298.191 237.584,298.560 238.740,298.905 238.654 C 299.846 238.419,299.672 233.954,298.709 233.633 C 298.096 233.429,297.937 234.052,298.083 236.085 M322.806 233.897 C 322.252 234.451,322.318 245.574,322.895 248.826 C 323.465 252.042,325.107 252.259,325.402 249.157 C 325.891 244.010,323.973 232.730,322.806 233.897 M193.276 236.620 C 193.932 236.620,195.927 241.028,195.929 242.484 C 195.935 247.339,188.464 250.953,185.326 247.613 C 180.770 242.763,185.061 234.399,191.232 236.102 C 192.263 236.387,193.182 236.620,193.276 236.620 M258.332 250.402 C 251.635 252.412,248.017 260.160,251.023 266.053 C 254.152 272.185,263.463 272.092,267.961 265.883 C 273.786 257.841,267.456 247.663,258.332 250.402 M265.130 254.432 C 267.527 256.828,267.299 260.987,264.611 263.921 C 260.177 268.759,253.521 266.984,253.521 260.964 C 253.521 254.650,261.090 250.391,265.130 254.432 M127.754 255.646 C 126.730 256.881,127.099 269.912,128.169 270.267 C 128.767 270.466,128.951 268.673,128.951 262.650 C 128.951 254.408,128.922 254.238,127.754 255.646 M198.748 260.039 C 190.632 263.646,192.698 275.864,201.770 277.910 C 212.667 280.368,219.428 265.233,209.658 260.251 C 207.097 258.945,201.456 258.835,198.748 260.039 M133.019 262.916 C 132.527 264.465,133.210 267.919,134.009 267.919 C 134.764 267.919,134.759 262.466,134.004 262.000 C 133.685 261.802,133.241 262.214,133.019 262.916 M209.029 263.279 C 213.323 266.893,209.873 274.178,203.867 274.178 C 199.211 274.178,195.707 268.716,197.825 264.759 C 199.596 261.450,205.870 260.621,209.029 263.279 M140.021 263.318 C 139.786 263.553,139.593 264.849,139.593 266.197 C 139.593 269.239,141.060 269.133,141.360 266.069 C 141.562 264.008,140.831 262.507,140.021 263.318 M325.849 264.319 C 325.294 266.084,324.843 275.366,325.236 276.935 C 325.808 279.213,327.714 278.885,327.660 276.517 C 327.639 275.575,327.568 272.269,327.504 269.171 C 327.399 264.142,326.622 261.863,325.849 264.319 M166.851 265.369 C 166.457 266.007,167.520 272.603,168.200 273.739 C 169.314 275.600,170.041 272.665,169.279 269.387 C 168.402 265.617,167.560 264.222,166.851 265.369 M161.502 266.868 C 161.502 268.684,163.562 273.596,164.232 273.376 C 165.390 272.995,165.416 270.632,164.288 268.255 C 163.263 266.094,161.502 265.217,161.502 266.868 M231.385 266.937 C 226.107 268.863,222.650 274.592,224.015 279.149 C 227.201 289.783,243.505 286.143,243.505 274.798 C 243.505 268.493,237.606 264.667,231.385 266.937 M238.282 270.092 C 240.159 271.406,240.478 274.034,239.133 277.099 C 236.496 283.109,229.320 283.661,227.349 278.007 C 225.508 272.724,233.637 266.838,238.282 270.092 M283.359 269.588 C 282.203 270.744,282.930 278.560,284.194 278.560 C 285.255 278.560,285.446 278.143,285.446 275.822 C 285.446 270.845,284.608 268.340,283.359 269.588 M173.396 273.828 C 173.396 275.327,174.394 276.519,175.078 275.835 C 175.611 275.302,174.704 272.300,174.010 272.300 C 173.672 272.300,173.396 272.988,173.396 273.828 M290.337 272.965 C 289.814 274.533,290.622 278.560,291.459 278.560 C 292.089 278.560,292.332 277.690,292.332 275.430 C 292.332 272.514,291.025 270.899,290.337 272.965 M317.611 275.082 C 317.108 276.391,317.895 280.438,318.651 280.438 C 319.451 280.438,319.421 274.985,318.618 274.489 C 318.272 274.274,317.818 274.542,317.611 275.082 M312.485 277.778 C 312.590 279.413,312.958 280.751,313.302 280.751 C 313.646 280.751,314.014 279.413,314.119 277.778 C 314.272 275.383,314.113 274.804,313.302 274.804 C 312.491 274.804,312.332 275.383,312.485 277.778 M275.837 277.602 C 275.414 278.705,276.590 281.690,277.447 281.690 C 278.258 281.690,277.758 277.137,276.916 276.861 C 276.528 276.734,276.043 277.067,275.837 277.602 M120.304 280.965 C 121.798 281.245,124.989 281.255,127.394 280.988 C 133.642 280.295,144.813 280.337,154.617 281.091 C 159.264 281.449,169.124 281.965,176.526 282.239 C 191.523 282.792,190.027 282.397,201.086 288.725 L 205.927 291.495 192.635 291.268 C 185.324 291.143,175.182 290.768,170.097 290.434 C 165.011 290.101,155.857 289.820,149.752 289.811 C 120.748 289.766,112.297 287.813,113.570 281.447 C 114.182 278.386,115.238 277.556,116.514 279.132 C 117.121 279.882,118.767 280.678,120.304 280.965 M338.754 283.082 C 341.920 287.529,340.002 291.994,334.080 293.960 C 330.814 295.046,265.628 294.828,250.391 293.681 C 240.456 292.933,252.443 289.044,264.476 289.111 C 268.263 289.132,276.269 288.691,282.267 288.131 C 291.606 287.259,294.932 287.219,305.428 287.849 C 332.671 289.486,335.010 289.146,335.933 283.412 C 336.395 280.540,336.901 280.481,338.754 283.082 " stroke="none" fill="#472109" fill-rule="evenodd"></path></g></svg>