<svg id="svg" xmlns="http://www.w3.org/2000/svg" xmlns:xlink="http://www.w3.org/1999/xlink" width="400" height="411.1111111111111" viewBox="0, 0, 400,411.1111111111111"><g id="svgg"><path id="path0" d="M196.667 2.904 C 103.271 14.166,24.642 76.987,7.147 154.321 C -3.471 201.252,4.851 279.217,23.017 303.016 L 26.595 307.703 21.111 324.129 C 6.054 369.236,2.219 396.834,9.936 404.552 C 18.929 413.544,46.748 406.843,90.000 385.267 L 99.444 380.556 111.111 386.360 C 166.519 413.927,264.112 404.087,315.278 365.774 C 317.891 363.817,318.889 362.185,318.889 359.868 C 318.889 355.924,316.963 355.654,316.007 359.464 C 315.621 361.003,314.736 362.174,314.041 362.067 C 312.167 361.777,309.213 363.162,300.331 368.491 C 244.301 402.107,148.369 405.625,103.868 375.696 L 100.513 373.440 89.925 378.867 C 52.816 397.886,18.925 407.440,13.573 400.391 C 8.865 394.188,14.868 360.728,27.160 324.664 C 33.635 305.666,34.341 302.222,31.765 302.222 C 15.044 302.222,2.212 208.101,12.221 158.867 C 24.824 96.874,81.663 39.990,153.216 17.760 C 254.284 -13.639,345.251 32.499,382.176 133.889 C 386.118 144.715,387.971 146.755,391.091 143.711 C 393.694 141.171,375.241 101.355,362.952 82.997 C 324.665 25.802,261.016 -4.855,196.667 2.904 M173.589 24.311 C 163.105 26.177,164.970 31.532,175.556 29.959 C 183.236 28.818,207.076 28.739,216.812 29.823 C 226.252 30.874,231.368 27.746,224.722 24.986 C 221.989 23.851,179.338 23.288,173.589 24.311 M136.667 32.295 C 88.503 49.022,48.944 87.406,31.120 134.705 C 25.995 148.305,25.463 152.563,28.957 152.022 C 30.700 151.752,31.873 149.808,33.868 143.889 C 50.525 94.461,88.374 56.041,137.778 38.411 C 148.246 34.676,150.556 33.453,150.556 31.648 C 150.556 28.415,147.417 28.561,136.667 32.295 M190.917 49.473 C 124.540 58.527,65.758 106.619,51.122 163.845 C 42.689 196.818,48.439 259.232,61.728 278.980 L 65.629 284.777 61.175 298.222 C 38.503 366.663,48.394 376.632,110.087 347.517 L 122.952 341.445 130.643 345.322 C 149.764 354.962,182.222 361.043,182.222 354.985 C 182.222 352.688,181.561 352.273,176.944 351.679 C 156.351 349.028,138.799 343.950,128.591 337.689 L 123.293 334.440 114.702 338.752 C 85.072 353.622,62.469 360.247,57.684 355.462 C 53.228 351.006,58.050 323.369,68.233 295.000 C 72.984 281.764,73.004 281.490,69.408 278.661 C 53.817 266.398,47.703 190.984,59.460 155.959 C 81.128 91.410,166.326 43.213,236.111 56.026 C 317.356 70.943,367.650 162.624,340.387 246.111 C 318.456 313.270,271.344 348.255,198.001 351.848 C 183.833 352.542,183.238 352.668,183.557 354.897 C 184.562 361.933,233.737 355.989,260.235 345.629 C 331.830 317.637,372.078 224.361,345.456 148.124 C 321.360 79.121,260.127 40.032,190.917 49.473 M195.833 74.479 C 193.220 75.530,192.816 76.472,194.184 78.333 C 194.676 79.003,203.599 79.475,216.667 79.521 C 263.520 79.687,296.080 96.843,312.890 130.223 C 316.832 138.050,320.155 140.035,320.868 134.989 C 322.222 125.401,297.733 97.693,278.811 87.404 C 258.090 76.137,210.248 68.685,195.833 74.479 M119.993 120.972 C 102.415 126.739,92.093 150.325,96.644 174.324 C 104.916 217.941,176.950 286.450,228.198 299.440 C 270.952 310.277,308.528 285.002,293.885 255.256 C 280.533 228.133,255.815 223.817,229.382 243.994 C 222.368 249.348,214.892 247.193,194.325 233.888 C 190.075 231.138,185.897 228.889,185.040 228.889 C 184.184 228.889,183.166 227.889,182.778 226.667 C 182.390 225.444,181.606 224.444,181.036 224.444 C 180.466 224.444,180.000 225.444,180.000 226.667 C 180.000 227.889,179.428 228.889,178.729 228.889 C 172.976 228.889,207.862 249.459,219.210 252.757 L 225.548 254.600 230.274 250.768 C 255.048 230.679,276.366 233.081,288.223 257.296 C 300.750 282.879,264.123 304.822,227.808 293.488 C 180.322 278.668,117.411 221.275,104.540 181.033 C 101.663 172.038,99.731 155.552,101.328 153.628 C 101.957 152.870,102.187 151.510,101.839 150.605 C 101.492 149.700,101.672 148.673,102.239 148.323 C 102.806 147.972,104.266 145.434,105.483 142.683 C 114.697 121.854,135.478 120.396,153.024 139.348 C 166.122 153.495,166.764 167.256,155.043 182.623 C 149.622 189.730,152.734 202.307,162.779 213.889 L 166.634 218.333 166.650 214.775 C 166.660 212.744,164.759 207.594,162.222 202.778 C 156.804 192.490,156.733 190.354,161.574 183.316 C 169.932 171.166,171.303 155.685,164.982 144.840 C 155.204 128.062,133.491 116.543,119.993 120.972 M116.326 134.207 C 109.687 141.543,107.225 158.339,110.453 174.270 C 113.020 186.938,116.471 195.556,118.978 195.556 C 122.283 195.556,122.380 193.885,119.574 185.290 C 113.371 166.287,113.209 152.828,119.043 141.153 C 123.093 133.048,121.367 128.636,116.326 134.207 M131.280 136.539 C 128.384 138.374,130.343 141.594,134.796 142.318 C 137.583 142.771,140.472 144.429,143.317 147.206 C 149.335 153.083,153.864 151.091,149.300 144.576 C 145.172 138.682,135.033 134.160,131.280 136.539 M387.778 148.889 C 387.778 150.722,388.307 152.222,388.954 152.222 C 389.602 152.222,389.858 152.665,389.524 153.205 C 389.189 153.746,389.708 160.121,390.675 167.372 C 398.489 225.932,377.238 294.794,338.087 337.778 C 334.469 341.750,331.185 345.875,330.789 346.944 C 330.394 348.014,329.429 348.906,328.646 348.926 C 324.880 349.024,318.703 360.000,322.415 360.000 C 322.920 360.000,323.338 359.375,323.343 358.611 C 323.349 357.847,324.849 356.041,326.677 354.597 C 328.505 353.153,330.000 351.278,330.000 350.430 C 330.000 349.583,330.500 348.889,331.111 348.889 C 331.722 348.889,332.228 349.514,332.236 350.278 C 332.267 353.340,350.507 332.453,358.939 319.702 C 387.975 275.789,402.048 225.602,397.975 180.499 C 396.670 166.058,395.394 160.163,393.292 158.863 C 392.734 158.519,392.128 156.009,391.945 153.285 C 391.439 145.743,387.778 141.882,387.778 148.889 M322.870 155.407 C 322.542 155.936,323.586 161.311,325.188 167.351 C 327.685 176.762,328.131 180.878,328.306 196.111 C 328.497 212.800,328.640 213.889,330.633 213.889 C 336.228 213.889,335.476 181.566,329.385 160.278 C 327.783 154.681,324.729 152.398,322.870 155.407 M146.944 200.812 C 146.181 201.078,145.556 202.040,145.556 202.948 C 145.556 205.923,157.624 222.055,157.889 219.433 C 157.949 218.828,158.384 219.583,158.855 221.111 C 159.563 223.410,159.713 223.087,159.725 219.236 C 159.735 216.208,159.183 214.369,158.146 213.971 C 157.259 213.630,156.853 213.847,157.230 214.457 C 157.603 215.061,157.321 215.556,156.603 215.556 C 155.830 215.556,155.541 214.619,155.896 213.264 C 156.983 209.108,150.202 199.675,146.944 200.812 M168.454 216.918 C 168.581 218.745,169.105 220.565,169.620 220.962 C 170.134 221.359,172.126 223.096,174.045 224.822 C 176.582 227.104,177.766 227.585,178.383 226.586 C 178.929 225.702,178.775 225.495,177.949 226.005 C 177.081 226.542,176.655 225.611,176.631 223.121 C 176.599 219.766,176.462 219.621,175.071 221.455 C 174.193 222.614,173.258 222.999,172.866 222.365 C 172.492 221.760,172.694 220.951,173.315 220.567 C 175.121 219.451,174.655 218.351,171.334 215.896 L 168.224 213.597 168.454 216.918 M163.333 223.641 C 163.333 229.668,187.731 250.116,192.663 248.224 C 196.036 246.929,194.464 243.864,188.611 240.324 C 185.403 238.384,179.778 234.294,176.111 231.236 C 171.489 227.381,169.334 226.168,169.085 227.282 C 168.444 230.149,166.667 228.980,166.667 225.692 C 166.667 223.933,165.917 221.872,165.000 221.111 C 163.572 219.926,163.333 220.289,163.333 223.641 M251.483 243.055 C 244.874 245.597,231.737 254.644,231.309 256.948 C 230.615 260.683,234.253 260.148,241.038 255.517 C 249.491 249.746,257.424 246.667,263.835 246.667 C 269.069 246.667,270.424 245.732,269.329 242.878 C 268.422 240.514,257.814 240.620,251.483 243.055 M198.151 250.630 C 197.337 252.750,198.123 253.465,204.107 256.048 C 212.556 259.696,215.851 254.872,207.500 251.081 C 201.738 248.466,199.032 248.335,198.151 250.630 M273.893 249.993 C 272.919 251.569,281.299 261.238,283.304 260.852 C 286.246 260.285,285.777 256.996,282.168 252.886 C 278.745 248.987,275.267 247.771,273.893 249.993 M367.213 261.126 C 366.830 261.746,365.578 265.640,364.431 269.780 C 359.897 286.139,351.805 299.538,335.435 317.792 C 329.942 323.917,325.752 329.419,326.123 330.019 C 331.412 338.577,364.619 293.936,370.613 270.212 C 372.578 262.434,370.250 256.213,367.213 261.126 M34.693 312.500 C 33.116 314.432,24.444 345.371,24.444 349.069 C 24.444 350.731,23.944 352.400,23.333 352.778 C 22.722 353.155,22.222 354.246,22.222 355.202 C 22.222 356.542,22.568 356.652,23.737 355.682 C 24.965 354.662,25.147 354.970,24.699 357.315 C 24.308 359.357,23.882 359.777,23.245 358.745 C 21.765 356.351,21.194 357.977,19.462 369.513 C 18.028 379.066,18.021 380.719,19.405 382.104 C 22.041 384.739,24.055 381.830,24.909 374.158 C 27.032 355.062,27.237 351.007,26.143 349.752 C 25.413 348.914,25.667 348.942,26.846 349.830 C 29.208 351.609,29.140 351.752,33.156 336.667 C 35.027 329.639,37.336 321.693,38.285 319.010 C 40.441 312.920,37.985 308.469,34.693 312.500 M115.680 321.707 C 102.259 325.426,88.107 335.129,91.314 338.413 C 93.081 340.222,93.480 340.138,98.537 336.894 C 115.110 326.265,124.414 324.862,135.315 331.350 C 139.129 333.620,144.366 336.047,146.952 336.744 C 149.538 337.440,153.512 338.957,155.783 340.116 C 161.166 342.862,162.041 342.778,162.881 339.430 C 163.823 335.676,161.970 333.755,156.578 332.892 C 154.107 332.497,147.147 329.696,141.111 326.667 C 128.405 320.290,123.938 319.419,115.680 321.707 M309.444 337.919 C 258.977 376.623,190.706 388.527,128.333 369.497 C 120.480 367.101,118.658 367.247,119.089 370.237 C 120.593 380.652,190.156 387.673,226.588 381.086 C 260.409 374.971,316.111 348.008,316.111 337.752 C 316.111 334.029,314.463 334.070,309.444 337.919 M46.667 385.754 C 38.328 388.794,29.808 389.548,24.308 387.733 C 18.953 385.966,16.518 387.878,19.677 391.368 C 24.777 397.004,44.535 395.292,55.224 388.289 C 61.688 384.053,55.974 382.361,46.667 385.754 " stroke="none" fill="#ad4f21" fill-rule="evenodd"></path></g></svg>